<?xml version="1.0" encoding="UTF-8"?>
<svg id="Layer_1" data-name="Layer 1" xmlns="http://www.w3.org/2000/svg" xmlns:xlink="http://www.w3.org/1999/xlink" viewBox="0 0 892.64 686.68">
  <defs>
    <style>
      .cls-1 {
        clip-path: url(#clippath);
      }

      .cls-2 {
        fill: none;
      }

      .cls-2, .cls-3, .cls-4 {
        stroke-width: 0px;
      }

      .cls-3 {
        fill: #fb6d26;
      }

      .cls-4 {
        fill: #171321;
      }
    </style>
    <clipPath id="clippath">
      <rect class="cls-2" width="892.64" height="686.68"/>
    </clipPath>
  </defs>
  <rect class="cls-4" width="892.64" height="686.68"/>
  <g class="cls-1">
    <g>
      <path class="cls-3" d="m511.35,417.21v-1.5c24.33,0,46.74-12.21,59.96-32.67l1.26.81c-13.5,20.89-36.38,33.36-61.22,33.36Zm.26-18.23c-14.35,0-27.95-5.51-38.28-15.53l-56.83-57.24c-4.83-4.96-11.29-7.69-18.19-7.69-14.01,0-25.41,11.4-25.41,25.41s11.4,25.41,25.41,25.41c6.48,0,12.65-2.45,17.38-6.89l12.07-12.2,1.07,1.05-12.09,12.22c-5.03,4.73-11.57,7.32-18.43,7.32-14.84,0-26.91-12.07-26.91-26.91s12.07-26.91,26.91-26.91c7.31,0,14.15,2.89,19.26,8.14l56.82,57.22c10.04,9.73,23.27,15.09,37.23,15.09,29.53,0,53.55-24.02,53.55-53.55s-24.02-53.55-53.55-53.55c-14.5,0-28.08,5.72-38.25,16.11l-10.81,10.94-1.07-1.05,10.81-10.94c10.45-10.68,24.42-16.56,39.32-16.56,30.35,0,55.05,24.69,55.05,55.05s-24.69,55.05-55.05,55.05Zm-113.31,0c-30.35,0-55.05-24.69-55.05-55.05s24.69-55.05,55.05-55.05c14.91,0,28.88,5.89,39.34,16.58l56.51,56.91c4.73,4.49,10.94,6.97,17.46,6.97,14.01,0,25.41-11.4,25.41-25.41s-11.4-25.41-25.41-25.41c-6.9,0-13.36,2.73-18.18,7.68l-11.05,11.2-1.07-1.05,11.05-11.19c5.11-5.24,11.95-8.13,19.26-8.13,14.84,0,26.91,12.07,26.91,26.91s-12.07,26.91-26.91,26.91c-6.91,0-13.49-2.63-18.51-7.4l-56.53-56.93c-10.18-10.4-23.77-16.13-38.27-16.13-29.53,0-53.55,24.02-53.55,53.55s24.02,53.55,53.55,53.55c14.02,0,27.28-5.4,37.34-15.21l11.94-12.03,1.06,1.06-11.95,12.03c-10.36,10.09-23.99,15.64-38.4,15.64Zm179.02-23.69l-1.36-.64c2.03-4.33,3.63-8.89,4.75-13.54l1.46.35c-1.14,4.75-2.77,9.4-4.85,13.82Zm6.68-25.62l-1.5-.11c.12-1.72.19-3.46.19-5.18h1.5c0,1.76-.06,3.54-.19,5.29Zm-257.5-6.12h-1.5c0-1.76.06-3.54.19-5.29l1.5.11c-.12,1.72-.19,3.46-.19,5.19Zm1.98-16.74l-1.46-.35c1.14-4.75,2.77-9.4,4.85-13.82l1.36.64c-2.03,4.33-3.63,8.89-4.75,13.54Zm9.4-21.92l-1.26-.81c13.5-20.89,36.38-33.36,61.22-33.36v1.5c-24.33,0-46.74,12.21-59.96,32.67Z"/>
      <g>
        <path class="cls-3" d="m264.87,359.06c-7.79,0-16.08-2.25-16.08-6.41v-27.36h1.5v27.36c0,2.32,5.99,4.91,14.58,4.91s14.58-2.59,14.58-4.91v-5.66h1.5v5.66c0,4.16-8.28,6.41-16.08,6.41Z"/>
        <rect class="cls-3" x="279.45" y="319.63" width="1.5" height="22.01"/>
        <path class="cls-3" d="m264.87,326.05c-7.79,0-16.08-2.25-16.08-6.41s8.28-6.41,16.08-6.41,16.08,2.25,16.08,6.41-8.28,6.41-16.08,6.41Zm0-11.32c-8.59,0-14.58,2.59-14.58,4.91s5.99,4.91,14.58,4.91,14.58-2.59,14.58-4.91-5.99-4.91-14.58-4.91Z"/>
        <path class="cls-3" d="m264.87,337.36c-8.87,0-16.08-3.02-16.08-6.72h1.5c0,2.47,6.23,5.22,14.58,5.22s14.58-2.76,14.58-5.22h1.5c0,3.71-7.21,6.72-16.08,6.72Z"/>
        <path class="cls-3" d="m264.87,348.21c-9.02,0-16.08-2.88-16.08-6.57h1.5c0,2.39,6.23,5.07,14.58,5.07s14.58-2.68,14.58-5.07h1.5c0,3.68-7.06,6.57-16.08,6.57Z"/>
      </g>
      <g id="continuous-delivery-96px">
        <polygon class="cls-3" points="343.98 504.48 338.07 498.57 339.13 497.51 343.98 502.36 356.61 489.75 357.67 490.81 343.98 504.48"/>
        <path class="cls-3" d="m347.87,521.95c-13.84,0-25.1-11.26-25.1-25.1s11.26-25.1,25.1-25.1,25.1,11.26,25.1,25.1-11.26,25.1-25.1,25.1Zm0-48.7c-13.01,0-23.6,10.59-23.6,23.6s10.59,23.6,23.6,23.6,23.6-10.59,23.6-23.6-10.59-23.6-23.6-23.6Z"/>
        <g>
          <path class="cls-3" d="m347.84,537.59c-4.22,0-8.5-.66-12.72-2.04-12.29-4.04-22.03-13.8-26.04-26.1l1.43-.46c3.87,11.85,13.25,21.25,25.09,25.14,20.58,6.77,42.83-4.45,49.6-25,1.44-4.36,2.1-8.88,1.96-13.42l1.5-.04c.14,4.72-.55,9.41-2.04,13.93-5.64,17.12-21.64,28.01-38.77,28.01Z"/>
          <path class="cls-3" d="m307.09,498.02c-.14-4.71.55-9.39,2.04-13.9,7.03-21.34,30.13-32.98,51.5-25.96,12.25,4.03,21.67,13.33,25.85,25.53l-1.42.49c-4.03-11.75-13.1-20.71-24.9-24.59-20.58-6.77-42.83,4.45-49.6,25.01-1.43,4.35-2.09,8.86-1.96,13.39l-1.5.04Z"/>
          <polygon class="cls-3" points="307.71 517.69 306.29 517.22 309.19 508.42 317.99 511.32 317.52 512.74 310.14 510.32 307.71 517.69"/>
          <polygon class="cls-3" points="386.55 485.27 377.75 482.38 378.22 480.95 385.6 483.38 388.03 476.01 389.45 476.48 386.55 485.27"/>
        </g>
      </g>
      <g id="inclusion-96px">
        <path class="cls-3" d="m704.07,284.72c-4.68,0-8.49-3.81-8.49-8.5s3.81-8.49,8.49-8.49,8.49,3.81,8.49,8.49-3.81,8.5-8.49,8.5Zm0-15.49c-3.86,0-6.99,3.14-6.99,6.99s3.14,7,6.99,7,6.99-3.14,6.99-7-3.14-6.99-6.99-6.99Z"/>
        <path class="cls-3" d="m704.07,360.23c-4.68,0-8.49-3.81-8.49-8.5s3.81-8.5,8.49-8.5,8.49,3.81,8.49,8.5-3.81,8.5-8.49,8.5Zm0-15.49c-3.86,0-6.99,3.14-6.99,7s3.14,7,6.99,7,6.99-3.14,6.99-7-3.14-7-6.99-7Z"/>
        <path class="cls-3" d="m666.31,322.47c-4.68,0-8.49-3.81-8.49-8.49s3.81-8.5,8.49-8.5,8.49,3.81,8.49,8.5-3.81,8.49-8.49,8.49Zm0-15.49c-3.86,0-6.99,3.14-6.99,7s3.14,6.99,6.99,6.99,6.99-3.14,6.99-6.99-3.14-7-6.99-7Z"/>
        <path class="cls-3" d="m741.82,322.47c-4.68,0-8.49-3.81-8.49-8.49s3.81-8.5,8.49-8.5,8.49,3.81,8.49,8.5-3.81,8.49-8.49,8.49Zm0-15.49c-3.86,0-6.99,3.14-6.99,7s3.14,6.99,6.99,6.99,6.99-3.14,6.99-6.99-3.14-7-6.99-7Z"/>
        <path class="cls-3" d="m704.07,338.93c-13.76,0-24.95-11.19-24.95-24.95,0-2.81.46-5.57,1.38-8.19l1.42.49c-.86,2.47-1.29,5.06-1.29,7.7,0,12.93,10.52,23.45,23.45,23.45,6.01,0,11.68-2.25,16.04-6.35l-34.22-34.22.53-.53c4.71-4.71,10.98-7.31,17.64-7.31,13.76,0,24.95,11.19,24.95,24.95,0,2.66-.42,5.27-1.24,7.78l-1.43-.47c.77-2.35,1.16-4.81,1.16-7.31,0-12.93-10.52-23.45-23.45-23.45-6.01,0-11.68,2.25-16.04,6.35l34.22,34.22-.53.53c-4.71,4.71-10.98,7.31-17.64,7.31Z"/>
        <rect class="cls-3" x="679.87" y="313.23" width="48.4" height="1.5" transform="translate(-15.8 589.81) rotate(-45)"/>
      </g>
      <g id="cloud-96px">
        <path class="cls-3" d="m360.74,157.31h-12.85c-4.21,0-7.64-3.43-7.64-7.64s3.43-7.64,7.64-7.64c.16,0,.32,0,.49.02.64-4.79,4.74-8.44,9.66-8.44,4.06,0,7.71,2.56,9.12,6.31.59-.12,1.19-.19,1.79-.19,4.85,0,8.79,3.94,8.79,8.79,0,4.58-3.44,8.34-7.99,8.76l-.14-1.49c3.78-.34,6.63-3.46,6.63-7.26,0-4.02-3.27-7.29-7.29-7.29-.69,0-1.39.1-2.07.3l-.72.21-.21-.72c-1.02-3.49-4.28-5.92-7.91-5.92-4.39,0-8.01,3.43-8.24,7.82l-.04.84-.83-.14c-.37-.06-.71-.09-1.04-.09-3.39,0-6.14,2.76-6.14,6.14s2.76,6.14,6.14,6.14h12.85v1.5Z"/>
      </g>
      <g>
        <g>
          <rect class="cls-3" x="786.83" y="445.15" width="28.83" height="1.5"/>
          <rect class="cls-3" x="771.67" y="465.1" width="1.5" height="28.83" transform="translate(280.17 1243.89) rotate(-89.05)"/>
          <path class="cls-3" d="m788.88,496.73h-2.04c-18.82,0-34.12-15.32-34.12-34.14h1.5c0,17.31,13.53,31.51,30.56,32.58-9.8-8.96-15.38-20.59-15.38-32.2h1.5c0,11.77,5.98,23.59,16.42,32.44l1.56,1.32Z"/>
          <path class="cls-3" d="m804.27,463.35h-1.5c0-12.8-6.13-25.34-16.41-33.54l-1.68-1.34h2.14c18.82,0,34.13,15.3,34.13,34.11v.15s-.79-.15-.79-.15h-.71c0-17.26-13.49-31.44-30.48-32.54,9.62,8.47,15.3,20.76,15.3,33.3Z"/>
        </g>
        <g>
          <path class="cls-3" d="m763.12,457.21c-10.1,0-18.32-8.22-18.32-18.32s8.22-18.32,18.32-18.32,18.32,8.22,18.32,18.32-8.22,18.32-18.32,18.32Zm0-35.13c-9.27,0-16.82,7.54-16.82,16.82s7.54,16.82,16.82,16.82,16.82-7.54,16.82-16.82-7.54-16.82-16.82-16.82Z"/>
          <path class="cls-3" d="m763.12,442.69c-3.36,0-6.1-2.73-6.1-6.1s2.73-6.1,6.1-6.1,6.1,2.74,6.1,6.1-2.73,6.1-6.1,6.1Zm0-10.69c-2.53,0-4.6,2.06-4.6,4.6s2.06,4.6,4.6,4.6,4.6-2.06,4.6-4.6-2.06-4.6-4.6-4.6Z"/>
          <path class="cls-3" d="m774.01,452.37l-3.06-3.5c-1.31-1.5-3.2-2.35-5.18-2.35h-5.29c-1.99,0-3.88.86-5.18,2.35l-3.06,3.5-1.13-.99,3.06-3.5c1.59-1.82,3.89-2.86,6.31-2.86h5.29c2.42,0,4.72,1.04,6.31,2.86l3.06,3.5-1.13.99Z"/>
        </g>
        <g>
          <path class="cls-3" d="m810.55,504.64c-10.1,0-18.32-8.22-18.32-18.32s8.22-18.32,18.32-18.32,18.32,8.22,18.32,18.32-8.22,18.32-18.32,18.32Zm0-35.13c-9.27,0-16.82,7.54-16.82,16.82s7.54,16.82,16.82,16.82,16.82-7.54,16.82-16.82-7.54-16.82-16.82-16.82Z"/>
          <path class="cls-3" d="m810.55,490.12c-3.36,0-6.1-2.73-6.1-6.1s2.73-6.1,6.1-6.1,6.1,2.74,6.1,6.1-2.73,6.1-6.1,6.1Zm0-10.69c-2.53,0-4.6,2.06-4.6,4.6s2.06,4.6,4.6,4.6,4.6-2.06,4.6-4.6-2.06-4.6-4.6-4.6Z"/>
          <path class="cls-3" d="m821.44,499.8l-3.06-3.5c-1.31-1.5-3.2-2.35-5.18-2.35h-5.29c-1.99,0-3.88.86-5.18,2.35l-3.06,3.5-1.13-.99,3.06-3.5c1.59-1.82,3.89-2.86,6.31-2.86h5.29c2.42,0,4.72,1.04,6.31,2.86l3.06,3.5-1.13.99Z"/>
        </g>
        <g id="user-24px">
          <path class="cls-3" d="m739.02,516.21c-8.76,0-15.88-7.13-15.88-15.88s7.13-15.88,15.88-15.88,15.88,7.13,15.88,15.88c0,2.67-.67,5.3-1.95,7.63l-1.32-.72c1.15-2.1,1.76-4.49,1.76-6.91,0-7.93-6.45-14.38-14.38-14.38s-14.38,6.45-14.38,14.38c0,4.23,1.83,8.03,4.74,10.67l1.16-1.93c1.32-2.2,3.73-3.56,6.29-3.56h4.39c2.56,0,4.97,1.36,6.29,3.56l1.96,3.26-.51.41c-2.8,2.25-6.33,3.48-9.93,3.48Zm-8.47-4.26c2.38,1.74,5.3,2.76,8.47,2.76s6-.95,8.47-2.76l-1.27-2.12c-1.05-1.75-2.96-2.83-5-2.83h-4.39c-2.04,0-3.95,1.08-5,2.83l-1.27,2.12Z"/>
          <path class="cls-3" d="m739.02,503.05c-2.95,0-5.36-2.4-5.36-5.36s2.4-5.36,5.36-5.36,5.36,2.4,5.36,5.36-2.4,5.36-5.36,5.36Zm0-9.21c-2.13,0-3.86,1.73-3.86,3.86s1.73,3.86,3.86,3.86,3.86-1.73,3.86-3.86-1.73-3.86-3.86-3.86Z"/>
        </g>
        <g id="user-24px-2" data-name="user-24px">
          <path class="cls-3" d="m832.89,443.34c-7.4,0-13.42-6.02-13.42-13.42s6.02-13.42,13.42-13.42,13.42,6.02,13.42,13.42c0,2.25-.57,4.48-1.65,6.44l-1.32-.72c.96-1.74,1.46-3.72,1.46-5.72,0-6.58-5.35-11.92-11.92-11.92s-11.92,5.35-11.92,11.92c0,3.45,1.47,6.56,3.82,8.74l.9-1.49c1.13-1.88,3.18-3.04,5.37-3.04h3.68c2.19,0,4.24,1.16,5.37,3.04l1.69,2.82-.51.41c-2.37,1.9-5.35,2.94-8.39,2.94Zm-6.93-3.72c1.95,1.4,4.35,2.22,6.93,2.22s4.91-.77,6.93-2.22l-1.01-1.68c-.86-1.42-2.42-2.31-4.08-2.31h-3.68c-1.66,0-3.23.89-4.08,2.31l-1.01,1.68Z"/>
          <path class="cls-3" d="m832.89,432.32c-2.54,0-4.61-2.07-4.61-4.61s2.07-4.61,4.61-4.61,4.61,2.07,4.61,4.61-2.07,4.61-4.61,4.61Zm0-7.71c-1.71,0-3.11,1.39-3.11,3.11s1.39,3.11,3.11,3.11,3.11-1.39,3.11-3.11-1.39-3.11-3.11-3.11Z"/>
        </g>
      </g>
      <g>
        <path class="cls-3" d="m218.74,493.97h-7.6l-1.83-9.81c-2.25-.65-4.44-1.56-6.5-2.69l-8.22,6.12-10.65-10.65,6.12-8.21c-1.13-2.06-2.03-4.24-2.69-6.48l-10.14-1.48v-15.07l10.14-1.48c.65-2.25,1.56-4.43,2.69-6.49l-6.12-8.22,10.65-10.65,8.22,6.12c2.07-1.14,4.25-2.04,6.5-2.7l1.83-9.81h7.6v81.5Zm-6.35-1.5h4.85v-78.5h-4.85l-1.77,9.5-.45.12c-2.45.67-4.82,1.65-7.04,2.92l-.43.24-7.96-5.93-8.82,8.82,5.93,7.96-.24.43c-1.26,2.22-2.25,4.59-2.92,7.04l-.13.47-9.82,1.43v12.47l9.82,1.44.13.47c.67,2.45,1.66,4.82,2.92,7.04l.24.43-5.93,7.96,8.82,8.82,7.96-5.93.43.24c2.22,1.26,4.58,2.24,7.04,2.92l.45.12,1.77,9.5Z"/>
        <path class="cls-3" d="m217.97,467.23c-7.67-.19-13.69-6.34-13.69-14.01s6.01-13.83,13.69-14.01l.04,1.5c-6.85.17-12.22,5.66-12.22,12.51s5.37,12.34,12.22,12.51l-.04,1.5Z"/>
        <path class="cls-3" d="m240.96,428.19h-12.17v-12.17h12.17v12.17Zm-10.67-1.5h9.17v-9.17h-9.17v9.17Z"/>
        <path class="cls-3" d="m240.96,491.3h-12.17v-12.17h12.17v12.17Zm-10.67-1.5h9.17v-9.17h-9.17v9.17Z"/>
        <path class="cls-3" d="m240.07,459.3h-12.17v-12.17h12.17v12.17Zm-10.67-1.5h9.17v-9.17h-9.17v9.17Z"/>
        <path class="cls-3" d="m262.29,445.08h-12.17v-12.17h12.17v12.17Zm-10.67-1.5h9.17v-9.17h-9.17v9.17Z"/>
        <path class="cls-3" d="m262.29,474.41h-12.17v-12.17h12.17v12.17Zm-10.67-1.5h9.17v-9.17h-9.17v9.17Z"/>
      </g>
      <g id="values-96px">
        <g>
          <path class="cls-3" d="m140.56,158.92c-6.4,0-11.28-1.87-13.52-5.72-1.38-2.37-1.63-5.25-.74-8.57,2.41-8.98,13-19.95,27-27.94,20-11.42,39.79-13.29,45.07-4.25,1.38,2.36,1.63,5.25.74,8.57-2.41,8.98-13,19.95-27,27.94-11.48,6.56-22.9,9.97-31.54,9.97Zm44.36-50.69c-8.37,0-19.69,3.37-30.88,9.76-13.66,7.8-23.99,18.41-26.29,27.03-.78,2.92-.58,5.42.59,7.42,4.77,8.18,24.08,6.03,43.03-4.8,13.67-7.8,23.99-18.41,26.29-27.03.78-2.92.58-5.42-.59-7.42-1.95-3.35-6.34-4.97-12.15-4.97Z"/>
          <path class="cls-3" d="m184.84,158.92c-8.64,0-20.06-3.41-31.54-9.97-13.99-7.99-24.59-18.96-27-27.94-.89-3.32-.64-6.2.74-8.57,2.29-3.92,7.56-5.93,14.85-5.64l-.06,1.5c-6.71-.25-11.5,1.48-13.5,4.89-1.17,2.01-1.37,4.5-.59,7.42,2.31,8.61,12.63,19.22,26.29,27.03,18.95,10.83,38.25,12.98,43.03,4.8,1.17-2.01,1.37-4.5.59-7.42-2.31-8.61-12.63-19.22-26.29-27.03-5.88-3.36-12.06-6.01-17.9-7.68l.41-1.44c5.95,1.7,12.25,4.4,18.23,7.82,13.99,7.99,24.59,18.96,27,27.94.89,3.32.64,6.2-.74,8.57-2.25,3.85-7.12,5.72-13.52,5.72Z"/>
          <path class="cls-3" d="m162.7,173.57c-10.38,0-18.82-18.28-18.82-40.75s8.44-40.75,18.82-40.75,18.82,18.28,18.82,40.75c0,1.02-.02,2.04-.05,3.04l-1.5-.05c.03-.99.05-1.98.05-2.99,0-21.64-7.77-39.25-17.32-39.25s-17.32,17.61-17.32,39.25,7.77,39.25,17.32,39.25c6.6,0,12.73-8.79,15.62-22.38l1.47.31c-3.09,14.54-9.64,23.57-17.09,23.57Z"/>
        </g>
        <path class="cls-3" d="m162.7,141.55l-8.2-8.34c-1.98-2.01-1.98-5.28,0-7.29.96-.98,2.24-1.51,3.6-1.51s2.64.54,3.6,1.51l1,1.02,1-1.02c.96-.98,2.24-1.51,3.6-1.51s2.64.54,3.6,1.51c1.98,2.01,1.98,5.28,0,7.29l-8.2,8.34Zm-4.6-15.64c-.96,0-1.85.38-2.53,1.07-1.41,1.43-1.41,3.75,0,5.18l7.13,7.25,7.13-7.25c1.41-1.43,1.41-3.75,0-5.18-1.35-1.38-3.71-1.38-5.06,0l-2.07,2.1-2.07-2.1c-.68-.69-1.58-1.07-2.53-1.07Z"/>
      </g>
      <g>
        <path class="cls-3" d="m567.9,142.36l-16.49-9.49,8.19-8.19c3.08-3.08,6.98-5.1,11.28-5.83l15.08-2.57.25,1.48-15.08,2.57c-3.99.68-7.61,2.55-10.47,5.41l-6.81,6.81,14.79,8.51-.75,1.3Z"/>
        <path class="cls-3" d="m598.39,179.85l-9.77-16.99,35.51-35.51c4.51-4.51,7.21-10.51,7.6-16.88l.51-8.3-2.78-2.78-8.3.51c-6.37.39-12.36,3.09-16.88,7.6l-34.57,34.57,14.34,14.34-1.06,1.06-15.41-15.41,35.63-35.63c4.77-4.77,11.11-7.63,17.85-8.04l8.98-.55,3.74,3.74-.55,8.98c-.41,6.74-3.27,13.07-8.04,17.85l-8.32,8.32-4.39,23.82c-.77,4.18-2.77,7.99-5.78,10.99l-8.3,8.3Zm-7.9-16.74l8.22,14.29,6.92-6.92c2.79-2.79,4.65-6.32,5.36-10.2l4-21.68-24.51,24.51Z"/>
        <path class="cls-3" d="m626.96,113.29l-1.75-3.36c-.84-1.62-2.15-2.91-3.77-3.75l-3.28-1.69.69-1.33,3.28,1.69c1.9.98,3.42,2.5,4.41,4.39l1.75,3.36-1.33.69Z"/>
        <rect class="cls-3" x="548.85" y="161.49" width="23.56" height="1.5" transform="translate(49.48 443.95) rotate(-45)"/>
        <rect class="cls-3" x="566.43" y="167.07" width="11.56" height="1.5" transform="translate(48.93 453.77) rotate(-45)"/>
      </g>
      <g id="padlock-closed-96px">
        <path class="cls-3" d="m72.37,418.78h-26.13v-22.27h31.5v16.9c0,2.96-2.41,5.37-5.37,5.37Zm-24.63-1.5h24.63c2.13,0,3.87-1.73,3.87-3.87v-15.4h-28.5v19.27Z"/>
        <path class="cls-3" d="m72.35,397.26h-1.5v-5.77c0-4.89-3.98-8.87-8.87-8.87s-8.87,3.98-8.87,8.87v5.77h-1.5v-5.77c0-5.72,4.65-10.37,10.37-10.37s10.37,4.65,10.37,10.37v5.77Z"/>
        <rect class="cls-3" x="61.24" y="404.56" width="1.5" height="6.15"/>
      </g>
      <g>
        <path class="cls-3" d="m47.14,258.45c-22.47,0-40.75-18.28-40.75-40.75s18.28-40.75,40.75-40.75c18.66,0,34.91,12.62,39.5,30.68l-1.45.37c-4.42-17.4-20.07-29.55-38.04-29.55-21.64,0-39.25,17.61-39.25,39.25s17.61,39.25,39.25,39.25c13.43,0,25.78-6.75,33.05-18.07l1.26.81c-7.54,11.74-20.37,18.76-34.31,18.76Z"/>
        <path class="cls-3" d="m47.14,246.06c-15.64,0-28.37-12.73-28.37-28.37s12.73-28.37,28.37-28.37c13.35,0,25.03,9.47,27.76,22.52l-1.47.31c-2.59-12.36-13.65-21.32-26.3-21.32-14.82,0-26.87,12.05-26.87,26.87s12.05,26.87,26.87,26.87c9.16,0,17.59-4.59,22.57-12.29l1.26.81c-5.26,8.13-14.17,12.98-23.83,12.98Z"/>
        <path class="cls-3" d="m47.14,233.68c-8.82,0-15.99-7.17-15.99-15.99s7.17-15.99,15.99-15.99,15.99,7.17,15.99,15.99h-1.5c0-7.99-6.5-14.49-14.49-14.49s-14.49,6.5-14.49,14.49,6.5,14.49,14.49,14.49c4.82,0,9.31-2.39,12.01-6.39l1.24.84c-2.98,4.41-7.94,7.05-13.26,7.05Z"/>
        <rect class="cls-3" x="47.14" y="216.95" width="41.61" height="1.5"/>
        <path class="cls-3" d="m89.43,218.45h-20.88l7.72-11.02h20.88l-7.72,11.02Zm-18-1.5h17.22l5.62-8.02h-17.22l-5.62,8.02Z"/>
        <path class="cls-3" d="m97.15,227.97h-20.88l-7.72-11.02h20.88l7.72,11.02Zm-20.1-1.5h17.22l-5.62-8.02h-17.22l5.62,8.02Z"/>
        <rect class="cls-3" x="46.39" y="214.84" width="1.5" height="5.71"/>
        <rect class="cls-3" x="86.18" y="234.09" width="11.43" height="1.5"/>
        <rect class="cls-3" x="90.95" y="199.8" width="6.67" height="1.5"/>
      </g>
      <g>
        <path class="cls-3" d="m835.76,362.29h-15.31v-33.22h15.31v33.22Zm-13.81-1.5h12.31v-30.22h-12.31v30.22Z"/>
        <path class="cls-3" d="m861.87,362.29h-16.04v-48.01h16.04v48.01Zm-14.54-1.5h13.04v-45.01h-13.04v45.01Z"/>
        <path class="cls-3" d="m880.32,362.29h-8.37v-28.3h15.31v21.36c0,3.83-3.11,6.94-6.94,6.94Zm-6.87-1.5h6.87c3,0,5.44-2.44,5.44-5.44v-19.86h-12.31v25.3Z"/>
        <rect class="cls-3" x="813.17" y="308.26" width="1.5" height="67.09"/>
        <rect class="cls-3" x="807.38" y="368.06" width="79.85" height="1.5"/>
      </g>
      <g>
        <path class="cls-3" d="m632.11,418.29c-2.63,0-4.77-2.14-4.77-4.77s2.14-4.77,4.77-4.77,4.77,2.14,4.77,4.77-2.14,4.77-4.77,4.77Zm0-8.04c-1.8,0-3.27,1.47-3.27,3.27s1.47,3.27,3.27,3.27,3.27-1.47,3.27-3.27-1.47-3.27-3.27-3.27Z"/>
        <path class="cls-3" d="m632.11,450.25c-2.63,0-4.77-2.14-4.77-4.77s2.14-4.77,4.77-4.77,4.77,2.14,4.77,4.77-2.14,4.77-4.77,4.77Zm0-8.04c-1.8,0-3.27,1.47-3.27,3.27s1.47,3.27,3.27,3.27,3.27-1.47,3.27-3.27-1.47-3.27-3.27-3.27Z"/>
        <path class="cls-3" d="m614.41,418.29c-2.63,0-4.77-2.14-4.77-4.77s2.14-4.77,4.77-4.77,4.77,2.14,4.77,4.77-2.14,4.77-4.77,4.77Zm0-8.04c-1.8,0-3.27,1.47-3.27,3.27s1.47,3.27,3.27,3.27,3.27-1.47,3.27-3.27-1.47-3.27-3.27-3.27Z"/>
        <rect class="cls-3" x="631.36" y="416.74" width="1.5" height="25.52"/>
        <path class="cls-3" d="m632.86,438.77h-1.5v-2.17c0-1.9-1.29-3.53-3.13-3.97l-10.27-2.44c-2.52-.6-4.29-2.83-4.29-5.42v-8.03h1.5v8.03c0,1.9,1.29,3.53,3.13,3.97l10.27,2.44c2.52.6,4.29,2.83,4.29,5.43v2.17Z"/>
      </g>
      <g id="repository-96px">
        <path class="cls-3" d="m574.65,507.12h-48.17v-1.5h48.17c4.57,0,8.28-3.72,8.28-8.28v-30.11h-57.96v33.5c0,3.53-2.87,6.39-6.4,6.39s-6.4-2.87-6.4-6.39v-50.05h31.23l7.53,9.79h23.72v1.5h-24.46l-7.53-9.79h-28.99v48.55c0,2.7,2.2,4.89,4.9,4.89s4.9-2.2,4.9-4.89v-35h60.96v31.61c0,5.39-4.39,9.78-9.78,9.78Z"/>
        <polygon class="cls-3" points="584.43 524.18 512.18 524.18 512.18 515.41 544.55 515.41 544.55 506.37 546.05 506.37 546.05 516.91 513.68 516.91 513.68 522.68 582.93 522.68 582.93 516.91 550.57 516.91 550.57 506.37 552.07 506.37 552.07 515.41 584.43 515.41 584.43 524.18"/>
        <rect class="cls-3" x="567.88" y="516.16" width="1.5" height="7.27"/>
        <rect class="cls-3" x="527.23" y="516.16" width="1.5" height="7.27"/>
      </g>
      <g>
        <path class="cls-3" d="m291.94,267.69h-20.3v-15.2h1.5v13.7h18.8c5.21,0,9.45-4.24,9.45-9.45v-4.46c0-1.39.36-2.98,1.05-4.6l1.38.59c-.61,1.43-.93,2.81-.93,4.01v4.46c0,6.04-4.91,10.95-10.95,10.95Z"/>
        <path class="cls-3" d="m316.7,210.19c-3.78-13.67-16.34-22.91-30.54-22.49-5.02.15-9.98,1.57-14.34,4.1l-.75-1.3c4.58-2.66,9.79-4.14,15.05-4.3,14.86-.44,28.07,9.25,32.03,23.58l-1.45.4Z"/>
        <path class="cls-3" d="m302.14,253.24h-30.5v-1.29c0-3.1-1.45-5.99-3.99-7.92-4.53-3.44-8.07-8.02-10.25-13.24l1.38-.58c2.08,4.98,5.46,9.34,9.78,12.62,2.86,2.17,4.52,5.41,4.58,8.9h29v1.5Z"/>
        <path class="cls-3" d="m263.89,224.34c-9.79,0-17.75-7.96-17.75-17.75s7.96-17.75,17.75-17.75,17.75,7.96,17.75,17.75-7.96,17.75-17.75,17.75Zm0-34c-8.96,0-16.25,7.29-16.25,16.25s7.29,16.25,16.25,16.25,16.25-7.29,16.25-16.25-7.29-16.25-16.25-16.25Z"/>
        <path class="cls-3" d="m263.89,210.3c-3.27,0-5.92-2.66-5.92-5.92s2.66-5.92,5.92-5.92,5.92,2.66,5.92,5.92-2.66,5.92-5.92,5.92Zm0-10.35c-2.44,0-4.42,1.98-4.42,4.42s1.98,4.42,4.42,4.42,4.42-1.98,4.42-4.42-1.98-4.42-4.42-4.42Z"/>
        <path class="cls-3" d="m274.41,219.65l-2.97-3.39c-1.26-1.44-3.08-2.27-5-2.27h-5.12c-1.92,0-3.74.83-5,2.27l-2.96,3.39-1.13-.99,2.96-3.39c1.55-1.77,3.78-2.78,6.13-2.78h5.12c2.35,0,4.58,1.01,6.13,2.78l2.97,3.39-1.13.99Z"/>
        <path class="cls-3" d="m309.79,249.84c-9.79,0-17.75-7.96-17.75-17.75s7.96-17.75,17.75-17.75,17.75,7.96,17.75,17.75-7.96,17.75-17.75,17.75Zm0-34c-8.96,0-16.25,7.29-16.25,16.25s7.29,16.25,16.25,16.25,16.25-7.29,16.25-16.25-7.29-16.25-16.25-16.25Z"/>
        <path class="cls-3" d="m309.79,235.8c-3.27,0-5.92-2.66-5.92-5.92s2.66-5.92,5.92-5.92,5.92,2.66,5.92,5.92-2.66,5.92-5.92,5.92Zm0-10.35c-2.44,0-4.42,1.98-4.42,4.42s1.98,4.42,4.42,4.42,4.42-1.98,4.42-4.42-1.98-4.42-4.42-4.42Z"/>
        <path class="cls-3" d="m320.31,245.15l-2.97-3.39c-1.26-1.44-3.08-2.27-5-2.27h-5.12c-1.92,0-3.74.83-5,2.27l-2.97,3.39-1.13-.99,2.97-3.39c1.55-1.77,3.78-2.78,6.13-2.78h5.12c2.35,0,4.58,1.01,6.13,2.78l2.97,3.39-1.13.99Z"/>
      </g>
      <g>
        <rect class="cls-3" x="376.39" y="210.02" width="1.5" height="13.64"/>
        <rect class="cls-3" x="370.32" y="216.09" width="13.64" height="1.5"/>
      </g>
      <g>
        <rect class="cls-3" x="865.97" y="166" width="1.5" height="13.64"/>
        <rect class="cls-3" x="859.89" y="172.07" width="13.64" height="1.5"/>
      </g>
      <g>
        <rect class="cls-3" x="271.64" y="554.37" width="1.5" height="13.64"/>
        <rect class="cls-3" x="265.56" y="560.45" width="13.64" height="1.5"/>
      </g>
      <g>
        <rect class="cls-3" x="547.56" y="585.96" width="1.5" height="13.64"/>
        <rect class="cls-3" x="541.48" y="592.03" width="13.64" height="1.5"/>
      </g>
      <g>
        <rect class="cls-3" x="801.36" y="21.42" width="1.5" height="13.64"/>
        <rect class="cls-3" x="795.29" y="27.49" width="13.64" height="1.5"/>
      </g>
      <g>
        <rect class="cls-3" x="41.78" y="88.78" width="1.5" height="13.64"/>
        <rect class="cls-3" x="35.71" y="94.86" width="13.64" height="1.5"/>
      </g>
      <g>
        <rect class="cls-3" x="210.23" y="375.27" width="1.5" height="9.45"/>
        <rect class="cls-3" x="206.25" y="379.25" width="9.45" height="1.5"/>
      </g>
      <g>
        <rect class="cls-3" x="617.68" y="480.49" width="1.5" height="9.45"/>
        <rect class="cls-3" x="613.71" y="484.47" width="9.45" height="1.5"/>
      </g>
      <g>
        <rect class="cls-3" x="861.24" y="539.45" width="1.5" height="9.45"/>
        <rect class="cls-3" x="857.27" y="543.42" width="9.45" height="1.5"/>
      </g>
      <g>
        <rect class="cls-3" x="508.7" y="140.73" width="1.5" height="9.45"/>
        <rect class="cls-3" x="504.72" y="144.7" width="9.45" height="1.5"/>
      </g>
      <g>
        <rect class="cls-3" x="314.19" y="412.01" width="1.5" height="9.45"/>
        <rect class="cls-3" x="310.22" y="415.99" width="9.45" height="1.5"/>
      </g>
      <g>
        <rect class="cls-3" x="255.46" y="136.99" width="1.5" height="9.45"/>
        <rect class="cls-3" x="251.48" y="140.96" width="9.45" height="1.5"/>
      </g>
      <g>
        <rect class="cls-3" x="107.92" y="624.43" width="1.5" height="9.45"/>
        <rect class="cls-3" x="103.94" y="628.41" width="9.45" height="1.5"/>
      </g>
      <g>
        <rect class="cls-3" x="390.48" y="33.22" width="1.5" height="9.45"/>
        <rect class="cls-3" x="386.5" y="37.2" width="9.45" height="1.5"/>
      </g>
      <g>
        <rect class="cls-3" x="26.26" y="467.82" width="1.5" height="9.45"/>
        <rect class="cls-3" x="22.29" y="471.79" width="9.45" height="1.5"/>
      </g>
      <g>
        <rect class="cls-3" x="692.3" y="128.09" width="1.5" height="9.45"/>
        <rect class="cls-3" x="688.32" y="132.07" width="9.45" height="1.5"/>
      </g>
      <path class="cls-3" d="m621.09,362.57c-.71,0-1.28-.58-1.28-1.28s.58-1.28,1.28-1.28,1.28.58,1.28,1.28-.57,1.28-1.28,1.28Zm0-1.5c-.12,0-.22.1-.22.22,0,.24.44.24.44,0,0-.12-.1-.22-.22-.22Z"/>
      <path class="cls-3" d="m665.13,516.18c-.71,0-1.28-.58-1.28-1.28s.57-1.28,1.28-1.28,1.28.58,1.28,1.28-.58,1.28-1.28,1.28Zm0-1.5c-.12,0-.22.1-.22.22,0,.24.44.24.44,0,0-.12-.1-.22-.22-.22Z"/>
      <path class="cls-3" d="m875.6,21.85c-.71,0-1.28-.58-1.28-1.28s.57-1.28,1.28-1.28,1.28.58,1.28,1.28-.58,1.28-1.28,1.28Zm0-1.5c-.12,0-.22.1-.22.22,0,.24.44.24.44,0,0-.12-.1-.22-.22-.22Z"/>
      <path class="cls-3" d="m31.58,645.83c-.71,0-1.28-.58-1.28-1.28s.57-1.28,1.28-1.28,1.28.58,1.28,1.28-.57,1.28-1.28,1.28Zm0-1.5c-.12,0-.22.1-.22.22,0,.24.44.24.44,0,0-.12-.1-.22-.22-.22Z"/>
      <path class="cls-3" d="m121.88,191.57c-.71,0-1.28-.58-1.28-1.28s.57-1.28,1.28-1.28,1.28.58,1.28,1.28-.57,1.28-1.28,1.28Zm0-1.5c-.12,0-.22.1-.22.22,0,.24.44.24.44,0,0-.12-.1-.22-.22-.22Z"/>
      <path class="cls-3" d="m159.36,43.96c-.71,0-1.28-.58-1.28-1.28s.57-1.28,1.28-1.28,1.28.58,1.28,1.28-.57,1.28-1.28,1.28Zm0-1.5c-.12,0-.22.1-.22.22,0,.24.44.24.44,0,0-.12-.1-.22-.22-.22Z"/>
      <path class="cls-3" d="m67.94,147.72c-.71,0-1.28-.58-1.28-1.28s.58-1.28,1.28-1.28,1.28.58,1.28,1.28-.57,1.28-1.28,1.28Zm0-1.5c-.12,0-.22.1-.22.22,0,.24.44.24.44,0,0-.12-.1-.22-.22-.22Z"/>
      <path class="cls-3" d="m325.75,22.91c-.71,0-1.28-.58-1.28-1.28s.57-1.28,1.28-1.28,1.28.58,1.28,1.28-.57,1.28-1.28,1.28Zm0-1.5c-.12,0-.22.1-.22.22,0,.24.44.24.44,0,0-.12-.1-.22-.22-.22Z"/>
      <path class="cls-3" d="m432.55,118.31c-.71,0-1.28-.58-1.28-1.28s.58-1.28,1.28-1.28,1.28.58,1.28,1.28-.57,1.28-1.28,1.28Zm0-1.5c-.12,0-.22.1-.22.22,0,.24.44.24.44,0,0-.12-.1-.22-.22-.22Z"/>
      <path class="cls-3" d="m628.09,34.51c-.71,0-1.28-.58-1.28-1.28s.57-1.28,1.28-1.28,1.28.58,1.28,1.28-.57,1.28-1.28,1.28Zm0-1.5c-.12,0-.22.1-.22.22,0,.24.44.24.44,0,0-.12-.1-.22-.22-.22Z"/>
      <path class="cls-3" d="m865.19,487.6c-.71,0-1.28-.58-1.28-1.28s.57-1.28,1.28-1.28,1.28.58,1.28,1.28-.57,1.28-1.28,1.28Zm0-1.5c-.12,0-.22.1-.22.22,0,.24.44.24.44,0,0-.12-.1-.22-.22-.22Z"/>
      <path class="cls-3" d="m755.66,155.19c-.71,0-1.28-.58-1.28-1.28s.57-1.28,1.28-1.28,1.28.58,1.28,1.28-.57,1.28-1.28,1.28Zm0-1.5c-.12,0-.22.1-.22.22,0,.24.44.24.44,0,0-.12-.1-.22-.22-.22Z"/>
      <path class="cls-3" d="m866.56,269.88c-.71,0-1.28-.58-1.28-1.28s.57-1.28,1.28-1.28,1.28.58,1.28,1.28-.57,1.28-1.28,1.28Zm0-1.5c-.12,0-.22.1-.22.22,0,.24.44.24.44,0,0-.12-.1-.22-.22-.22Z"/>
      <path class="cls-3" d="m783.42,656.72c-.71,0-1.28-.58-1.28-1.28s.57-1.28,1.28-1.28,1.28.58,1.28,1.28-.57,1.28-1.28,1.28Zm0-1.5c-.12,0-.22.1-.22.22,0,.24.44.24.44,0,0-.12-.1-.22-.22-.22Z"/>
      <path class="cls-3" d="m469.02,573.28c-.71,0-1.28-.58-1.28-1.28s.58-1.28,1.28-1.28,1.28.58,1.28,1.28-.57,1.28-1.28,1.28Zm0-1.5c-.12,0-.22.1-.22.22,0,.24.44.24.44,0,0-.12-.1-.22-.22-.22Z"/>
      <path class="cls-3" d="m221.55,272.34c-.71,0-1.28-.58-1.28-1.28s.57-1.28,1.28-1.28,1.28.58,1.28,1.28-.57,1.28-1.28,1.28Zm0-1.5c-.12,0-.22.1-.22.22,0,.24.44.24.44,0,0-.12-.1-.22-.22-.22Z"/>
      <path class="cls-3" d="m215.7,537.17c-.71,0-1.28-.58-1.28-1.28s.57-1.28,1.28-1.28,1.28.58,1.28,1.28-.58,1.28-1.28,1.28Zm0-1.5c-.12,0-.22.1-.22.22,0,.24.44.24.44,0,0-.12-.1-.22-.22-.22Z"/>
      <path class="cls-3" d="m391.23,450.78c-.71,0-1.28-.58-1.28-1.28s.57-1.28,1.28-1.28,1.28.58,1.28,1.28-.57,1.28-1.28,1.28Zm0-1.5c-.12,0-.22.1-.22.22,0,.24.44.24.44,0,0-.12-.1-.22-.22-.22Z"/>
      <path class="cls-3" d="m669.7,250.37c-.71,0-1.28-.58-1.28-1.28s.57-1.28,1.28-1.28,1.28.58,1.28,1.28-.57,1.28-1.28,1.28Zm0-1.5c-.12,0-.22.1-.22.22,0,.24.44.24.44,0,0-.12-.1-.22-.22-.22Z"/>
      <g id="pipeline-96px">
        <path class="cls-3" d="m592.65,263.92c-6.31,0-11.43-5.13-11.43-11.43s5.13-11.43,11.43-11.43,11.43,5.13,11.43,11.43-5.13,11.43-11.43,11.43Zm0-21.37c-5.48,0-9.93,4.46-9.93,9.93s4.46,9.93,9.93,9.93,9.93-4.46,9.93-9.93-4.46-9.93-9.93-9.93Z"/>
        <path class="cls-3" d="m564.71,263.92c-6.3,0-11.43-5.13-11.43-11.43s5.13-11.43,11.43-11.43,11.43,5.13,11.43,11.43-5.13,11.43-11.43,11.43Zm0-21.37c-5.48,0-9.93,4.46-9.93,9.93s4.46,9.93,9.93,9.93,9.93-4.46,9.93-9.93-4.46-9.93-9.93-9.93Z"/>
        <path class="cls-3" d="m620.6,263.92c-6.31,0-11.43-5.13-11.43-11.43s5.13-11.43,11.43-11.43,11.43,5.13,11.43,11.43-5.13,11.43-11.43,11.43Zm0-21.37c-5.48,0-9.93,4.46-9.93,9.93s4.46,9.93,9.93,9.93,9.93-4.46,9.93-9.93-4.46-9.93-9.93-9.93Z"/>
        <polygon class="cls-3" points="591.22 255.97 588.71 253.46 589.77 252.4 591.22 253.85 595.54 249.54 596.6 250.6 591.22 255.97"/>
        <polygon class="cls-3" points="619.66 256.02 617.15 253.51 618.21 252.44 619.66 253.89 623.97 249.58 625.03 250.64 619.66 256.02"/>
        <polygon class="cls-3" points="562.95 256.02 560.44 253.51 561.5 252.44 562.95 253.89 567.26 249.58 568.32 250.64 562.95 256.02"/>
        <rect class="cls-3" x="575.4" y="251.74" width="6.58" height="1.5"/>
        <rect class="cls-3" x="603.34" y="251.74" width="6.58" height="1.5"/>
      </g>
      <g>
        <path class="cls-3" d="m720.61,214.22h-45.59v-43.8h1.5v42.3h44.09c6.06,0,11-4.93,11-11v-29.33h-47.22v-1.5h48.72v30.83c0,6.89-5.61,12.5-12.5,12.5Z"/>
        <polygon class="cls-3" points="692.58 199.35 685.79 192.55 692.58 185.76 693.64 186.82 687.91 192.55 693.64 198.29 692.58 199.35"/>
        <polygon class="cls-3" points="715.56 199.35 714.5 198.29 720.23 192.55 714.5 186.82 715.56 185.76 722.35 192.55 715.56 199.35"/>
        <rect class="cls-3" x="693.57" y="191.8" width="21" height="1.5" transform="translate(217.29 736.46) rotate(-63.47)"/>
      </g>
      <g id="visibility-96px">
        <path class="cls-3" d="m472.22,228.61c-11.41,0-20.7-9.28-20.7-20.7s9.28-20.7,20.7-20.7,20.7,9.29,20.7,20.7-9.28,20.7-20.7,20.7Zm0-39.89c-10.58,0-19.2,8.61-19.2,19.2s8.61,19.2,19.2,19.2,19.2-8.61,19.2-19.2-8.61-19.2-19.2-19.2Z"/>
        <path class="cls-3" d="m434.32,193.31c-10.2-1.38-17.9-10.2-17.9-20.51,0-11.41,9.28-20.7,20.7-20.7,10.47,0,19.31,7.83,20.55,18.21l-1.49.18c-1.15-9.63-9.35-16.89-19.06-16.89-10.58,0-19.2,8.61-19.2,19.2,0,9.57,7.14,17.74,16.6,19.02l-.2,1.49Z"/>
        <path class="cls-3" d="m452.19,210.91c-10.38-1.24-18.21-10.08-18.21-20.55,0-11.41,9.28-20.7,20.7-20.7,10.47,0,19.31,7.83,20.55,18.21l-1.49.18c-1.15-9.63-9.35-16.89-19.06-16.89-10.58,0-19.2,8.61-19.2,19.2,0,9.71,7.26,17.91,16.89,19.06l-.18,1.49Z"/>
        <path class="cls-3" d="m456.36,210.99l-.12-1.5c9.3-.75,16.68-8.04,17.55-17.33l1.49.14c-.93,10.02-8.89,17.88-18.92,18.69Z"/>
        <path class="cls-3" d="m438.95,193.42l-.13-1.49c9.28-.81,16.61-8.14,17.42-17.42l1.49.13c-.88,10.01-8.78,17.91-18.78,18.79Z"/>
      </g>
      <g>
        <path class="cls-3" d="m825.24,233.18h-17v-24.67h1.5v23.17h15.5c1.78,0,3.23-1.45,3.23-3.23v-26.45h-20.97v-1.5h22.47v27.95c0,2.61-2.12,4.73-4.73,4.73Z"/>
        <polygon class="cls-3" points="829.86 225.52 828.57 224.74 836.81 211.12 828.82 206.2 829.61 204.92 838.87 210.62 829.86 225.52"/>
      </g>
      <g id="sheild-24px">
        <path class="cls-3" d="m437.39,456.33l-.25-.09c-3.54-1.24-5.96-2.51-7.85-4.1-3.58-3.02-5.81-8-5.81-13.01v-3.51h1.5v3.51c0,4.58,2.02,9.12,5.27,11.86,1.7,1.43,3.91,2.59,7.13,3.74,3.22-1.15,5.43-2.31,7.13-3.74,3.25-2.74,5.27-7.29,5.27-11.86v-8.92c-6.98-.11-10.98-3.32-12.4-4.73-1.47,1.46-5.74,4.84-13.17,4.73h-.68v-1.5h.69c8.51.12,12.53-4.75,12.57-4.8l.59-.74.59.74s4.05,4.93,12.55,4.8h.76s0,10.42,0,10.42c0,5.01-2.22,9.99-5.81,13.01-1.89,1.59-4.31,2.86-7.85,4.1l-.25.09Z"/>
        <polygon class="cls-3" points="435.32 444.3 432.02 441 433.08 439.94 435.32 442.18 441.71 435.79 442.77 436.85 435.32 444.3"/>
      </g>
      <g>
        <path class="cls-3" d="m495.9,257.85c-2.18,0-3.95-1.77-3.95-3.95s1.77-3.95,3.95-3.95,3.95,1.77,3.95,3.95-1.77,3.95-3.95,3.95Zm0-6.39c-1.35,0-2.45,1.1-2.45,2.45s1.1,2.45,2.45,2.45,2.45-1.1,2.45-2.45-1.1-2.45-2.45-2.45Z"/>
        <rect class="cls-3" x="483.57" y="253.15" width="9.13" height="1.5"/>
        <rect class="cls-3" x="499.1" y="253.15" width="9.13" height="1.5"/>
      </g>
      <g>
        <path class="cls-3" d="m39.34,323.73c-2.18,0-3.95-1.77-3.95-3.95s1.77-3.95,3.95-3.95,3.95,1.77,3.95,3.95-1.77,3.95-3.95,3.95Zm0-6.39c-1.35,0-2.45,1.1-2.45,2.45s1.1,2.45,2.45,2.45,2.45-1.1,2.45-2.45-1.1-2.45-2.45-2.45Z"/>
        <rect class="cls-3" x="27.01" y="319.03" width="9.13" height="1.5"/>
        <rect class="cls-3" x="42.53" y="319.03" width="9.13" height="1.5"/>
      </g>
      <g>
        <path class="cls-3" d="m165.9,235.6c-2.18,0-3.95-1.77-3.95-3.95s1.77-3.95,3.95-3.95,3.95,1.77,3.95,3.95-1.77,3.95-3.95,3.95Zm0-6.39c-1.35,0-2.45,1.1-2.45,2.45s1.1,2.45,2.45,2.45,2.45-1.1,2.45-2.45-1.1-2.45-2.45-2.45Z"/>
        <rect class="cls-3" x="153.57" y="230.9" width="9.13" height="1.5"/>
        <rect class="cls-3" x="169.09" y="230.9" width="9.13" height="1.5"/>
      </g>
      <g>
        <path class="cls-3" d="m697.77,416.93c-2.18,0-3.95-1.77-3.95-3.95s1.77-3.95,3.95-3.95,3.95,1.77,3.95,3.95-1.77,3.95-3.95,3.95Zm0-6.39c-1.35,0-2.45,1.1-2.45,2.45s1.1,2.45,2.45,2.45,2.45-1.1,2.45-2.45-1.1-2.45-2.45-2.45Z"/>
        <rect class="cls-3" x="697.02" y="416.18" width="1.5" height="9.13"/>
        <rect class="cls-3" x="697.02" y="400.66" width="1.5" height="9.13"/>
      </g>
      <g>
        <path class="cls-3" d="m750.23,600.34c-2.18,0-3.95-1.77-3.95-3.95s1.77-3.95,3.95-3.95,3.95,1.77,3.95,3.95-1.77,3.95-3.95,3.95Zm0-6.39c-1.35,0-2.45,1.1-2.45,2.45s1.1,2.45,2.45,2.45,2.45-1.1,2.45-2.45-1.1-2.45-2.45-2.45Z"/>
        <rect class="cls-3" x="737.91" y="595.64" width="9.13" height="1.5"/>
        <rect class="cls-3" x="753.43" y="595.64" width="9.13" height="1.5"/>
      </g>
      <g>
        <path class="cls-3" d="m772.42,261.64c-2.18,0-3.95-1.77-3.95-3.95s1.77-3.95,3.95-3.95,3.95,1.77,3.95,3.95-1.77,3.95-3.95,3.95Zm0-6.39c-1.35,0-2.45,1.1-2.45,2.45s1.1,2.45,2.45,2.45,2.45-1.1,2.45-2.45-1.1-2.45-2.45-2.45Z"/>
        <rect class="cls-3" x="760.09" y="256.95" width="9.13" height="1.5"/>
        <rect class="cls-3" x="775.62" y="256.95" width="9.13" height="1.5"/>
      </g>
      <g>
        <path class="cls-3" d="m589.24,65.63c-2.18,0-3.95-1.77-3.95-3.95s1.77-3.95,3.95-3.95,3.95,1.77,3.95,3.95-1.77,3.95-3.95,3.95Zm0-6.39c-1.35,0-2.45,1.1-2.45,2.45s1.1,2.45,2.45,2.45,2.45-1.1,2.45-2.45-1.1-2.45-2.45-2.45Z"/>
        <rect class="cls-3" x="576.92" y="60.93" width="9.13" height="1.5"/>
        <rect class="cls-3" x="592.44" y="60.93" width="9.13" height="1.5"/>
      </g>
      <g>
        <path class="cls-3" d="m874.32,87.23c-2.18,0-3.95-1.77-3.95-3.95s1.77-3.95,3.95-3.95,3.95,1.77,3.95,3.95-1.77,3.95-3.95,3.95Zm0-6.39c-1.35,0-2.45,1.1-2.45,2.45s1.1,2.45,2.45,2.45,2.45-1.1,2.45-2.45-1.1-2.45-2.45-2.45Z"/>
        <rect class="cls-3" x="873.57" y="70.95" width="1.5" height="9.13"/>
        <rect class="cls-3" x="873.57" y="86.48" width="1.5" height="9.13"/>
      </g>
      <g>
        <path class="cls-3" d="m437.39,522.49c-2.18,0-3.95-1.77-3.95-3.95s1.77-3.95,3.95-3.95,3.95,1.77,3.95,3.95-1.77,3.95-3.95,3.95Zm0-6.39c-1.35,0-2.45,1.1-2.45,2.45s1.1,2.45,2.45,2.45,2.45-1.1,2.45-2.45-1.1-2.45-2.45-2.45Z"/>
        <rect class="cls-3" x="436.64" y="521.74" width="1.5" height="9.13"/>
        <rect class="cls-3" x="436.64" y="506.22" width="1.5" height="9.13"/>
      </g>
      <g>
        <path class="cls-3" d="m211.51,55.77c-2.18,0-3.95-1.77-3.95-3.95s1.77-3.95,3.95-3.95,3.95,1.77,3.95,3.95-1.77,3.95-3.95,3.95Zm0-6.39c-1.35,0-2.45,1.1-2.45,2.45s1.1,2.45,2.45,2.45,2.45-1.1,2.45-2.45-1.1-2.45-2.45-2.45Z"/>
        <rect class="cls-3" x="210.76" y="55.02" width="1.5" height="9.13"/>
        <rect class="cls-3" x="210.76" y="39.5" width="1.5" height="9.13"/>
      </g>
      <g>
        <path class="cls-3" d="m651.63,556.08c-2.53,0-4.58-2.05-4.58-4.58s2.05-4.58,4.58-4.58,4.58,2.05,4.58,4.58-2.05,4.58-4.58,4.58Zm0-7.66c-1.7,0-3.08,1.38-3.08,3.08s1.38,3.08,3.08,3.08,3.08-1.38,3.08-3.08-1.38-3.08-3.08-3.08Z"/>
        <path class="cls-3" d="m651.63,638.42c-2.53,0-4.58-2.05-4.58-4.58s2.05-4.58,4.58-4.58,4.58,2.05,4.58,4.58-2.05,4.58-4.58,4.58Zm0-7.66c-1.7,0-3.08,1.38-3.08,3.08s1.38,3.08,3.08,3.08,3.08-1.38,3.08-3.08-1.38-3.08-3.08-3.08Z"/>
        <path class="cls-3" d="m610.46,597.25c-2.53,0-4.58-2.05-4.58-4.58s2.05-4.58,4.58-4.58,4.58,2.05,4.58,4.58-2.05,4.58-4.58,4.58Zm0-7.66c-1.7,0-3.08,1.38-3.08,3.08s1.38,3.08,3.08,3.08,3.08-1.38,3.08-3.08-1.38-3.08-3.08-3.08Z"/>
        <path class="cls-3" d="m692.8,597.25c-2.53,0-4.58-2.05-4.58-4.58s2.05-4.58,4.58-4.58,4.58,2.05,4.58,4.58-2.05,4.58-4.58,4.58Zm0-7.66c-1.7,0-3.08,1.38-3.08,3.08s1.38,3.08,3.08,3.08,3.08-1.38,3.08-3.08-1.38-3.08-3.08-3.08Z"/>
        <path class="cls-3" d="m656.52,618.31h-9.8l-.93-6.32c-1.29-.39-2.53-.9-3.72-1.54l-5.13,3.82-6.93-6.93,3.82-5.12c-.64-1.19-1.16-2.43-1.54-3.72l-6.32-.93v-9.8l6.32-.92c.39-1.29.9-2.54,1.54-3.72l-3.82-5.13,6.93-6.93,5.12,3.82c1.19-.64,2.44-1.16,3.72-1.54l.93-6.32h9.8l.92,6.32c1.29.39,2.53.9,3.72,1.54l5.13-3.82,6.93,6.93-3.82,5.13c.64,1.18,1.15,2.43,1.54,3.71l6.32.93v9.8l-6.32.93c-.39,1.29-.9,2.53-1.54,3.72l3.82,5.13-6.93,6.93-5.13-3.82c-1.18.64-2.43,1.15-3.71,1.54l-.93,6.32Zm-8.5-1.5h7.2l.88-6,.47-.13c1.49-.41,2.93-1,4.27-1.77l.43-.24,4.87,3.63,5.09-5.09-3.62-4.87.24-.43c.77-1.35,1.36-2.78,1.77-4.27l.13-.47,6-.88v-7.2l-6-.88-.13-.47c-.41-1.49-1.01-2.93-1.77-4.27l-.24-.43,3.63-4.87-5.09-5.09-4.87,3.62-.43-.24c-1.35-.77-2.79-1.36-4.28-1.77l-.47-.13-.88-6h-7.2l-.88,6-.47.13c-1.49.41-2.93,1.01-4.28,1.77l-.43.24-4.86-3.63-5.09,5.09,3.62,4.87-.24.43c-.77,1.35-1.37,2.79-1.77,4.28l-.13.47-6,.87v7.2l6,.88.13.47c.41,1.49,1.01,2.93,1.78,4.28l.24.43-3.63,4.87,5.09,5.09,4.87-3.63.43.24c1.35.77,2.79,1.36,4.28,1.77l.47.13.88,6Z"/>
        <path class="cls-3" d="m651.63,601.08c-4.64,0-8.41-3.77-8.41-8.41s3.77-8.41,8.41-8.41,8.41,3.77,8.41,8.41-3.77,8.41-8.41,8.41Zm0-15.32c-3.81,0-6.91,3.1-6.91,6.91s3.1,6.91,6.91,6.91,6.91-3.1,6.91-6.91-3.1-6.91-6.91-6.91Z"/>
        <path class="cls-3" d="m612.56,582.28l-1.45-.38c4.47-16.86,19.19-29.37,36.62-31.14l.15,1.49c-16.81,1.71-31.01,13.78-35.32,30.03Z"/>
        <path class="cls-3" d="m640.91,633.61c-16.96-4.38-29.49-19.26-31.2-37.04l1.49-.14c1.64,17.15,13.73,31.51,30.08,35.73l-.38,1.45Z"/>
        <path class="cls-3" d="m655.53,634.59l-.14-1.49c16.94-1.62,31.63-14.38,35.73-31.03l1.46.36c-4.24,17.25-19.48,30.48-37.04,32.16Z"/>
        <path class="cls-3" d="m692.05,588.91c-1.6-17.43-14.07-31.79-31.02-35.72l.34-1.46c17.58,4.08,30.51,18.96,32.17,37.05l-1.49.14Z"/>
      </g>
      <g id="magnifying-glass-24px">
        <path class="cls-3" d="m296.87,673.58c-12.4,0-22.48-10.08-22.48-22.48s10.09-22.48,22.48-22.48,22.48,10.09,22.48,22.48-10.09,22.48-22.48,22.48Zm0-43.46c-11.57,0-20.98,9.41-20.98,20.98s9.41,20.98,20.98,20.98,20.98-9.41,20.98-20.98-9.41-20.98-20.98-20.98Z"/>
        <path class="cls-3" d="m320.88,679.89c-1.95,0-3.9-.74-5.38-2.23l-7.74-7.74,1.06-1.06,7.74,7.74c2.38,2.38,6.26,2.38,8.64,0l1.48-1.48-6.33-6.33,1.06-1.06,7.39,7.39-2.54,2.54c-1.48,1.48-3.43,2.23-5.38,2.23Z"/>
        <rect class="cls-3" x="298.88" y="654.93" width="9.71" height="1.5" transform="translate(-374.67 406.81) rotate(-45)"/>
        <rect class="cls-3" x="283.73" y="646.92" width="19.41" height="1.5" transform="translate(-372.03 397.19) rotate(-45)"/>
      </g>
      <g>
        <rect class="cls-3" x="297.86" y="76.97" width="25.63" height="1.5"/>
        <rect class="cls-3" x="297.86" y="67.16" width="40.58" height="1.5"/>
        <path class="cls-3" d="m287.6,111.58v-16.16h-13.32v-46.65h66.4c10.98,0,19.91,8.93,19.91,19.91v26.74h-59.43l-13.56,16.16Zm-11.82-17.66h13.32v13.54l11.36-13.54h58.63v-25.24c0-10.15-8.26-18.41-18.41-18.41h-64.9v43.65Z"/>
      </g>
      <g>
        <path class="cls-3" d="m474.57,111.07c-4.29,0-8.59-.68-12.78-2.06-12.28-4.04-22-13.8-26.01-26.1l1.43-.46c3.86,11.85,13.23,21.25,25.05,25.14,9.96,3.28,20.59,2.48,29.95-2.24,9.36-4.72,16.31-12.81,19.59-22.76,1.43-4.36,2.09-8.87,1.96-13.42l1.5-.04c.14,4.72-.55,9.41-2.04,13.93-3.4,10.34-10.62,18.73-20.34,23.63-5.78,2.92-12.03,4.39-18.32,4.39Z"/>
        <path class="cls-3" d="m433.8,71.48c-.14-4.71.55-9.39,2.04-13.9,3.4-10.34,10.62-18.73,20.34-23.63,9.71-4.9,20.76-5.73,31.09-2.33,12.23,4.03,21.64,13.33,25.82,25.53l-1.42.49c-4.02-11.75-13.09-20.71-24.87-24.59-9.96-3.28-20.59-2.48-29.95,2.24-9.36,4.72-16.31,12.81-19.59,22.76-1.43,4.35-2.09,8.86-1.96,13.39l-1.5.04Z"/>
        <polygon class="cls-3" points="434.42 91.14 433 90.68 435.89 81.88 444.69 84.78 444.22 86.2 436.85 83.78 434.42 91.14"/>
        <polygon class="cls-3" points="513.17 58.73 504.37 55.84 504.84 54.41 512.21 56.84 514.64 49.47 516.06 49.94 513.17 58.73"/>
        <polygon class="cls-3" points="474.53 69.31 463.63 64.51 464.24 63.14 474.53 67.67 494 59.1 474.53 50.52 455.06 59.1 460.32 61.41 459.71 62.79 452.96 59.81 452.96 58.38 474.53 48.88 496.11 58.38 496.11 59.81 474.53 69.31"/>
        <polygon class="cls-3" points="464.87 71.31 463.37 71.31 463.37 63.19 484.64 53.83 485.25 55.2 464.87 64.17 464.87 71.31"/>
        <polygon class="cls-3" points="465.73 73.38 462.5 71.87 462.5 70.31 465.73 70.31 465.73 73.38"/>
        <polygon class="cls-3" points="474.53 91.73 452.96 82.23 452.96 58.87 454.46 58.87 454.46 81.25 474.53 90.09 494.61 81.25 494.62 64.23 496.12 64.23 496.11 82.23 474.53 91.73"/>
        <rect class="cls-3" x="473.78" y="68.49" width="1.5" height="22.42"/>
      </g>
      <g id="verification-96px">
        <path class="cls-3" d="m841.58,657.56l-11.97-8.93-14.78-2.15-2.15-14.78-8.93-11.97,8.93-11.97,2.15-14.78,14.78-2.15,11.97-8.93,11.97,8.93,14.78,2.15,2.15,14.78,8.93,11.97-8.93,11.97-2.15,14.78-14.78,2.15-11.97,8.93Zm-25.43-12.4l14.05,2.05,11.38,8.49,11.38-8.49,14.05-2.05,2.05-14.05,8.49-11.38-8.49-11.38-2.05-14.05-14.05-2.05-11.38-8.49-11.38,8.49-14.05,2.05-2.05,14.05-8.49,11.38,8.49,11.38,2.05,14.05Z"/>
        <polygon class="cls-3" points="859.36 671.43 841.58 664.52 823.8 671.43 823.8 647.64 825.3 647.64 825.3 669.24 841.58 662.91 857.86 669.24 857.86 647.64 859.36 647.64 859.36 671.43"/>
        <path class="cls-3" d="m841.58,643.65c-12.93,0-23.46-10.52-23.46-23.46s10.52-23.46,23.46-23.46,23.46,10.52,23.46,23.46-10.52,23.46-23.46,23.46Zm0-45.41c-12.11,0-21.96,9.85-21.96,21.96s9.85,21.96,21.96,21.96,21.96-9.85,21.96-21.96-9.85-21.96-21.96-21.96Z"/>
        <polygon class="cls-3" points="838.4 627.87 832.36 621.94 833.41 620.87 838.4 625.77 851.35 613.04 852.4 614.11 838.4 627.87"/>
      </g>
      <g>
        <path class="cls-3" d="m38.86,44.18c-.51,0-1.02-.06-1.53-.19-1.63-.41-3-1.42-3.87-2.86-.87-1.44-1.12-3.13-.71-4.76.41-1.63,1.42-3,2.86-3.87l6.58-4.11c2.98-1.79,6.85-.83,8.64,2.14h0c1.79,2.97.82,6.84-2.15,8.63l-6.58,4.11c-1,.6-2.11.91-3.24.91Zm6.57-15.19c-.84,0-1.69.22-2.46.68l-6.58,4.11c-1.11.67-1.88,1.71-2.19,2.95-.31,1.24-.12,2.53.54,3.62.66,1.1,1.71,1.87,2.95,2.18,1.24.31,2.53.12,3.62-.54l6.58-4.11c2.27-1.37,3.01-4.31,1.65-6.58h0c-.9-1.49-2.49-2.32-4.11-2.32Z"/>
        <g>
          <path class="cls-3" d="m90.94,56c-.34,0-.67-.03-1.01-.08l.23-1.48c2.09.33,4.17-.68,5.2-2.52.66-1.18.83-2.54.47-3.84s-1.21-2.38-2.39-3.05l.74-1.31c1.53.86,2.63,2.26,3.1,3.95.47,1.69.26,3.46-.6,4.98-1.17,2.08-3.39,3.34-5.73,3.34Z"/>
          <path class="cls-3" d="m102.84,49.37c-1.09,0-2.19-.27-3.21-.84l-28.58-16.12.74-1.31,28.58,16.12c2.43,1.37,5.52.51,6.89-1.92.66-1.18.83-2.54.47-3.84s-1.21-2.38-2.39-3.05l-28.58-16.12.74-1.31,28.58,16.12c1.53.86,2.63,2.26,3.1,3.95.47,1.69.26,3.46-.6,4.98-1.2,2.14-3.43,3.34-5.73,3.34Z"/>
          <path class="cls-3" d="m102.35,35.75c-1.09,0-2.19-.27-3.21-.84l.74-1.31c2.43,1.37,5.52.51,6.89-1.92.66-1.18.83-2.54.47-3.85-.36-1.3-1.21-2.38-2.39-3.05l-10.93-6.35.75-1.3,10.92,6.35c1.52.86,2.62,2.26,3.09,3.95.47,1.69.26,3.46-.6,4.99-1.2,2.14-3.43,3.34-5.73,3.34Z"/>
          <path class="cls-3" d="m32.12,26.69c-1.66-6.97-.63-14.25,2.89-20.5l1.31.74c-3.34,5.92-4.31,12.81-2.74,19.42l-1.46.35Z"/>
          <path class="cls-3" d="m36.31,6.92l-1.31-.74c7.27-12.9,20.4-18.6,36.04-15.67l-.28,1.47c-14.96-2.82-27.52,2.63-34.45,14.93Z"/>
        </g>
        <path class="cls-3" d="m109.4,42.53l-.87-1.23c11.3-7.97,14.7-23.09,7.9-35.16-6.65-11.79-21.09-16.82-33.59-11.7l-22.17,12.13c-.85.47-1.88,1.26-1.9,2.39-.02,1.13.93,2.37,2.54,3.33,2.49,1.49,6.88,2.38,11.06.03l9.03-5.09.38.25c.07.04,6.85,4.36,14.66.94l.6,1.38c-7.55,3.3-14.03.13-15.68-.82l-8.25,4.65c-4.74,2.67-9.73,1.64-12.56-.04-2.08-1.24-3.3-2.98-3.27-4.65.02-1.02.5-2.49,2.68-3.68l22.24-12.16c13.28-5.45,28.53-.14,35.54,12.31,7.18,12.74,3.6,28.7-8.34,37.12Z"/>
        <path class="cls-3" d="m70.26,64.28c-2.14,0-4.22-1.08-5.4-3.04-1.79-2.97-.82-6.84,2.15-8.63l6.58-4.11c1.45-.87,3.14-1.13,4.77-.72,1.63.41,3,1.42,3.87,2.86.87,1.44,1.12,3.13.71,4.76-.41,1.63-1.42,3-2.86,3.87l-6.58,4.11c-1.02.61-2.14.9-3.24.9Zm6.58-15.19c-.86,0-1.7.23-2.46.69l-6.58,4.11c-2.27,1.37-3.01,4.32-1.65,6.58,1.36,2.26,4.31,3,6.57,1.64l6.58-4.11c1.11-.67,1.88-1.71,2.19-2.95.31-1.24.12-2.53-.54-3.62h0c-.66-1.1-1.71-1.87-2.95-2.18-.39-.1-.78-.14-1.16-.14Z"/>
        <path class="cls-3" d="m56.52,59.58c-2.14,0-4.22-1.09-5.4-3.04-1.79-2.97-.82-6.84,2.15-8.63l8.84-5.52c1.45-.87,3.14-1.12,4.77-.72,1.63.41,3,1.42,3.87,2.86.87,1.44,1.12,3.13.71,4.76-.41,1.63-1.42,3-2.86,3.87l-8.84,5.52c-1.02.61-2.14.9-3.24.9Zm8.84-16.6c-.86,0-1.7.23-2.46.69l-8.84,5.52c-2.27,1.37-3.01,4.31-1.65,6.58,1.36,2.26,4.31,3,6.57,1.64l8.84-5.52c1.11-.67,1.88-1.71,2.19-2.95.31-1.24.12-2.53-.54-3.62h0c-.66-1.1-1.71-1.87-2.95-2.18-.39-.1-.78-.14-1.17-.14Z"/>
        <path class="cls-3" d="m46.2,52.84c-.43,0-.86-.04-1.29-.13-1.64-.34-3.06-1.3-3.98-2.7s-1.24-3.08-.9-4.73c.34-1.65,1.3-3.06,2.7-3.98h0s9.19-5.9,9.19-5.9c2.99-1.8,6.86-.83,8.65,2.14,1.79,2.97.82,6.84-2.15,8.63l-8.8,5.65c-1.03.68-2.22,1.03-3.43,1.03Zm-2.65-10.29c-1.07.7-1.8,1.78-2.06,3.03-.26,1.25-.02,2.53.69,3.6.7,1.07,1.78,1.8,3.03,2.06,1.25.26,2.53.01,3.6-.69l8.82-5.67c2.28-1.37,3.01-4.32,1.65-6.58-1.36-2.26-4.31-2.99-6.57-1.64l-9.17,5.88Z"/>
      </g>
      <g>
        <path class="cls-3" d="m36.31,693.6l-1.31-.74c7.27-12.9,20.4-18.61,36.04-15.67l-.28,1.47c-14.96-2.82-27.52,2.63-34.45,14.93Z"/>
        <path class="cls-3" d="m109.4,729.21l-.87-1.23c11.3-7.97,14.7-23.09,7.9-35.16-6.65-11.79-21.08-16.82-33.59-11.7l-22.17,12.13c-.85.47-1.88,1.26-1.9,2.39s.93,2.37,2.54,3.33c2.49,1.48,6.88,2.38,11.06.03l9.03-5.09.38.25c.07.04,6.85,4.36,14.66.94l.6,1.38c-7.55,3.3-14.03.13-15.68-.82l-8.25,4.65c-4.74,2.67-9.73,1.65-12.56-.05-2.08-1.24-3.3-2.98-3.27-4.65.02-1.02.5-2.49,2.68-3.68l22.24-12.17c13.28-5.44,28.53-.13,35.54,12.31,7.18,12.74,3.6,28.7-8.34,37.12Z"/>
      </g>
      <g>
        <path class="cls-3" d="m442.79,647.37l-39.12-16.47v-64l39.12,16.47v64Zm-37.62-17.47l36.12,15.21v-60.75l-36.12-15.21v60.75Z"/>
        <polygon class="cls-3" points="441.29 647.38 441.29 583.37 478.38 567.33 478.97 568.71 442.79 584.35 442.79 645.09 477.92 629.9 477.92 575.94 479.42 575.94 479.42 630.89 441.29 647.38"/>
        <rect class="cls-3" x="448.38" y="591.92" width="22.44" height="1.5" transform="translate(-195.43 227.4) rotate(-23.06)"/>
        <rect class="cls-3" x="448.64" y="606.27" width="22.44" height="1.5" transform="translate(-201.03 228.64) rotate(-23.06)"/>
        <rect class="cls-3" x="448.89" y="620.63" width="22.44" height="1.5" transform="translate(-206.64 229.89) rotate(-23.06)"/>
        <polygon class="cls-3" points="395.26 639.3 393.76 639.3 393.76 583.11 404.42 583.11 404.42 584.61 395.26 584.61 395.26 639.3"/>
        <path class="cls-3" d="m475.71,647.98h-82.19v-1.5h82.19c6.13,0,11.12-4.99,11.13-11.12l.06-51.82-9.14.16-.03-1.5,10.66-.19-.06,53.35c0,6.96-5.67,12.62-12.63,12.62Z"/>
        <path class="cls-3" d="m434.87,627.52l-22.29-8.49v-31.31l22.29,8.49v31.31Zm-20.79-9.53l19.29,7.35v-28.1l-19.29-7.35v28.1Z"/>
      </g>
      <g>
        <path class="cls-3" d="m224.27,599.14h-74.69v-27.88h74.69v27.88Zm-73.19-1.5h71.69v-24.88h-71.69v24.88Z"/>
        <path class="cls-3" d="m224.27,626.37h-74.69v-28.73h74.69v28.73Zm-73.19-1.5h71.69v-25.73h-71.69v25.73Z"/>
        <path class="cls-3" d="m214.5,652.75h-64.92v-27.88h74.69v18.11c0,5.39-4.38,9.77-9.77,9.77Zm-63.42-1.5h63.42c4.56,0,8.27-3.71,8.27-8.27v-16.61h-71.69v24.88Z"/>
        <path class="cls-3" d="m163.09,588.92c-2.29,0-4.15-1.86-4.15-4.15s1.86-4.15,4.15-4.15,4.15,1.86,4.15,4.15-1.86,4.15-4.15,4.15Zm0-6.81c-1.46,0-2.65,1.19-2.65,2.65s1.19,2.65,2.65,2.65,2.65-1.19,2.65-2.65-1.19-2.65-2.65-2.65Z"/>
        <path class="cls-3" d="m176.71,588.92c-2.29,0-4.15-1.86-4.15-4.15s1.86-4.15,4.15-4.15,4.15,1.86,4.15,4.15-1.86,4.15-4.15,4.15Zm0-6.81c-1.46,0-2.65,1.19-2.65,2.65s1.19,2.65,2.65,2.65,2.65-1.19,2.65-2.65-1.19-2.65-2.65-2.65Z"/>
        <rect class="cls-3" x="186.07" y="584.02" width="27.23" height="1.5"/>
        <path class="cls-3" d="m163.09,616.16c-2.29,0-4.15-1.86-4.15-4.15s1.86-4.15,4.15-4.15,4.15,1.86,4.15,4.15-1.86,4.15-4.15,4.15Zm0-6.81c-1.46,0-2.65,1.19-2.65,2.65s1.19,2.65,2.65,2.65,2.65-1.19,2.65-2.65-1.19-2.65-2.65-2.65Z"/>
        <path class="cls-3" d="m176.71,616.16c-2.29,0-4.15-1.86-4.15-4.15s1.86-4.15,4.15-4.15,4.15,1.86,4.15,4.15-1.86,4.15-4.15,4.15Zm0-6.81c-1.46,0-2.65,1.19-2.65,2.65s1.19,2.65,2.65,2.65,2.65-1.19,2.65-2.65-1.19-2.65-2.65-2.65Z"/>
        <rect class="cls-3" x="186.07" y="611.25" width="27.23" height="1.5"/>
        <path class="cls-3" d="m163.09,642.54c-2.29,0-4.15-1.86-4.15-4.15s1.86-4.15,4.15-4.15,4.15,1.86,4.15,4.15-1.86,4.15-4.15,4.15Zm0-6.81c-1.46,0-2.65,1.19-2.65,2.65s1.19,2.65,2.65,2.65,2.65-1.19,2.65-2.65-1.19-2.65-2.65-2.65Z"/>
        <path class="cls-3" d="m176.71,642.54c-2.29,0-4.15-1.86-4.15-4.15s1.86-4.15,4.15-4.15,4.15,1.86,4.15,4.15-1.86,4.15-4.15,4.15Zm0-6.81c-1.46,0-2.65,1.19-2.65,2.65s1.19,2.65,2.65,2.65,2.65-1.19,2.65-2.65-1.19-2.65-2.65-2.65Z"/>
        <rect class="cls-3" x="186.07" y="637.64" width="27.23" height="1.5"/>
      </g>
      <g>
        <path class="cls-3" d="m158.36,347.13h-42.71c-5.75,0-10.43-4.68-10.43-10.43v-58.85h34.64v1.5h-33.14v57.35c0,4.93,4.01,8.93,8.93,8.93h41.21v-43.56h1.51v45.06Z"/>
        <path class="cls-3" d="m158.36,296.28h-18.45v-18.45h1.87l16.58,16.58v1.87Zm-16.95-1.5h15.19l-15.19-15.19v15.19Z"/>
        <rect class="cls-3" x="117.27" y="303.7" width="29.04" height="1.5" transform="translate(-.79 .34) rotate(-.15)"/>
        <rect class="cls-3" x="117.27" y="311.77" width="29.04" height="1.5" transform="translate(-.81 .34) rotate(-.15)"/>
        <rect class="cls-3" x="117.27" y="319.84" width="29.04" height="1.5" transform="translate(-.83 .34) rotate(-.15)"/>
        <rect class="cls-3" x="117.27" y="327.91" width="14.51" height="1.5" transform="translate(-1.71 .65) rotate(-.3)"/>
        <polygon class="cls-3" points="166.45 355.34 114.06 355.34 114.06 353.84 164.95 353.84 164.95 287.55 157.63 287.55 157.63 286.05 166.45 286.05 166.45 355.34"/>
      </g>
      <g>
        <g>
          <path class="cls-3" d="m96.76,481.74l-19.35-8.71v-1.92l19.35-7.74,19.35,7.74v1.92l-19.35,8.71Zm-17.78-9.65l17.78,8,17.78-8-17.78-7.11-17.78,7.11Z"/>
          <polygon class="cls-3" points="96.76 503.13 77.41 494.42 77.41 472.54 78.91 472.54 78.91 493.45 96.76 501.49 114.62 493.45 114.62 478.13 116.12 478.13 116.12 494.42 96.76 503.13"/>
          <rect class="cls-3" x="96.01" y="480.92" width="1.5" height="20.47"/>
        </g>
        <g>
          <path class="cls-3" d="m71.65,523.6l-19.35-8.71v-1.92l19.35-7.74,19.35,7.74v1.92l-19.35,8.71Zm-17.78-9.65l17.78,8,17.78-8-17.78-7.11-17.78,7.11Z"/>
          <polygon class="cls-3" points="71.65 544.99 52.29 536.29 52.29 514.4 53.79 514.4 53.79 535.31 71.65 543.35 89.5 535.31 89.5 519.99 91 519.99 91 536.29 71.65 544.99"/>
          <rect class="cls-3" x="70.9" y="522.78" width="1.5" height="20.47"/>
        </g>
        <g>
          <path class="cls-3" d="m121.88,523.6l-19.35-8.71v-1.92l19.35-7.74,19.35,7.74v1.92l-19.35,8.71Zm-17.78-9.65l17.78,8,17.78-8-17.78-7.11-17.78,7.11Z"/>
          <polygon class="cls-3" points="121.88 544.99 102.52 536.29 102.52 514.4 104.02 514.4 104.02 535.31 121.88 543.35 139.73 535.31 139.73 519.99 141.23 519.99 141.23 536.29 121.88 544.99"/>
          <rect class="cls-3" x="121.13" y="522.78" width="1.5" height="20.47"/>
        </g>
      </g>
      <g>
        <path class="cls-3" d="m734.58,60.48h-66.73V-10.27h1.5V58.98h65.23c4.91,0,8.91-3.99,8.91-8.9V-8.72h-68.45v-1.5h69.95v60.29c0,5.74-4.67,10.4-10.41,10.4Z"/>
        <rect class="cls-3" x="668.6" y="5.87" width="75.63" height="1.5"/>
        <path class="cls-3" d="m679.06.13c-.86,0-1.55-.7-1.55-1.55s.7-1.55,1.55-1.55,1.55.7,1.55,1.55-.7,1.55-1.55,1.55Zm0-1.61v.11l.05-.05s-.02-.05-.05-.05Z"/>
        <path class="cls-3" d="m685.5.13c-.86,0-1.55-.7-1.55-1.55s.7-1.55,1.55-1.55,1.55.7,1.55,1.55-.7,1.55-1.55,1.55Zm0-1.61v.11l.05-.05s-.02-.05-.05-.05Z"/>
        <path class="cls-3" d="m691.94.13c-.86,0-1.55-.7-1.55-1.55s.7-1.55,1.55-1.55,1.55.7,1.55,1.55-.7,1.55-1.55,1.55Zm0-1.61v.11l.05-.05s-.02-.05-.05-.05Z"/>
        <polygon class="cls-3" points="726.78 46.55 715.4 35.17 721.3 29.16 707.49 26.09 710.55 39.9 712.68 37.77 713.74 38.83 709.68 42.89 705.51 24.12 724.27 28.29 717.51 35.16 727.84 45.49 726.78 46.55"/>
      </g>
      <g>
        <path class="cls-3" d="m734.58,747.15h-66.73v-70.75h1.5v69.25h65.23c4.91,0,8.91-4,8.91-8.91v-58.79h-68.45v-1.5h69.95v60.29c0,5.74-4.67,10.41-10.41,10.41Z"/>
        <rect class="cls-3" x="699.18" y="684.5" width="34.6" height="1.5"/>
        <path class="cls-3" d="m679.06,686.8c-.86,0-1.55-.7-1.55-1.55s.7-1.55,1.55-1.55,1.55.7,1.55,1.55-.7,1.55-1.55,1.55Zm0-1.61v.11l.05-.05s-.02-.05-.05-.05Z"/>
        <path class="cls-3" d="m685.5,686.8c-.86,0-1.55-.7-1.55-1.55s.7-1.55,1.55-1.55,1.55.7,1.55,1.55-.7,1.55-1.55,1.55Zm0-1.61v.11l.05-.05s-.02-.05-.05-.05Z"/>
        <path class="cls-3" d="m691.94,686.8c-.86,0-1.55-.7-1.55-1.55s.7-1.55,1.55-1.55,1.55.7,1.55,1.55-.7,1.55-1.55,1.55Zm0-1.61v.11l.05-.05s-.02-.05-.05-.05Z"/>
      </g>
      <g>
        <polygon class="cls-3" points="60.74 612.65 57.69 609.59 58.75 608.53 60.74 610.52 66.38 604.88 67.44 605.94 60.74 612.65"/>
        <path class="cls-3" d="m61.99,621.56c-7.15,0-12.96-5.81-12.96-12.96s5.81-12.96,12.96-12.96,12.96,5.81,12.96,12.96-5.81,12.96-12.96,12.96Zm0-24.42c-6.32,0-11.46,5.14-11.46,11.46s5.14,11.46,11.46,11.46,11.46-5.14,11.46-11.46-5.14-11.46-11.46-11.46Z"/>
      </g>
      <g>
        <polygon class="cls-3" points="60.74 612.65 57.69 609.59 58.75 608.53 60.74 610.52 66.38 604.88 67.44 605.94 60.74 612.65"/>
        <path class="cls-3" d="m61.99,621.56c-7.15,0-12.96-5.81-12.96-12.96s5.81-12.96,12.96-12.96,12.96,5.81,12.96,12.96-5.81,12.96-12.96,12.96Zm0-24.42c-6.32,0-11.46,5.14-11.46,11.46s5.14,11.46,11.46,11.46,11.46-5.14,11.46-11.46-5.14-11.46-11.46-11.46Z"/>
      </g>
      <path class="cls-3" d="m346.79,625.19c-.71,0-1.28-.58-1.28-1.28s.57-1.28,1.28-1.28,1.28.58,1.28,1.28-.58,1.28-1.28,1.28Zm0-1.5c-.12,0-.22.1-.22.22,0,.24.44.24.44,0,0-.12-.1-.22-.22-.22Z"/>
      <g id="clipboard-data-96px">
        <path class="cls-3" d="m824.42,141.89h-48.41v-65.54h9.69v1.5h-8.19v62.54h46.91c4.51,0,8.19-3.67,8.19-8.19v-54.36h-14.89v-1.5h16.39v55.86c0,5.34-4.35,9.69-9.69,9.69Z"/>
        <path class="cls-3" d="m818.47,82.31h-27.56v-11.92h27.56v11.92Zm-26.06-1.5h24.56v-8.92h-24.56v8.92Z"/>
        <path class="cls-3" d="m790.91,95.72c-.82,0-1.5-.67-1.5-1.49s.67-1.5,1.5-1.5,1.49.67,1.49,1.5-.67,1.49-1.49,1.49Zm0-1.49s0,0,0,0h.75s-.75,0-.75,0Z"/>
        <rect class="cls-3" x="798.36" y="93.47" width="21.6" height="1.5"/>
        <path class="cls-3" d="m790.91,105.4c-.82,0-1.5-.67-1.5-1.49s.67-1.5,1.5-1.5,1.49.67,1.49,1.5-.67,1.49-1.49,1.49Zm0-1.49s0,0,0,0h.75s-.75,0-.75,0Z"/>
        <rect class="cls-3" x="798.36" y="103.15" width="21.6" height="1.5"/>
        <polygon class="cls-3" points="819.95 129.23 789.42 129.23 789.42 112.09 790.92 112.09 790.92 127.73 819.95 127.73 819.95 129.23"/>
        <polygon class="cls-3" points="795.98 125.2 794.78 124.3 801.93 114.77 810.97 121.55 817.96 115.26 818.96 116.37 811.06 123.49 802.23 116.87 795.98 125.2"/>
      </g>
      <g id="pencil-96px">
        <rect class="cls-3" x="547.17" y="676.14" width="1.5" height="18.69" transform="translate(-324.23 588.23) rotate(-45)"/>
        <path class="cls-3" d="m535.69,697.72l4.95-19.23.15-.14,29.51-29.51,1.06,1.06-29.36,29.36-4.21,16.37,16.37-4.21,32.53-32.53-13.22-13.22,4.76-4.75c3.35-3.35,8.8-3.35,12.15,0l8.2,8.2-43.65,43.65-.2.05-19.03,4.89Zm39.89-52.04l12.16,12.16,8.71-8.71-7.14-7.14c-1.34-1.34-3.12-2.08-5.01-2.08s-3.68.74-5.01,2.08l-3.69,3.69Z"/>
      </g>
      <g id="pencil-96px-2" data-name="pencil-96px">
        <rect class="cls-3" x="547.17" y="-10.53" width="1.5" height="18.69" transform="translate(161.31 387.09) rotate(-45)"/>
        <path class="cls-3" d="m535.69,11.04l4.95-19.23.15-.14,29.51-29.51,1.06,1.06-29.36,29.36-4.21,16.37,16.37-4.21,32.53-32.53-13.22-13.22,4.76-4.76c3.35-3.35,8.8-3.35,12.15,0l8.2,8.2-43.65,43.65-.2.05-19.03,4.9Zm39.89-52.04l12.16,12.16,8.71-8.71-7.14-7.14c-1.34-1.34-3.12-2.08-5.01-2.08s-3.68.74-5.01,2.08l-3.69,3.7Z"/>
        <polygon class="cls-3" points="542.47 8.29 536.74 10 538.44 4.27 542.47 8.29"/>
      </g>
    </g>
  </g>
</svg>