<svg width="256" height="256" viewBox="0 0 256 256" fill="none" xmlns="http://www.w3.org/2000/svg">
<g clip-path="url(#clip0_2601_391)">
<path d="M242 0H14C6.26801 0 0 6.26801 0 14V242C0 249.732 6.26801 256 14 256H242C249.732 256 256 249.732 256 242V14C256 6.26801 249.732 0 242 0Z" fill="#3B83F6"/>
<path d="M17.2234 195.99C16.5247 197.944 17.9731 200 20.0482 200H40.1133C41.4108 200 42.5613 199.166 42.9646 197.933L53.5859 165.459C53.9892 164.226 55.1397 163.392 56.4372 163.392H104.791C106.088 163.392 107.239 164.226 107.642 165.459L118.263 197.933C118.666 199.166 119.817 200 121.114 200H141.278C143.353 200 144.801 197.944 144.102 195.99L95.6054 60.3673C95.1787 59.1739 94.048 58.3774 92.7806 58.3774H68.5452C67.2778 58.3774 66.1472 59.1739 65.7204 60.3673L17.2234 195.99ZM80.3219 83.8476C80.3702 83.7002 80.5078 83.6006 80.6629 83.6006C80.8159 83.6006 80.9515 83.699 80.9989 83.8444L99.3034 139.931C99.9363 141.87 98.4912 143.861 96.4515 143.861H64.7824C62.7409 143.861 61.2957 141.866 61.9318 139.927L80.3219 83.8476Z" fill="white"/>
<path d="M146.581 197C146.581 198.657 147.924 200 149.581 200H168.902C170.559 200 171.902 198.657 171.902 197V145.193C171.902 143.536 173.245 142.193 174.902 142.193H228.279C229.936 142.193 231.279 140.85 231.279 139.193V124.583C231.279 122.926 229.936 121.583 228.279 121.583H174.902C173.245 121.583 171.902 120.239 171.902 118.583V82.6748C171.902 81.018 173.245 79.6748 174.902 79.6748H233.874C235.531 79.6748 236.874 78.3317 236.874 76.6748V61.3774C236.874 59.7206 235.531 58.3774 233.874 58.3774H149.581C147.924 58.3774 146.581 59.7206 146.581 61.3774V197Z" fill="white"/>
</g>
<defs>
<clipPath id="clip0_2601_391">
<rect width="256" height="256" fill="white"/>
</clipPath>
</defs>
</svg>
