<svg width="363" height="208" viewBox="0 0 363 208" fill="none" xmlns="http://www.w3.org/2000/svg">
<path d="M256.086 170.546C251.299 161.858 241.056 157.585 231.99 154.999C225.349 153.119 218.578 151.735 211.733 150.859C195.307 148.761 178.292 149.167 171.953 150.179C170.591 150.396 167.295 150.859 167.295 150.859C167.295 150.859 174.293 153.365 177.397 155.516C178.295 156.116 180.663 158.293 180.663 158.293L180.745 154.917C180.745 154.917 181.997 158.022 182.596 159.6C187.28 155.435 192.508 153.256 198.28 151.758C203.371 150.425 214.644 150.833 215.134 151.568C215.297 151.813 217.475 156.66 217.448 156.66C218.878 156.515 220.318 156.506 221.749 156.632C222.24 156.904 223.629 161.125 223.819 161.07C225.54 160.669 227.31 160.513 229.074 160.607C229.565 160.826 237.95 175.855 239.393 178.904C240.156 180.512 243.342 189.034 243.342 189.034C243.342 189.034 232.096 187.863 228.884 187.399C225.888 186.992 208.327 186.528 198.525 188.788C196.238 189.306 185.755 191.893 185.565 192.3C184.966 193.417 183.414 195.132 182.189 195.16C178.295 195.242 177.859 192.246 177.913 192.273C176.148 191.631 174.348 191.086 172.523 190.64C170.289 190.149 159.753 185.821 137.643 187.264C134.675 187.454 119.809 188.897 119.531 189.496C121.383 185.356 123.243 181.216 125.113 177.076C126.829 173.291 133.718 160.55 133.526 160.495C135.228 160.642 136.937 160.697 138.645 160.658C138.645 160.658 140.388 157.745 140.933 157.036C141.64 156.137 146.024 156.355 145.888 156.763C146.242 155.756 146.596 154.721 146.949 153.714C121.573 158.044 101.561 171.956 106.326 181.622C111.281 191.67 123.044 196.407 156.017 201.117C184.661 205.089 213.842 201.957 240.99 191.996C248.735 189.196 261.455 180.29 256.086 170.546Z" fill="#414F97"/>
<path d="M185.568 21.229C185.378 20.222 183.962 19.6765 183.417 20.6846C183.308 20.903 183.852 21.0117 184.125 21.3108C184.758 22.0353 183.193 22.6728 182.192 22.6728C181.261 22.6449 180.095 22.0187 180.776 20.9568C180.912 20.7664 180.667 20.549 180.476 20.6577C180.297 20.7853 180.147 20.9495 180.036 21.1395C179.925 21.3295 179.855 21.5409 179.832 21.7598C179.809 21.9786 179.833 22.1998 179.902 22.4088C179.971 22.6178 180.083 22.8098 180.232 22.972C181.787 24.7408 186.064 23.5102 185.568 21.229Z" fill="#191919"/>
<path d="M213.747 45.1088C211.037 45.8333 208.766 47.393 202.638 49.0563C185.964 53.6009 168.273 52.6851 152.158 46.4429C151.859 46.3332 151.668 46.8238 151.941 46.9604C169.526 55.111 191.197 55.0655 208.302 48.7302C210.399 48.0898 212.383 47.1253 214.182 45.8716C214.563 45.5714 214.156 45.0001 213.747 45.1088Z" fill="#191919"/>
<path d="M165.883 129.324C165.877 128.659 165.646 128.016 165.228 127.499C165.205 127.478 165.178 127.464 165.148 127.457C165.118 127.45 165.086 127.451 165.057 127.459C165.027 127.467 165 127.482 164.978 127.504C164.955 127.525 164.939 127.551 164.929 127.581C164.692 128.37 165.28 128.965 164.902 131.419C164.881 131.506 164.883 131.596 164.906 131.682C164.93 131.768 164.976 131.846 165.039 131.909C165.102 131.972 165.18 132.018 165.266 132.042C165.352 132.066 165.442 132.067 165.529 132.046C165.897 131.965 166.248 131.817 166.564 131.61C166.723 132.37 167.048 133.086 167.516 133.707C167.571 133.762 167.641 133.8 167.718 133.816C167.794 133.832 167.874 133.825 167.946 133.796C168.019 133.767 168.081 133.717 168.126 133.653C168.17 133.589 168.195 133.513 168.197 133.435C168.06 132.319 167.571 131.284 167.407 130.14C167.267 128.903 167.249 127.655 167.352 126.414C167.352 126.114 166.944 126.087 166.835 126.332C166.395 127.683 166.237 129.111 166.371 130.525C165.621 130.901 166.141 131.064 165.883 129.324Z" fill="#191919"/>
<path d="M169.203 123.932C168.81 125.045 168.468 127.063 169.72 127.853C169.956 127.982 170.22 128.054 170.489 128.065C170.758 128.075 171.026 128.022 171.271 127.912C171.517 127.801 171.733 127.634 171.903 127.426C172.074 127.217 172.193 126.972 172.253 126.709C172.66 125.593 172.906 123.769 172.171 122.761C171.436 121.754 169.176 121.509 169.23 123.197C169.237 123.279 169.267 123.357 169.315 123.424C169.364 123.49 169.43 123.541 169.506 123.572C169.582 123.603 169.665 123.612 169.746 123.599C169.827 123.586 169.903 123.55 169.965 123.496C170.891 122.625 171.435 123.632 171.408 124.531C171.408 127.074 170.482 127.295 170.02 126.705C169.475 126.024 169.693 124.772 169.747 124.014C169.804 123.66 169.309 123.631 169.203 123.932Z" fill="#191919"/>
<path d="M175.248 117.833C175.215 117.562 174.731 117.561 174.676 117.833C174.504 119.279 174.414 120.733 174.404 122.189C174.404 122.272 174.423 122.354 174.46 122.428C174.497 122.502 174.55 122.567 174.616 122.617C174.682 122.667 174.759 122.701 174.84 122.717C174.921 122.732 175.005 122.729 175.085 122.707L176.065 122.298C176.164 122.819 176.358 123.317 176.636 123.769C176.855 124.123 177.535 124.014 177.481 123.551C177.344 122.142 176.533 120.964 176.855 117.915C176.851 117.836 176.82 117.761 176.766 117.703C176.713 117.644 176.641 117.607 176.562 117.597C176.484 117.588 176.404 117.606 176.338 117.649C176.272 117.692 176.223 117.757 176.201 117.833C175.969 118.942 175.878 120.077 175.928 121.209C175.77 121.261 175.615 121.325 175.466 121.399C175.439 120.202 175.393 119.007 175.248 117.833Z" fill="#191919"/>
<path d="M154.664 149.335C152.932 149.451 151.226 149.818 149.6 150.425C148.834 150.748 148.142 151.223 147.566 151.822C146.991 152.422 146.543 153.132 146.252 153.91C144.1 158.568 137.756 172.616 136.803 174.957C136.422 175.855 136.095 176.781 135.768 177.734C135.605 178.251 135.414 179.585 134.95 179.939C134.515 180.239 134.76 181.078 135.332 180.866C143.281 177.722 151.997 177.066 160.327 178.986C167.67 180.658 174.557 183.92 180.504 188.542C181.102 189.033 181.974 188.216 181.375 187.671C175.712 182.606 167.817 179.391 160.468 177.735C152.431 175.912 144.036 176.48 136.318 179.369C137.223 176.289 136.563 177.542 144.758 159.901C147.828 153.322 147.603 151.763 152.654 150.834C157.101 150.015 161.667 150.097 166.082 151.075C170.497 152.052 174.671 153.906 178.356 156.527C178.656 156.717 179.01 156.254 178.738 156.037C175.376 153.369 171.514 151.402 167.379 150.251C163.244 149.1 158.921 148.788 154.664 149.335V149.335Z" fill="#191919"/>
<path d="M200.869 176.999C197.32 177.818 193.901 179.129 190.714 180.893C187.8 182.472 184.504 184.377 182.627 187.206C182.3 187.697 183.008 188.159 183.416 187.805C188.645 183.312 194.661 179.719 201.495 178.303C209.775 176.587 218.595 177.622 226.627 180.073C226.748 180.104 226.875 180.104 226.995 180.071C227.115 180.039 227.225 179.975 227.313 179.887C227.401 179.799 227.464 179.689 227.497 179.569C227.529 179.449 227.529 179.322 227.498 179.201C225.288 171.557 222.324 164.151 218.65 157.093C219.534 157.352 220.45 157.489 221.372 157.501C223.522 162.262 233.57 184.075 233.761 184.514C229.621 183.806 225.537 182.826 221.341 182.417C207.592 181.034 193.853 182.772 181.7 189.578C181.635 189.618 181.589 189.682 181.571 189.756C181.553 189.83 181.566 189.908 181.605 189.973C181.645 190.038 181.709 190.085 181.783 190.102C181.857 190.12 181.935 190.108 182 190.068C189.789 185.982 198.373 183.641 207.158 183.207C220.428 182.431 227.677 185.034 234.658 186.12C234.778 186.149 234.903 186.146 235.022 186.112C235.141 186.078 235.249 186.015 235.336 185.928C235.424 185.84 235.487 185.732 235.521 185.613C235.555 185.495 235.558 185.369 235.529 185.249C235.202 183.696 231.417 176.348 230.383 174.14C228.341 169.811 222.95 158.158 222.242 156.66C222.195 156.573 222.124 156.5 222.037 156.452C221.95 156.404 221.852 156.382 221.752 156.388C220.818 156.497 219.874 156.469 218.948 156.306C218.697 156.242 218.443 156.196 218.186 156.17C215.244 150.712 215.661 150.705 213.366 150.561C201.663 149.637 192.623 150.681 183.742 158.293C183.525 158.484 183.824 158.865 184.042 158.674C190.309 154.173 197.784 151.66 205.497 151.459C207.376 151.432 213.556 151.705 214.294 152.194C214.975 152.658 219.686 162.13 221.292 165.89C223.044 169.954 224.554 174.118 225.813 178.36C217.75 176.074 209.041 175.24 200.869 176.999Z" fill="#191919"/>
<path d="M177.618 158.784C177.527 158.837 177.453 158.912 177.401 159.003C177.349 159.094 177.321 159.197 177.321 159.301C177.321 159.406 177.349 159.508 177.401 159.599C177.453 159.69 177.527 159.766 177.618 159.819C178.255 160.249 178.778 160.828 179.142 161.506C178.545 161.449 177.943 161.514 177.372 161.696C177.262 161.731 177.165 161.797 177.091 161.886C177.018 161.975 176.971 162.083 176.957 162.198C176.942 162.312 176.961 162.429 177.011 162.533C177.06 162.637 177.139 162.725 177.237 162.786C178.174 163.426 178.85 164.381 179.142 165.477C178.244 165.313 178.38 165.886 178.598 166.049C177.651 165.804 176.658 165.804 175.712 166.049C175.618 166.078 175.533 166.131 175.465 166.203C175.397 166.274 175.348 166.362 175.324 166.457C175.299 166.552 175.299 166.653 175.324 166.748C175.349 166.843 175.398 166.931 175.467 167.002C176.907 168.379 177.967 170.105 178.544 172.012C178.162 172.012 177.781 172.039 177.4 172.039C177.29 172.04 177.183 172.074 177.093 172.136C177.002 172.198 176.932 172.286 176.891 172.388C176.85 172.49 176.84 172.602 176.863 172.709C176.886 172.817 176.94 172.915 177.018 172.992C177.516 173.511 177.938 174.098 178.271 174.735C177.418 174.516 176.531 174.46 175.657 174.572C175.248 174.625 174.868 175.17 175.276 175.497C176.189 176.213 176.94 177.113 177.482 178.138C177.046 178.056 176.61 178.003 176.202 177.921C176.103 177.897 176 177.902 175.904 177.936C175.809 177.97 175.725 178.032 175.664 178.113C175.603 178.194 175.568 178.291 175.562 178.393C175.556 178.494 175.58 178.595 175.63 178.683C176.991 180.942 178.321 183.284 179.85 185.462C179.9 185.535 179.976 185.586 180.062 185.605C180.149 185.624 180.239 185.61 180.315 185.565C180.391 185.52 180.447 185.448 180.472 185.363C180.497 185.278 180.489 185.187 180.449 185.108C179.442 183.066 178.244 181.079 177.1 179.118C177.482 179.2 177.89 179.254 178.271 179.336C178.625 179.39 179.088 179.091 178.925 178.683C178.49 177.554 177.843 176.519 177.018 175.633C177.707 175.686 178.38 175.861 179.007 176.151C179.414 176.341 179.987 176.014 179.823 175.524C179.564 174.657 179.149 173.845 178.598 173.128C178.843 173.128 179.088 173.101 179.333 173.101C179.418 173.098 179.502 173.076 179.577 173.037C179.653 172.998 179.72 172.943 179.772 172.875C179.824 172.808 179.861 172.729 179.879 172.646C179.897 172.563 179.897 172.476 179.878 172.393C179.394 170.395 178.431 168.545 177.073 167.002C177.748 166.969 178.42 167.1 179.033 167.383C179.387 167.546 180.259 167.519 179.878 166.648C180.476 166.621 180.558 166.267 180.504 165.913C180.332 164.708 179.79 163.587 178.952 162.704C179.323 162.727 179.689 162.8 180.04 162.922C180.142 162.948 180.249 162.947 180.35 162.919C180.451 162.891 180.544 162.838 180.618 162.764C180.692 162.69 180.746 162.597 180.774 162.496C180.801 162.395 180.802 162.288 180.776 162.187C180.474 161.19 179.932 160.283 179.197 159.545C179.698 159.486 180.204 159.591 180.64 159.846C181.021 160.036 181.566 159.709 181.403 159.246C181.195 158.631 181.076 157.989 181.049 157.34C181.398 158.381 181.903 159.363 182.546 160.253C182.132 163.848 181.838 167.441 181.538 171.063C181.062 174.949 180.79 178.857 180.722 182.771C180.722 183.125 181.321 183.233 181.375 182.853C181.942 179.035 182.306 175.191 182.464 171.335C182.764 167.361 183.118 163.357 183.281 159.382C182.28 157.979 181.635 156.353 181.403 154.645C181.321 154.1 180.558 154.209 180.422 154.645C179.973 155.892 179.869 157.237 180.122 158.538C179.71 158.409 179.275 158.364 178.845 158.406C178.415 158.448 177.997 158.577 177.618 158.784Z" fill="#191919"/>
<path d="M143.773 155.843C142.439 155.843 140.778 156.034 140.047 157.258C138.147 160.403 129.871 175.404 126.95 184.078C126.922 184.187 126.924 184.302 126.953 184.41C126.983 184.519 127.041 184.618 127.121 184.697C127.2 184.777 127.299 184.834 127.408 184.864C127.516 184.894 127.631 184.895 127.74 184.868C145.147 180.209 163.652 181.988 179.853 189.877C180.344 190.122 180.779 189.387 180.289 189.142C164.331 180.853 145.861 178.795 128.47 183.367C130.267 177.407 133.508 171.775 136.394 166.326C137.647 163.983 140.941 157.912 141.187 157.612C141.983 157.215 142.856 156.993 143.745 156.959C143.893 156.963 144.036 156.907 144.144 156.805C144.251 156.703 144.313 156.563 144.317 156.415C144.321 156.267 144.265 156.124 144.163 156.016C144.061 155.909 143.921 155.847 143.773 155.843V155.843Z" fill="#191919"/>
<path d="M229.812 160.363C229.732 160.261 229.628 160.181 229.51 160.128C229.391 160.076 229.262 160.054 229.132 160.063C228.37 160.04 227.606 160.059 226.845 160.118C226.031 160.14 225.221 160.231 224.422 160.39C224.15 160.472 224.122 160.935 224.422 160.989C225.28 161.107 226.144 161.171 227.01 161.18C227.745 161.207 228.643 161.07 229.183 161.125C233.139 168.719 236.953 174.408 242.661 188.68C227.15 186.102 206.67 185.44 191.8 189.687C189.51 190.185 187.294 190.982 185.211 192.056C184.835 192.967 184.144 193.712 183.265 194.157C182.385 194.601 181.376 194.716 180.419 194.479C179.972 194.331 179.569 194.074 179.246 193.732C178.923 193.39 178.69 192.973 178.568 192.519C178.377 191.947 173.721 190.504 171.543 189.905C156.103 185.437 135.961 186.058 120.303 188.707C126.203 174.049 129.768 168.861 133.808 161.016C135.158 161.127 136.515 161.127 137.865 161.016C137.931 160.999 137.989 160.959 138.03 160.905C138.072 160.851 138.094 160.785 138.094 160.717C138.094 160.649 138.072 160.582 138.03 160.528C137.989 160.474 137.931 160.435 137.865 160.417C136.533 160.176 135.188 160.021 133.836 159.954C133.617 159.954 133.422 159.981 133.1 160.39C129.779 164.61 127.573 169.674 125.204 174.466C122.863 179.175 120.684 183.995 118.724 188.896C118.48 189.517 118.779 189.768 119.677 189.632C120.575 189.496 139.635 187.459 149.737 187.752C166.327 188.221 174.706 192.224 177.4 192.872C177.619 193.558 178.001 194.182 178.513 194.689C179.025 195.196 179.652 195.572 180.34 195.785C181.454 196.048 182.626 195.887 183.628 195.334C184.63 194.78 185.389 193.873 185.759 192.79C189.947 191.113 194.3 189.881 198.746 189.114C213.697 186.466 227.488 188.133 243.208 189.631C243.781 189.685 244.407 189.521 244.162 188.895C240.977 180.662 234.502 167.146 229.812 160.363Z" fill="#191919"/>
<path d="M246.912 55.2338C246.724 54.0002 246.185 52.8468 245.36 51.9115C242.731 48.7682 233.889 44.5681 226.79 45.214C226.046 42.798 224.49 40.7135 222.385 39.3139C220.281 37.9144 217.756 37.286 215.241 37.5353C209.621 26.8903 196.922 17.714 182.791 17.5805C182.763 16.6552 182.599 9.16699 182.599 9.16699L181.293 9.52096C181.293 9.52096 181.619 16.709 181.674 17.5536C175.175 17.7844 168.845 19.6776 163.287 23.0525C157.728 26.4274 153.129 31.1711 149.926 36.8305C144.944 36.6131 139.335 40.0162 137.592 44.6965C131.204 45.48 124.241 47.5645 119.867 52.2934C118.653 53.4737 117.762 54.9453 117.279 56.5679C115.319 61.3051 118.532 68.4704 118.532 68.4704C118.532 68.4704 128.252 77.8889 154.826 81.4307C155.562 83.8536 158.257 85.3782 160.817 85.8957C169.993 87.7825 189.003 87.1925 199.997 86.0592C204.316 85.6276 208.38 84.781 210.589 81.0219C233.215 77.6188 244.623 70.2403 246.828 62.9425C247.23 60.3906 247.259 57.7938 246.912 55.2338V55.2338ZM123.461 68.9051C123.406 68.9986 123.33 69.0781 123.239 69.1375C123.148 69.1968 123.044 69.2345 122.936 69.2476C122.828 69.2607 122.719 69.2489 122.616 69.213C122.514 69.1771 122.421 69.1182 122.345 69.0407C121.637 68.4414 121.637 67.3257 121.555 66.4532C121.464 65.4359 121.566 64.4106 121.855 63.431C121.887 63.3222 121.953 63.2267 122.044 63.1587C122.135 63.0907 122.245 63.054 122.359 63.054C122.472 63.054 122.582 63.0907 122.673 63.1587C122.764 63.2267 122.83 63.3222 122.862 63.431C123.081 64.4112 123.276 65.3913 123.407 66.3984C123.676 67.2096 123.695 68.0829 123.461 68.9051V68.9051ZM127.545 70.4835C127.447 71.0579 126.701 71.1107 126.347 70.8106C125.612 70.1844 125.53 68.9869 125.395 68.0606C125.227 67.1255 125.208 66.1697 125.34 65.2288C125.422 64.7393 126.103 64.8479 126.238 65.2288C126.565 66.1272 126.729 67.0804 127.028 68.0067C127.381 68.784 127.558 69.6299 127.545 70.4835V70.4835ZM208.275 82.2194C206.348 84.0824 203.455 84.5874 200.869 84.9104C189.906 86.1619 178.851 86.4078 167.842 85.6452C163.609 85.343 157.803 85.3699 155.836 81.6429C169.178 83.3506 192.081 83.6704 209.12 81.2889C208.856 81.6144 208.574 81.925 208.275 82.2194V82.2194ZM158.906 75.8748C159.02 75.141 160.186 75.3304 160.186 76.0383C160.186 77.9697 160.924 78.6745 160.432 79.4963C160.338 79.6479 160.19 79.7579 160.017 79.8035C159.845 79.8492 159.662 79.827 159.505 79.7416C158.484 79.1858 158.745 76.9585 158.911 75.8748H158.906ZM235.879 71.001C235.852 71.0924 235.797 71.1726 235.721 71.2297C235.644 71.2868 235.552 71.3177 235.457 71.3177C235.361 71.3177 235.269 71.2868 235.193 71.2297C235.117 71.1726 235.061 71.0924 235.034 71.001C234.871 69.7827 234.843 68.5501 234.953 67.3257C234.953 67.2137 234.997 67.1063 235.076 67.0271C235.155 66.9479 235.263 66.9034 235.375 66.9034C235.487 66.9034 235.594 66.9479 235.673 67.0271C235.753 67.1063 235.797 67.2137 235.797 67.3257C235.97 68.5432 235.999 69.7767 235.884 71.001H235.879ZM239.527 69.9122C239.488 70.0323 239.416 70.139 239.32 70.2201C239.223 70.3011 239.105 70.3531 238.98 70.3702C238.855 70.3873 238.727 70.3687 238.612 70.3166C238.497 70.2645 238.399 70.181 238.33 70.0757C237.52 68.9258 238.06 65.709 238.275 64.3832C238.318 64.2375 238.412 64.1121 238.54 64.0293C238.667 63.9466 238.82 63.9119 238.971 63.9316C239.122 63.9513 239.26 64.024 239.362 64.1367C239.464 64.2494 239.523 64.3948 239.527 64.5467C239.266 67.6538 239.983 68.8244 239.532 69.9122H239.527ZM244.129 58.5272C236.143 67.9726 222.782 70.0447 210.939 72.1136C199.012 74.2105 144.693 77.4501 122.258 61.9572C116.948 58.2819 118.882 55.3415 119.317 54.797C122.231 51.0938 123.892 50.1395 125.552 49.2422C129.255 47.2271 133.315 46.6288 137.315 45.5669C136.828 47.3327 136.943 49.2102 137.642 50.9034C137.914 51.5844 138.976 51.3112 138.731 50.6032C138.141 48.8762 138.122 47.0055 138.676 45.2668C140.252 51.336 157.964 55.8745 164.112 56.9519C184.026 60.2825 201.949 57.9031 217.587 51.2884C217.968 51.1249 217.696 50.4718 217.287 50.6074C209.344 53.379 201.144 55.3494 192.809 56.4893C180.751 57.8544 168.545 57.0055 156.791 53.9846C150.271 52.2075 136.649 47.9246 140.292 42.2218C142.769 38.9274 146.337 38.4099 149.495 37.675C148.474 39.658 147.679 41.7494 147.126 43.9099C147.045 44.209 147.48 44.3187 147.589 44.0465C153.497 28.2917 167.697 18.9995 181.76 18.9995C181.815 19.8858 181.924 20.7679 182.087 21.6408C182.141 21.9948 182.604 21.8582 182.658 21.559C182.758 20.7186 182.804 19.8727 182.795 19.0264C188.442 19.222 193.969 20.7128 198.949 23.3836C203.929 26.0545 208.228 29.834 211.515 34.4303C213.332 37.143 214.864 40.0351 216.09 43.0612C216.389 43.7422 217.424 43.2527 217.26 42.5716C216.838 41.0602 216.273 39.5924 215.572 38.1884C217.136 38.2181 218.676 38.5806 220.089 39.2518C221.502 39.923 222.756 40.8875 223.767 42.081C225.864 44.6685 226.218 47.8532 225.919 51.0669C221.878 53.3226 217.705 55.3321 213.422 57.0844C202.882 60.9273 193.378 61.5225 181.919 61.7947C169.924 62.0969 158.97 61.3745 147.639 57.1372C147.395 57.0337 147.203 57.4642 147.449 57.5729C157.495 62.0658 168.795 62.9094 179.687 62.8514C195.005 62.8131 206.846 61.9106 220.037 55.6064C222.27 54.5176 226.464 52.0936 226.709 51.3857C227.338 49.6451 227.414 47.7528 226.926 45.9675C230.859 46.2033 234.72 47.1249 238.335 48.6905C240.078 49.4661 241.708 50.4737 243.181 51.6858C243.879 52.2931 244.484 52.9992 244.978 53.7817C246.312 55.7513 244.757 57.7934 244.134 58.5313L244.129 58.5272Z" fill="#191919"/>
<path d="M207.649 43.4474C207.887 43.5633 208.146 43.6276 208.41 43.6361C208.674 43.6446 208.937 43.5972 209.181 43.4969C209.426 43.3966 209.646 43.2457 209.828 43.0542C210.01 42.8626 210.149 42.6347 210.237 42.3855C210.343 41.2867 210.155 40.1793 209.692 39.177C209.454 38.6377 209.024 38.2058 208.486 37.9644C207.948 37.723 207.34 37.6893 206.779 37.8698C204.137 38.8458 205.854 42.7343 207.649 43.4474Z" fill="#414F97"/>
<path d="M196.866 43.5832C197.063 44.0251 197.349 44.4221 197.705 44.7499C198.06 45.0778 198.48 45.3295 198.936 45.4897C200.269 45.7619 200.678 44.019 200.541 43.0657C200.437 41.9554 200.001 40.9022 199.289 40.0435C199.1 39.8606 198.872 39.7237 198.622 39.6434C198.372 39.5632 198.106 39.5418 197.846 39.5809C197.453 39.659 197.099 39.8689 196.841 40.1759C196.584 40.4828 196.439 40.8684 196.43 41.269C196.418 42.0619 196.566 42.8491 196.866 43.5832V43.5832Z" fill="#414F97"/>
<path d="M186.764 46.7684C187.1 46.8942 187.467 46.9119 187.814 46.8191C188.16 46.7264 188.469 46.5277 188.698 46.2509C189.001 45.7704 189.162 45.2132 189.16 44.6446C189.215 43.8829 188.861 40.2065 187.146 41.0221C184.722 42.2217 186.024 46.4528 186.764 46.7684Z" fill="#414F97"/>
<path d="M168.904 46.1694C170.237 46.5295 171.926 43.0385 171.736 41.487C171.742 41.2309 171.685 40.9771 171.569 40.7487C171.453 40.5203 171.282 40.3244 171.071 40.1787C170.86 40.0331 170.616 39.9422 170.362 39.9144C170.107 39.8866 169.849 39.9227 169.612 40.0194C167.735 40.6694 166.615 45.5525 168.904 46.1694Z" fill="#414F97"/>
<path d="M154.773 42.8749C155.147 43.0105 155.554 43.0285 155.938 42.9264C156.323 42.8243 156.667 42.6069 156.924 42.3036C159.265 38.9543 157.931 37.6202 157.55 37.5426C154.848 36.7436 152.623 41.6557 154.773 42.8749Z" fill="#414F97"/>
<path d="M207.65 85.5686C210.289 95.4011 224.144 138.236 224.176 138.335C224.891 140.805 225.745 143.232 226.736 145.605C226.926 146.019 227.498 145.708 227.416 145.306C226.6 140.91 210.529 91.4485 208.276 85.3792C208.139 85.0232 207.54 85.1598 207.65 85.5686Z" fill="#414F97"/>
<path d="M131.715 153.366C134.119 148.294 155.234 90.1664 156.302 86.93C156.405 86.6309 155.948 86.5212 155.839 86.7934C148.814 103.484 142.715 120.583 136.371 137.519C134.465 142.61 132.26 147.729 130.789 152.957C130.648 153.501 131.465 153.882 131.715 153.366Z" fill="#414F97"/>
<path d="M153.957 113.395C153.282 115.437 152.737 117.519 152.324 119.63C152.291 119.745 152.306 119.869 152.364 119.974C152.423 120.078 152.521 120.155 152.637 120.188C152.752 120.22 152.876 120.206 152.981 120.147C153.085 120.088 153.163 119.99 153.195 119.875C153.921 117.856 154.512 115.792 154.965 113.695C157.087 105.949 157.979 102.382 159.675 95.5068C159.757 95.1528 159.213 94.9893 159.131 95.3433C157.932 99.3725 154.507 111.409 153.957 113.395Z" fill="#414F97"/>
<path d="M175.629 98.9112C175.587 96.922 175.275 94.9907 175.356 92.9755C175.383 92.5129 174.648 92.5129 174.62 92.9755C174.453 94.988 174.572 97.0141 174.974 98.993C174.993 99.0732 175.04 99.1438 175.107 99.191C175.174 99.2383 175.257 99.2588 175.338 99.2486C175.42 99.2384 175.495 99.1982 175.549 99.1358C175.602 99.0735 175.631 98.9934 175.629 98.9112Z" fill="#414F97"/>
<path d="M204.684 105.554C207.754 115.497 212.516 135.219 214.378 139.561C214.595 140.05 215.222 139.664 215.167 139.233C214.649 135.875 208.88 117.582 205.334 105.363C205.202 104.954 204.554 105.142 204.684 105.554Z" fill="#414F97"/>
<path d="M166.67 146.34C166.888 146.64 167.432 146.368 167.215 146.041C155.176 127.393 168.206 103.999 181.454 108.658C177.84 111.768 175.911 119.583 179.281 126.056C178.628 126.029 177.947 125.974 177.293 125.948C177.189 125.947 177.088 125.97 176.995 126.015C176.902 126.06 176.821 126.126 176.758 126.208C176.695 126.29 176.651 126.385 176.631 126.486C176.61 126.587 176.613 126.691 176.639 126.791C176.94 127.526 177.212 128.262 177.511 128.997C176.858 129.024 176.232 129.024 175.578 129.051C175.496 129.051 175.414 129.066 175.338 129.097C175.262 129.128 175.193 129.174 175.135 129.232C175.077 129.289 175.031 129.358 174.999 129.434C174.968 129.509 174.951 129.59 174.951 129.672C175.033 130.788 175.115 131.905 175.197 133.049C174.026 132.967 172.828 132.912 171.657 132.83C171.5 132.836 171.35 132.901 171.239 133.012C171.128 133.123 171.063 133.272 171.058 133.43C170.976 134.927 170.894 136.452 170.786 137.949C169.697 137.868 168.612 137.786 167.518 137.786C167.382 137.791 167.254 137.847 167.158 137.943C167.062 138.039 167.005 138.168 167.001 138.303C167.192 139.91 167.192 141.543 167.382 143.15C167.387 143.227 167.42 143.298 167.476 143.351C167.532 143.404 167.606 143.433 167.682 143.433C167.759 143.433 167.832 143.404 167.888 143.351C167.944 143.298 167.977 143.227 167.982 143.15C168.062 141.734 167.982 140.318 168.009 138.875C169.097 139.011 170.214 139.066 171.33 139.147C171.406 139.149 171.481 139.135 171.551 139.107C171.621 139.079 171.685 139.037 171.739 138.984C171.792 138.931 171.834 138.867 171.862 138.797C171.891 138.726 171.904 138.651 171.902 138.576C171.984 137.078 172.093 135.553 172.201 134.056C173.427 134.137 174.652 134.219 175.85 134.328C176.015 134.326 176.173 134.259 176.29 134.142C176.408 134.025 176.474 133.867 176.476 133.702C176.394 132.563 176.34 131.442 176.259 130.299C176.993 130.271 177.728 130.271 178.432 130.244C178.533 130.242 178.633 130.217 178.723 130.171C178.813 130.124 178.891 130.058 178.952 129.976C179.012 129.894 179.052 129.8 179.07 129.7C179.087 129.6 179.082 129.498 179.053 129.4C178.781 128.692 178.536 128.011 178.264 127.303L180.497 127.467C180.619 127.463 180.739 127.428 180.844 127.364C180.949 127.301 181.035 127.211 181.096 127.105C181.156 126.998 181.187 126.877 181.187 126.755C181.187 126.632 181.155 126.512 181.095 126.405C179.88 124.433 179.144 122.204 178.947 119.897C178.749 117.589 179.095 115.267 179.957 113.118C180.63 111.671 181.412 110.279 182.298 108.952C184.118 109.788 185.55 111.288 186.3 113.145C186.357 113.277 186.45 113.391 186.568 113.474C186.686 113.557 186.825 113.606 186.969 113.614C187.114 113.623 187.257 113.591 187.384 113.522C187.511 113.454 187.617 113.351 187.689 113.226C187.933 112.709 191.555 104.46 194.659 101.111C199.696 95.6924 204.107 93.8656 204.298 93.1867C204.625 91.9892 195.041 94.44 190.493 95.9646C179.026 99.7703 172.908 104.707 166.67 112.905C160.004 121.522 159.102 136.049 166.67 146.34Z" fill="#414F97"/>
<path d="M180.476 9.6309C180.779 9.9467 181.18 10.1504 181.614 10.2089C182.048 10.2673 182.489 10.177 182.865 9.95274C183.241 9.72844 183.53 9.38336 183.684 8.97379C183.839 8.56422 183.85 8.11433 183.716 7.69752C183.631 7.33858 183.446 7.01075 183.184 6.75108C182.922 6.49142 182.592 6.31027 182.233 6.22811C181.873 6.14596 181.497 6.16607 181.149 6.28619C180.8 6.4063 180.491 6.62162 180.258 6.90781C179.926 7.28179 179.751 7.76904 179.768 8.26884C179.816 8.79822 180.07 9.28749 180.476 9.6309V9.6309Z" fill="#414F97"/>
</svg>
