<svg width="40" height="40" viewBox="0 0 40 40" fill="none" xmlns="http://www.w3.org/2000/svg">
<rect x="0.5" y="0.5" width="39" height="39" rx="5.5" fill="white"/>
<path d="M21.5 13.85V24.85C21.5 25.2478 21.342 25.6293 21.0607 25.9106C20.7794 26.1919 20.3978 26.35 20 26.35C19.6022 26.35 19.2206 26.1919 18.9393 25.9106C18.658 25.6293 18.5 25.2478 18.5 24.85V13.85C18.5 13.4521 18.658 13.0706 18.9393 12.7893C19.2206 12.508 19.6022 12.35 20 12.35C20.3978 12.35 20.7794 12.508 21.0607 12.7893C21.342 13.0706 21.5 13.4521 21.5 13.85Z" fill="#FFEF5E"/>
<path d="M20 12.35C19.6022 12.35 19.2206 12.508 18.9393 12.7893C18.658 13.0706 18.5 13.4521 18.5 13.85V24.85C18.5 25.2478 18.658 25.6293 18.9393 25.9106C19.2206 26.1919 19.6022 26.35 20 26.35V12.35Z" fill="#FFF9BF"/>
<path d="M21.5 13.85V24.85C21.5 25.2478 21.342 25.6293 21.0607 25.9106C20.7794 26.1919 20.3978 26.35 20 26.35C19.6022 26.35 19.2206 26.1919 18.9393 25.9106C18.658 25.6293 18.5 25.2478 18.5 24.85V13.85C18.5 13.4521 18.658 13.0706 18.9393 12.7893C19.2206 12.508 19.6022 12.35 20 12.35C20.3978 12.35 20.7794 12.508 21.0607 12.7893C21.342 13.0706 21.5 13.4521 21.5 13.85Z" stroke="#191919" stroke-linecap="round" stroke-linejoin="round"/>
<path d="M19.061 12.69L15 8.64502" stroke="#191919" stroke-linecap="round" stroke-linejoin="round"/>
<path d="M20.936 12.69L25 8.64502" stroke="#191919" stroke-linecap="round" stroke-linejoin="round"/>
<path d="M20 26.3499C20 32.9199 12.57 32.6099 12.57 27.7999C12.5714 27.3431 12.6633 26.891 12.8403 26.4698C13.0173 26.0486 13.276 25.6666 13.6014 25.3459C13.9267 25.0252 14.3124 24.772 14.7361 24.6011C15.1598 24.4301 15.6132 24.3448 16.07 24.3499C11.95 22.2499 9.5 21.4799 9.5 18.1999C9.49923 17.3955 9.70865 16.6048 10.1075 15.9062C10.5064 15.2076 11.0809 14.6254 11.7741 14.2171C12.4672 13.8089 13.255 13.5889 14.0594 13.5789C14.8638 13.5688 15.6569 13.7691 16.36 14.16L18.5 15.35V24.8499C18.5 25.2478 18.658 25.6293 18.9393 25.9106C19.2206 26.1919 19.6022 26.3499 20 26.3499Z" fill="#C2F3FF"/>
<path d="M11.25 17.453C11.2517 16.7121 11.4315 15.9826 11.7742 15.3258C12.1168 14.669 12.6124 14.1042 13.219 13.679C12.168 13.8781 11.2201 14.4397 10.5406 15.2658C9.86098 16.0919 9.49275 17.1303 9.49998 18.2C9.49998 21.411 11.853 22.22 15.818 24.223C15.818 24.223 11.25 20.733 11.25 17.453Z" fill="#66E1FF"/>
<path d="M12.868 26.406C12.6711 26.8444 12.5689 27.3194 12.568 27.8C12.568 32.61 19.998 32.92 19.998 26.35C19.7915 26.3498 19.5872 26.3069 19.398 26.224C19.1327 26.8611 18.689 27.408 18.1202 27.7989C17.5514 28.1898 16.8818 28.4079 16.1919 28.4272C15.502 28.4464 14.8212 28.2659 14.2315 27.9073C13.6419 27.5487 13.1684 27.0274 12.868 26.406Z" fill="#66E1FF"/>
<path d="M20 26.3499C20 32.9199 12.57 32.6099 12.57 27.7999C12.5714 27.3431 12.6633 26.891 12.8403 26.4698C13.0173 26.0486 13.276 25.6666 13.6014 25.3459C13.9267 25.0252 14.3124 24.772 14.7361 24.6011C15.1598 24.4301 15.6132 24.3448 16.07 24.3499C11.95 22.2499 9.5 21.4799 9.5 18.1999C9.49923 17.3955 9.70865 16.6048 10.1075 15.9062C10.5064 15.2076 11.0809 14.6254 11.7741 14.2171C12.4672 13.8089 13.255 13.5889 14.0594 13.5789C14.8638 13.5688 15.6569 13.7691 16.36 14.16L18.5 15.35V24.8499C18.5 25.2478 18.658 25.6293 18.9393 25.9106C19.2206 26.1919 19.6022 26.3499 20 26.3499Z" stroke="#191919" stroke-linecap="round" stroke-linejoin="round"/>
<path d="M14.5 20.353C15.6046 20.353 16.5 19.4576 16.5 18.353C16.5 17.2485 15.6046 16.353 14.5 16.353C13.3954 16.353 12.5 17.2485 12.5 18.353C12.5 19.4576 13.3954 20.353 14.5 20.353Z" fill="#78EB7B" stroke="#191919" stroke-linecap="round" stroke-linejoin="round"/>
<path d="M20 26.3499C20 32.9199 27.43 32.6099 27.43 27.7999C27.4286 27.3431 27.3367 26.891 27.1597 26.4698C26.9827 26.0486 26.724 25.6666 26.3986 25.3459C26.0733 25.0252 25.6876 24.772 25.2639 24.6011C24.8402 24.4301 24.3869 24.3448 23.93 24.3499C28.05 22.2499 30.5 21.4799 30.5 18.1999C30.5008 17.3955 30.2914 16.6048 29.8925 15.9062C29.4936 15.2076 28.9191 14.6254 28.2259 14.2171C27.5328 13.8089 26.745 13.5889 25.9406 13.5789C25.1362 13.5688 24.3431 13.7691 23.64 14.16L21.5 15.35V24.8499C21.5 25.2478 21.342 25.6293 21.0607 25.9106C20.7794 26.1919 20.3978 26.3499 20 26.3499Z" fill="#C2F3FF"/>
<path d="M28.75 17.453C28.7483 16.7121 28.5685 15.9826 28.2258 15.3258C27.8832 14.669 27.3876 14.1042 26.781 13.679C27.832 13.8781 28.7799 14.4397 29.4594 15.2658C30.139 16.0919 30.5072 17.1303 30.5 18.2C30.5 21.411 28.147 22.22 24.182 24.223C24.182 24.223 28.75 20.733 28.75 17.453Z" fill="#66E1FF"/>
<path d="M27.132 26.406C27.3289 26.8444 27.4311 27.3194 27.432 27.8C27.432 32.61 20.002 32.92 20.002 26.35C20.2086 26.3498 20.4128 26.3069 20.602 26.224C20.8673 26.8611 21.311 27.408 21.8798 27.7989C22.4486 28.1898 23.1183 28.4079 23.8081 28.4272C24.498 28.4464 25.1788 28.2659 25.7685 27.9073C26.3582 27.5487 26.8317 27.0274 27.132 26.406Z" fill="#66E1FF"/>
<path d="M20 26.3499C20 32.9199 27.43 32.6099 27.43 27.7999C27.4286 27.3431 27.3367 26.891 27.1597 26.4698C26.9827 26.0486 26.724 25.6666 26.3986 25.3459C26.0733 25.0252 25.6876 24.772 25.2639 24.6011C24.8402 24.4301 24.3869 24.3448 23.93 24.3499C28.05 22.2499 30.5 21.4799 30.5 18.1999C30.5008 17.3955 30.2914 16.6048 29.8925 15.9062C29.4936 15.2076 28.9191 14.6254 28.2259 14.2171C27.5328 13.8089 26.745 13.5889 25.9406 13.5789C25.1362 13.5688 24.3431 13.7691 23.64 14.16L21.5 15.35V24.8499C21.5 25.2478 21.342 25.6293 21.0607 25.9106C20.7794 26.1919 20.3978 26.3499 20 26.3499Z" stroke="#191919" stroke-linecap="round" stroke-linejoin="round"/>
<path d="M25.5 20.353C26.6046 20.353 27.5 19.4576 27.5 18.353C27.5 17.2485 26.6046 16.353 25.5 16.353C24.3954 16.353 23.5 17.2485 23.5 18.353C23.5 19.4576 24.3954 20.353 25.5 20.353Z" fill="#78EB7B" stroke="#191919" stroke-linecap="round" stroke-linejoin="round"/>
<path d="M18.5 22.353H21.5" stroke="#191919" stroke-linecap="round" stroke-linejoin="round"/>
<path d="M18.5 19.353H21.5" stroke="#191919" stroke-linecap="round" stroke-linejoin="round"/>
<path d="M18.5 16.353H21.5" stroke="#191919" stroke-linecap="round" stroke-linejoin="round"/>
<rect x="0.5" y="0.5" width="39" height="39" rx="5.5" stroke="#C8D2DD"/>
</svg>
