<svg width="32" height="32" viewBox="0 0 32 32" fill="none" xmlns="http://www.w3.org/2000/svg">
<path fill-rule="evenodd" clip-rule="evenodd" d="M2 7C2 5.34314 3.34315 4 5 4H27C28.6568 4 30 5.34314 30 7V7.6839L16.7668 16.5076C16.5802 16.6276 16.3092 16.7133 16 16.7133C15.6907 16.7133 15.4198 16.6276 15.2332 16.5076L2 7.68392V7ZM2 10.6887V24C2 25.6568 3.34315 27 5 27H27C28.6568 27 30 25.6568 30 24V10.6887L18.1468 18.5922L18.1353 18.5999L18.1352 18.5998C17.5059 19.0095 16.7503 19.2133 16 19.2133C15.2497 19.2133 14.494 19.0095 13.8647 18.5998L13.8531 18.5923L13.8532 18.5922L2 10.6887Z" fill="#141327"/>
</svg>
