<svg width="40" height="40" viewBox="0 0 40 40" fill="none" xmlns="http://www.w3.org/2000/svg">
<rect x="0.5" y="0.5" width="39" height="39" rx="5.5" fill="white"/>
<path d="M24.487 23.394C31.2 16.668 25.659 9.037 18 9.037C12.753 9.037 8.5 12.619 8.5 17.037C8.5 20.368 10.919 23.217 14.358 24.418C14.7455 24.5608 15.1596 24.6171 15.5712 24.5829C15.9827 24.5487 16.3818 24.4249 16.7405 24.2201C17.0992 24.0154 17.4087 23.7346 17.6473 23.3975C17.886 23.0605 18.048 22.6753 18.122 22.269C18.842 19.412 23.267 18.668 24.487 23.394Z" fill="#FFBC44"/>
<path d="M22.8 10.136C21.3056 9.40574 19.6632 9.02936 18 9.036C12.753 9.036 8.5 12.618 8.5 17.036C8.51442 18 8.72123 18.9514 9.10828 19.8344C9.49534 20.7174 10.0549 21.5142 10.754 22.178L22.8 10.136Z" fill="#FFDDA1"/>
<path d="M27.5 17.037C27.5 12.619 23.247 9.037 18 9.037C12.753 9.037 8.5 12.619 8.5 17.037C8.5 20.368 10.919 23.217 14.358 24.418C14.7455 24.5608 15.1596 24.6171 15.5712 24.5829C15.9827 24.5487 16.3818 24.4249 16.7405 24.2201C17.0992 24.0154 17.4087 23.7346 17.6473 23.3975C17.886 23.0605 18.048 22.6753 18.122 22.269C18.2276 21.8296 18.432 21.4201 18.7197 21.0716C19.0074 20.7231 19.3708 20.4448 19.7822 20.2579C20.1937 20.0711 20.6423 19.9805 21.0941 19.9932C21.5458 20.0058 21.9887 20.1214 22.389 20.331" stroke="#191919" stroke-linecap="round" stroke-linejoin="round"/>
<path d="M13.5 20.537C14.3284 20.537 15 19.8654 15 19.037C15 18.2086 14.3284 17.537 13.5 17.537C12.6716 17.537 12 18.2086 12 19.037C12 19.8654 12.6716 20.537 13.5 20.537Z" fill="#FFEF5E" stroke="#191919" stroke-linecap="round" stroke-linejoin="round"/>
<path d="M14.5 15.537C15.3284 15.537 16 14.8654 16 14.037C16 13.2086 15.3284 12.537 14.5 12.537C13.6716 12.537 13 13.2086 13 14.037C13 14.8654 13.6716 15.537 14.5 15.537Z" fill="#66E1FF" stroke="#191919" stroke-linecap="round" stroke-linejoin="round"/>
<path d="M19.25 13.537C19.9404 13.537 20.5 12.9774 20.5 12.287C20.5 11.5966 19.9404 11.037 19.25 11.037C18.5596 11.037 18 11.5966 18 12.287C18 12.9774 18.5596 13.537 19.25 13.537Z" fill="#FF808C" stroke="#191919" stroke-linecap="round" stroke-linejoin="round"/>
<path d="M23.75 16.537C24.4404 16.537 25 15.9773 25 15.287C25 14.5966 24.4404 14.037 23.75 14.037C23.0596 14.037 22.5 14.5966 22.5 15.287C22.5 15.9773 23.0596 16.537 23.75 16.537Z" fill="#E3E3E3" stroke="#191919" stroke-linecap="round" stroke-linejoin="round"/>
<path d="M26.5694 24.4617C26.9155 24.4617 27.2539 24.3591 27.5416 24.1668C27.8294 23.9745 28.0537 23.7012 28.1862 23.3814C28.3186 23.0616 28.3533 22.7098 28.2858 22.3703C28.2182 22.0308 28.0516 21.719 27.8068 21.4743C27.5621 21.2295 27.2503 21.0629 26.9108 20.9953C26.5713 20.9278 26.2195 20.9625 25.8997 21.0949C25.5799 21.2274 25.3066 21.4517 25.1143 21.7395C24.922 22.0272 24.8194 22.3656 24.8194 22.7117C24.8194 23.1758 25.0038 23.6209 25.332 23.9491C25.6602 24.2773 26.1053 24.4617 26.5694 24.4617Z" fill="#FFDDA1" stroke="#191919" stroke-linecap="round" stroke-linejoin="round"/>
<path d="M30.0694 27.9618C29.8711 27.1841 29.4194 26.4945 28.7856 26.0021C28.1518 25.5096 27.372 25.2423 26.5694 25.2423C25.7668 25.2423 24.987 25.5096 24.3532 26.0021C23.7194 26.4945 23.2677 27.1841 23.0694 27.9618H30.0694Z" fill="#66E1FF" stroke="#191919" stroke-linecap="round" stroke-linejoin="round"/>
<rect x="0.5" y="0.5" width="39" height="39" rx="5.5" stroke="#C8D2DD"/>
</svg>
