<svg width="40" height="40" viewBox="0 0 40 40" fill="none" xmlns="http://www.w3.org/2000/svg">
<rect x="0.5" y="0.5" width="39" height="39" rx="5.5" fill="white"/>
<path d="M11 31.394L10.5 26.394H22.5L22 31.394H11Z" fill="#E3BFB3"/>
<path d="M16.336 29.58C14.2227 29.5813 12.1821 28.8082 10.6 27.407L11 31.394H22L22.431 27.079C20.8087 28.6838 18.618 29.5827 16.336 29.58Z" fill="#C77F67"/>
<path d="M23.02 21.867L21.766 24.394H11.25L9 19.894L11 16.408L14 17.394L16.5 15.964L18.849 19.393L20.79 21.394L23.02 21.867Z" fill="#78EB7B"/>
<path d="M27.16 11.494C26.3913 11.358 25.6047 11.358 24.836 11.494L20.907 8.68399C20.683 8.52399 20.5 8.61899 20.5 8.89399V15.894C20.5 19.394 22.962 20.394 26 20.394C29.038 20.394 31.5 19.394 31.5 15.894V8.89399C31.5 8.61899 31.317 8.52399 31.093 8.68399L27.16 11.494Z" fill="white"/>
<path d="M26 18.023C22.962 18.023 20.5 17.023 20.5 13.523V15.894C20.5 19.394 22.962 20.394 26 20.394C29.038 20.394 31.5 19.394 31.5 15.894V13.523C31.5 17.023 29.038 18.023 26 18.023Z" fill="#E3E3E3"/>
<path d="M30.1 12.015C27.838 12.015 26.005 13.36 26.005 15.015C26.005 16.67 27.838 18.015 30.1 18.015C30.448 18.0118 30.7949 17.9753 31.136 17.906C31.3936 17.2644 31.5191 16.5773 31.505 15.886V12.208C31.0473 12.0818 30.5748 12.0169 30.1 12.015Z" fill="#FFBC44"/>
<path d="M11 31.394L10.5 26.394H22.5L22 31.394" stroke="#191919" stroke-linecap="round" stroke-linejoin="round"/>
<path d="M8.5 25.394C8.5 25.6592 8.60536 25.9136 8.79289 26.1011C8.98043 26.2886 9.23478 26.394 9.5 26.394H23.5C23.7652 26.394 24.0196 26.2886 24.2071 26.1011C24.3946 25.9136 24.5 25.6592 24.5 25.394C24.5 25.1288 24.3946 24.8744 24.2071 24.6869C24.0196 24.4993 23.7652 24.394 23.5 24.394H9.5C9.23478 24.394 8.98043 24.4993 8.79289 24.6869C8.60536 24.8744 8.5 25.1288 8.5 25.394Z" fill="#FFBC44" stroke="#191919" stroke-linecap="round" stroke-linejoin="round"/>
<path d="M11.25 24.394L9 19.894" stroke="#191919" stroke-linecap="round" stroke-linejoin="round"/>
<path d="M12.953 24.394L11 16.408" stroke="#191919" stroke-linecap="round" stroke-linejoin="round"/>
<path d="M14.552 24.394L14 17.394" stroke="#191919" stroke-linecap="round" stroke-linejoin="round"/>
<path d="M21.766 24.394L23.02 21.867" stroke="#191919" stroke-linecap="round" stroke-linejoin="round"/>
<path d="M20.062 24.394L20.79 21.394" stroke="#191919" stroke-linecap="round" stroke-linejoin="round"/>
<path d="M18.47 24.394L18.849 19.393" stroke="#191919" stroke-linecap="round" stroke-linejoin="round"/>
<path d="M16.5 24.394V15.964" stroke="#191919" stroke-linecap="round" stroke-linejoin="round"/>
<path d="M27.16 11.494C26.3913 11.358 25.6047 11.358 24.836 11.494L20.907 8.68399C20.683 8.52399 20.5 8.61899 20.5 8.89399V15.894C20.5 19.394 22.962 20.394 26 20.394C29.038 20.394 31.5 19.394 31.5 15.894V8.89399C31.5 8.61899 31.317 8.52399 31.093 8.68399L27.16 11.494Z" stroke="#191919" stroke-linecap="round" stroke-linejoin="round"/>
<path d="M22.457 14.82C22.6259 14.7187 22.8132 14.6516 23.008 14.6226C23.2029 14.5937 23.4016 14.6034 23.5927 14.6512C23.7838 14.699 23.9636 14.784 24.1218 14.9014C24.2801 15.0187 24.4137 15.166 24.515 15.335" stroke="#191919" stroke-linecap="round" stroke-linejoin="round"/>
<path d="M27.5 15.394C27.6989 15.0495 28.0265 14.7981 28.4108 14.6951C28.7951 14.5922 29.2045 14.6461 29.549 14.845" stroke="#191919" stroke-linecap="round" stroke-linejoin="round"/>
<path d="M26.5 16.894H25.5" stroke="#191919" stroke-linecap="round" stroke-linejoin="round"/>
<path d="M26 17.394L26.5 16.894" stroke="#191919" stroke-linecap="round" stroke-linejoin="round"/>
<path d="M25.5 16.894L26 17.394" stroke="#191919" stroke-linecap="round" stroke-linejoin="round"/>
<rect x="0.5" y="0.5" width="39" height="39" rx="5.5" stroke="#C8D2DD"/>
</svg>
