<svg width="40" height="40" viewBox="0 0 40 40" fill="none" xmlns="http://www.w3.org/2000/svg">
<rect x="0.5" y="0.5" width="39" height="39" rx="5.5" fill="white"/>
<path d="M9.5 31.5V20.5C9.5 20.2348 9.60536 19.9804 9.79289 19.7929C9.98043 19.6054 10.2348 19.5 10.5 19.5H29.5C29.7652 19.5 30.0196 19.6054 30.2071 19.7929C30.3946 19.9804 30.5 20.2348 30.5 20.5V31.5H9.5Z" fill="#C77F67"/>
<path d="M29.5 19.5H10.5C10.2348 19.5 9.98043 19.6054 9.79289 19.7929C9.60536 19.9804 9.5 20.2348 9.5 20.5V23.5C9.5 23.2348 9.60536 22.9804 9.79289 22.7929C9.98043 22.6054 10.2348 22.5 10.5 22.5H29.5C29.7652 22.5 30.0196 22.6054 30.2071 22.7929C30.3946 22.9804 30.5 23.2348 30.5 23.5V20.5C30.5 20.2348 30.3946 19.9804 30.2071 19.7929C30.0196 19.6054 29.7652 19.5 29.5 19.5Z" fill="#E3BFB3"/>
<path d="M9.5 31.5V20.5C9.5 20.2348 9.60536 19.9804 9.79289 19.7929C9.98043 19.6054 10.2348 19.5 10.5 19.5H29.5C29.7652 19.5 30.0196 19.6054 30.2071 19.7929C30.3946 19.9804 30.5 20.2348 30.5 20.5V31.5" stroke="#191919" stroke-linecap="round" stroke-linejoin="round"/>
<path d="M13.5 22.5H26" stroke="#191919" stroke-linecap="round" stroke-linejoin="round"/>
<path d="M20 21.5V31.5" stroke="#191919" stroke-linecap="round" stroke-linejoin="round"/>
<path d="M17.5 31.5H22.5" stroke="#191919" stroke-linecap="round" stroke-linejoin="round"/>
<path d="M13.5 27.5L15 22.5L16.5 27.5" stroke="#191919" stroke-linecap="round" stroke-linejoin="round"/>
<path d="M17 27.5C17 28.0304 16.7893 28.5391 16.4142 28.9142C16.0391 29.2893 15.5304 29.5 15 29.5C14.4696 29.5 13.9609 29.2893 13.5858 28.9142C13.2107 28.5391 13 28.0304 13 27.5H17Z" fill="#FFEF5E" stroke="#191919" stroke-linecap="round" stroke-linejoin="round"/>
<path d="M23.5 27.5L25 22.5L26.5 27.5" stroke="#191919" stroke-linecap="round" stroke-linejoin="round"/>
<path d="M27 27.5C27 28.0304 26.7893 28.5391 26.4142 28.9142C26.0391 29.2893 25.5304 29.5 25 29.5C24.4696 29.5 23.9609 29.2893 23.5858 28.9142C23.2107 28.5391 23 28.0304 23 27.5H27Z" fill="#FFEF5E" stroke="#191919" stroke-linecap="round" stroke-linejoin="round"/>
<path d="M24.9 19.5C24.4394 18.5966 23.738 17.838 22.8732 17.3082C22.0085 16.7784 21.0141 16.498 20 16.498C18.9859 16.498 17.9915 16.7784 17.1267 17.3082C16.262 17.838 15.5606 18.5966 15.1 19.5H24.9Z" fill="#66E1FF" stroke="#191919" stroke-linecap="round" stroke-linejoin="round"/>
<path d="M20 15C21.7949 15 23.25 13.5449 23.25 11.75C23.25 9.95507 21.7949 8.5 20 8.5C18.2051 8.5 16.75 9.95507 16.75 11.75C16.75 13.5449 18.2051 15 20 15Z" fill="#FFDDA1" stroke="#191919" stroke-linecap="round" stroke-linejoin="round"/>
<rect x="0.5" y="0.5" width="39" height="39" rx="5.5" stroke="#C8D2DD"/>
</svg>
