<svg width="32" height="32" viewBox="0 0 32 32" fill="none" xmlns="http://www.w3.org/2000/svg">
<g clip-path="url(#clip0_291_3527)">
<path d="M30.251 0H1.75006C0.783527 0 0 0.783527 0 1.75006V30.251C0 31.2175 0.783527 32.001 1.75006 32.001H30.251C31.2175 32.001 32.001 31.2175 32.001 30.251V1.75006C32.001 0.783527 31.2175 0 30.251 0Z" fill="#414F97"/>
<path d="M2.72172 25H5.88578L7.31547 20.6289H13.6084L15.0381 25H18.2139L12.167 8.08984H8.76859L2.72172 25ZM10.4327 11.1016H10.503L12.8467 18.2969H8.07719L10.4327 11.1016ZM18.0986 25H21.122V18.0977H28.2119V15.6367H21.122V10.6328H28.8798V8.08984H18.0986V25Z" fill="white"/>
</g>
<defs>
<clipPath id="clip0_291_3527">
<rect width="32.001" height="32.001" fill="white"/>
</clipPath>
</defs>
</svg>
