<svg width="40" height="40" viewBox="0 0 40 40" fill="none" xmlns="http://www.w3.org/2000/svg">
<rect x="0.5" y="0.5" width="39" height="39" rx="5.5" fill="white"/>
<path d="M25.9914 18.6272C27.4542 18.6264 28.8577 19.2058 29.8941 20.2382C30.9305 21.2707 31.5152 22.6719 31.52 24.1347V25.5104C31.5099 26.9775 30.9212 28.3813 29.8818 29.4167C28.8424 30.4521 27.4364 31.0355 25.9693 31.04H15.776C10.7706 31.04 11.456 24.1453 11.456 24.1453C11.456 24.1453 9.65985 23.6173 9.44001 22.112C9.43055 22.0476 9.43948 21.9818 9.46578 21.9222C9.49208 21.8627 9.53466 21.8117 9.58864 21.7753C9.64261 21.7389 9.70578 21.7185 9.77086 21.7164C9.83594 21.7143 9.90029 21.7306 9.95649 21.7635C10.6734 22.1966 11.497 22.4205 12.3345 22.4104C13.1719 22.4002 13.9898 22.1563 14.696 21.7059C14.7516 21.6759 14.8144 21.6618 14.8775 21.6649C14.9406 21.6682 15.0016 21.6887 15.0538 21.7244C15.106 21.7599 15.1475 21.8091 15.1736 21.8667C15.1997 21.9242 15.2095 21.9879 15.2019 22.0506C15.0426 23.3677 13.184 24.1347 13.184 24.1347C13.184 24.1347 13.0285 27.5773 15.9469 27.5773C19.7312 27.5773 19.1072 18.6272 25.9914 18.6272Z" fill="#66E1FF"/>
<path d="M14.1613 26.9235C14.2369 27.5702 14.558 28.1632 15.0582 28.5799C15.5584 28.9967 16.1995 29.2055 16.8493 29.1632C20.6365 29.1632 20.0173 21.2403 26.8966 21.2403C27.7682 21.2265 28.6315 21.4107 29.4216 21.7791C30.2117 22.1474 30.9078 22.6903 31.4576 23.3667C31.2682 22.0506 30.6107 20.8469 29.6055 19.9764C28.6005 19.1059 27.3153 18.6268 25.9856 18.6272C19.1014 18.6272 19.7254 27.5773 15.9382 27.5773C15.2827 27.6032 14.6437 27.3681 14.1613 26.9235Z" fill="#C2F3FF"/>
<path d="M25.9914 18.6272C27.4542 18.6264 28.8577 19.2058 29.8941 20.2382C30.9305 21.2707 31.5152 22.6719 31.52 24.1347V25.5104C31.5099 26.9775 30.9212 28.3813 29.8818 29.4167C28.8424 30.4521 27.4364 31.0355 25.9693 31.04H15.776C10.7706 31.04 11.456 24.1453 11.456 24.1453C11.456 24.1453 9.65985 23.6173 9.44001 22.112C9.43055 22.0476 9.43948 21.9818 9.46578 21.9222C9.49208 21.8627 9.53466 21.8117 9.58864 21.7753C9.64261 21.7389 9.70578 21.7185 9.77086 21.7164C9.83594 21.7143 9.90029 21.7306 9.95649 21.7635C10.6734 22.1966 11.497 22.4205 12.3345 22.4104C13.1719 22.4002 13.9898 22.1563 14.696 21.7059C14.7516 21.6759 14.8144 21.6618 14.8775 21.6649C14.9406 21.6682 15.0016 21.6887 15.0538 21.7244C15.106 21.7599 15.1475 21.8091 15.1736 21.8667C15.1997 21.9242 15.2095 21.9879 15.2019 22.0506C15.0426 23.3677 13.184 24.1347 13.184 24.1347C13.184 24.1347 13.0285 27.5773 15.9469 27.5773C19.7312 27.5773 19.1072 18.6272 25.9914 18.6272Z" stroke="#191919" stroke-width="0.96" stroke-linecap="round" stroke-linejoin="round"/>
<path d="M27.68 22.88V22.4" stroke="#191919" stroke-width="0.96" stroke-linecap="round" stroke-linejoin="round"/>
<path d="M30.8336 28.16C29.6982 28.2557 28.5694 27.9121 27.68 27.2" stroke="#191919" stroke-width="0.96" stroke-linecap="round" stroke-linejoin="round"/>
<path d="M22.1389 16.8848C22.1836 16.9807 22.2595 17.0587 22.3541 17.1061C22.4487 17.1535 22.5566 17.1675 22.6602 17.1459C23.6739 16.9386 26.5319 16.2493 27.1847 14.9379C28.1043 13.0851 25.9367 11.2765 24.2672 13.2589C24.8432 10.7331 22.0851 10.0966 21.1655 11.9494C20.5136 13.2598 21.6896 15.9507 22.1389 16.8848Z" fill="#FF808C" stroke="#191919" stroke-width="0.96" stroke-linecap="round" stroke-linejoin="round"/>
<path d="M14.2909 16.7552C14.3826 16.804 14.488 16.8211 14.5904 16.8037C14.6929 16.7863 14.7867 16.7355 14.8573 16.6592C15.6906 15.7789 18.3133 12.8288 18.0022 10.9376C17.575 8.34848 13.952 8.1056 13.6976 11.384C12.4026 8.36096 9.05023 9.752 9.47359 12.344C9.78847 14.24 13.2195 16.1878 14.2909 16.7552Z" fill="#FF808C" stroke="#191919" stroke-width="0.96" stroke-linecap="round" stroke-linejoin="round"/>
<rect x="0.5" y="0.5" width="39" height="39" rx="5.5" stroke="#C8D2DD"/>
</svg>
