<svg width="40" height="40" viewBox="0 0 40 40" fill="none" xmlns="http://www.w3.org/2000/svg">
<rect x="0.5" y="0.5" width="39" height="39" rx="5.5" fill="white"/>
<path d="M20 27.839C24.3288 27.839 27.838 24.3298 27.838 20.001C27.838 15.6722 24.3288 12.163 20 12.163C15.6712 12.163 12.162 15.6722 12.162 20.001C12.162 24.3298 15.6712 27.839 20 27.839Z" fill="#66E1FF"/>
<path d="M25 18.001V23.001" stroke="#191919" stroke-linecap="round" stroke-linejoin="round"/>
<path d="M30 20C30 22.6522 28.9464 25.1957 27.0711 27.0711C25.1957 28.9464 22.6522 30 20 30C18.4647 29.912 16.9634 29.5119 15.5879 28.8242C14.2124 28.1364 12.9916 27.1755 12 26" stroke="#191919" stroke-linecap="round" stroke-linejoin="round"/>
<path d="M10 20C10 17.3478 11.0536 14.8043 12.9289 12.9289C14.8043 11.0536 17.3478 10 20 10C21.5353 10.088 23.0366 10.4881 24.4121 11.1758C25.7876 11.8636 27.0084 12.8245 28 14" stroke="#191919" stroke-linecap="round" stroke-linejoin="round"/>
<path d="M24 14.001H28V10.001" stroke="#191919" stroke-linecap="round" stroke-linejoin="round"/>
<path d="M16 26.001H12V30.001" stroke="#191919" stroke-linecap="round" stroke-linejoin="round"/>
<path d="M20.371 19.748C20.133 19.844 19.867 19.844 19.629 19.748L17 18.7V21.9C17.4051 22.263 17.8803 22.5391 18.3963 22.7111C18.9123 22.8831 19.4581 22.9474 20 22.9C20.5419 22.9474 21.0877 22.8831 21.6037 22.7111C22.1197 22.5391 22.5949 22.263 23 21.9V18.7L20.371 19.748Z" fill="#E3E3E3"/>
<path d="M19.629 16.046L15.29 17.781C15.2668 17.7903 15.247 17.8063 15.233 17.827C15.219 17.8477 15.2115 17.8721 15.2115 17.897C15.2115 17.922 15.219 17.9463 15.233 17.967C15.247 17.9877 15.2668 18.0037 15.29 18.013L19.629 19.748C19.867 19.844 20.133 19.844 20.371 19.748L25 17.9L20.371 16.046C20.133 15.95 19.867 15.95 19.629 16.046Z" fill="#808080" stroke="#191919" stroke-linecap="round" stroke-linejoin="round"/>
<path d="M17 20.4V21.9C17.4051 22.263 17.8803 22.5391 18.3963 22.7111C18.9123 22.8831 19.4581 22.9474 20 22.9C20.5419 22.9474 21.0877 22.8831 21.6037 22.7111C22.1197 22.5391 22.5949 22.263 23 21.9V20.4" stroke="#191919" stroke-linecap="round" stroke-linejoin="round"/>
<path d="M25 24.897V25.897" stroke="#191919" stroke-linecap="round" stroke-linejoin="round"/>
<rect x="0.5" y="0.5" width="39" height="39" rx="5.5" stroke="#C8D2DD"/>
</svg>
