<svg width="24" height="24" viewBox="0 0 24 24" fill="none" xmlns="http://www.w3.org/2000/svg">
<path d="M18.9 9.5784V7.0512C18.9 6.14508 18.7215 5.24783 18.3748 4.41068C18.028 3.57354 17.5198 2.81289 16.879 2.17216C16.2383 1.53144 15.4777 1.02319 14.6405 0.676431C13.8034 0.329673 12.9061 0.151199 12 0.151199C11.0939 0.151199 10.1966 0.329673 9.35948 0.676431C8.52233 1.02319 7.76168 1.53144 7.12096 2.17216C6.48023 2.81289 5.97198 3.57354 5.62523 4.41068C5.27847 5.24783 5.09999 6.14508 5.09999 7.0512V9.5784C4.32936 9.77737 3.6464 10.2261 3.15788 10.8544C2.66936 11.4828 2.40284 12.2553 2.39999 13.0512V20.2512C2.39999 21.206 2.77928 22.1217 3.45441 22.7968C4.12954 23.4719 5.04521 23.8512 5.99999 23.8512H18C18.9548 23.8512 19.8704 23.4719 20.5456 22.7968C21.2207 22.1217 21.6 21.206 21.6 20.2512V13.0512C21.5971 12.2553 21.3306 11.4828 20.8421 10.8544C20.3536 10.2261 19.6706 9.77737 18.9 9.5784V9.5784ZM12 19.0512C11.5253 19.0512 11.0613 18.9104 10.6666 18.6467C10.2719 18.383 9.96433 18.0082 9.78268 17.5696C9.60103 17.1311 9.5535 16.6485 9.64611 16.183C9.73871 15.7174 9.96729 15.2898 10.3029 14.9541C10.6386 14.6185 11.0662 14.3899 11.5318 14.2973C11.9973 14.2047 12.4799 14.2522 12.9184 14.4339C13.357 14.6155 13.7318 14.9232 13.9955 15.3178C14.2592 15.7125 14.4 16.1765 14.4 16.6512C14.4 17.2877 14.1471 17.8982 13.6971 18.3483C13.247 18.7983 12.6365 19.0512 12 19.0512ZM15.9 9.4512H8.09999V7.0512C8.09999 6.01686 8.51089 5.02488 9.24228 4.29348C9.97367 3.56209 10.9656 3.1512 12 3.1512C13.0343 3.1512 14.0263 3.56209 14.7577 4.29348C15.4891 5.02488 15.9 6.01686 15.9 7.0512V9.4512Z" fill="white"/>
</svg>
