<svg width="344" height="67" viewBox="0 0 344 67" fill="none" xmlns="http://www.w3.org/2000/svg">
<g clip-path="url(#clip0_201_58)">
<path d="M-0.22 53.5L14.24 9.7H30.14L45.14 53.5H34.94L22.82 16.48L25.94 17.74H18.2L21.44 16.48L9.62 53.5H-0.22ZM10.76 42.64L13.76 34.48H30.92L33.98 42.64H10.76ZM47.2648 53.5V9.7H56.9248V53.5H47.2648ZM43.3648 16.78V9.7H56.9248V16.78H43.3648ZM77.8306 54.64C75.0306 54.64 72.5506 54.16 70.3906 53.2C68.2706 52.24 66.4906 50.96 65.0506 49.36C63.6506 47.72 62.5706 45.9 61.8106 43.9C61.0906 41.86 60.7306 39.78 60.7306 37.66V36.46C60.7306 34.26 61.0906 32.16 61.8106 30.16C62.5706 28.12 63.6506 26.3 65.0506 24.7C66.4506 23.1 68.1906 21.84 70.2706 20.92C72.3906 19.96 74.7906 19.48 77.4706 19.48C80.9906 19.48 83.9506 20.28 86.3506 21.88C88.7906 23.44 90.6506 25.5 91.9306 28.06C93.2106 30.58 93.8506 33.34 93.8506 36.34V39.58H64.7506V34.12H88.0306L84.9106 36.64C84.9106 34.68 84.6306 33 84.0706 31.6C83.5106 30.2 82.6706 29.14 81.5506 28.42C80.4706 27.66 79.1106 27.28 77.4706 27.28C75.7906 27.28 74.3706 27.66 73.2106 28.42C72.0506 29.18 71.1706 30.3 70.5706 31.78C69.9706 33.22 69.6706 35 69.6706 37.12C69.6706 39.08 69.9506 40.8 70.5106 42.28C71.0706 43.72 71.9506 44.84 73.1506 45.64C74.3506 46.44 75.9106 46.84 77.8306 46.84C79.5906 46.84 81.0306 46.5 82.1506 45.82C83.2706 45.14 84.0306 44.3 84.4306 43.3H93.2506C92.7706 45.5 91.8306 47.46 90.4306 49.18C89.0306 50.9 87.2706 52.24 85.1506 53.2C83.0306 54.16 80.5906 54.64 77.8306 54.64ZM93.3763 53.5L103.576 35.86L103.336 37.36L93.7363 20.62H104.116L110.056 31.78H111.016L116.596 20.62H126.376L117.196 37.48L117.436 36.22L128.236 53.5H117.796L110.716 41.56H109.756L103.096 53.5H93.3763ZM130.611 53.5V9.7H140.451V53.5H130.611ZM139.251 35.86V27.7H156.171V35.86H139.251ZM139.251 17.86V9.7H156.891V17.86H139.251ZM160.294 53.5V20.62H167.914V34.72H167.734C167.734 30.08 168.714 26.5 170.674 23.98C172.674 21.46 175.554 20.2 179.314 20.2H180.574V28.48H178.174C175.534 28.48 173.494 29.2 172.054 30.64C170.614 32.04 169.894 34.08 169.894 36.76V53.5H160.294ZM202.174 53.5V43.78H200.554V33.22C200.554 31.54 200.154 30.28 199.354 29.44C198.554 28.6 197.274 28.18 195.514 28.18C194.634 28.18 193.474 28.2 192.034 28.24C190.594 28.28 189.114 28.34 187.594 28.42C186.074 28.5 184.694 28.58 183.454 28.66V20.56C184.374 20.48 185.454 20.4 186.694 20.32C187.934 20.24 189.214 20.18 190.534 20.14C191.854 20.1 193.094 20.08 194.254 20.08C197.614 20.08 200.434 20.56 202.714 21.52C205.034 22.48 206.794 23.94 207.994 25.9C209.194 27.82 209.794 30.3 209.794 33.34V53.5H202.174ZM191.674 54.34C189.314 54.34 187.234 53.92 185.434 53.08C183.674 52.24 182.294 51.04 181.294 49.48C180.294 47.88 179.794 45.98 179.794 43.78C179.794 41.38 180.414 39.42 181.654 37.9C182.894 36.34 184.634 35.2 186.874 34.48C189.114 33.72 191.694 33.34 194.614 33.34H201.634V38.68H194.554C192.874 38.68 191.574 39.1 190.654 39.94C189.774 40.74 189.334 41.84 189.334 43.24C189.334 44.56 189.774 45.64 190.654 46.48C191.574 47.28 192.874 47.68 194.554 47.68C195.634 47.68 196.594 47.5 197.434 47.14C198.314 46.74 199.034 46.08 199.594 45.16C200.154 44.24 200.474 42.96 200.554 41.32L202.834 43.72C202.634 46 202.074 47.92 201.154 49.48C200.274 51.04 199.034 52.24 197.434 53.08C195.874 53.92 193.954 54.34 191.674 54.34ZM229.699 54.64C226.859 54.64 224.379 54.18 222.259 53.26C220.179 52.3 218.439 51.02 217.039 49.42C215.639 47.82 214.599 46.02 213.919 44.02C213.239 41.98 212.899 39.88 212.899 37.72V36.58C212.899 34.34 213.259 32.2 213.979 30.16C214.699 28.08 215.759 26.24 217.159 24.64C218.559 23.04 220.299 21.78 222.379 20.86C224.499 19.94 226.919 19.48 229.639 19.48C232.599 19.48 235.219 20.06 237.499 21.22C239.779 22.34 241.599 23.92 242.959 25.96C244.319 28 245.079 30.34 245.239 32.98H235.819C235.659 31.5 235.059 30.26 234.019 29.26C233.019 28.22 231.559 27.7 229.639 27.7C228.039 27.7 226.699 28.1 225.619 28.9C224.579 29.7 223.799 30.8 223.279 32.2C222.759 33.6 222.499 35.26 222.499 37.18C222.499 38.94 222.739 40.54 223.219 41.98C223.699 43.38 224.459 44.48 225.499 45.28C226.579 46.04 227.979 46.42 229.699 46.42C230.979 46.42 232.059 46.2 232.939 45.76C233.859 45.28 234.579 44.64 235.099 43.84C235.659 43 235.999 42.04 236.119 40.96H245.479C245.359 43.68 244.599 46.08 243.199 48.16C241.799 50.2 239.939 51.8 237.619 52.96C235.299 54.08 232.659 54.64 229.699 54.64ZM268.478 53.5V43.78H266.858V33.22C266.858 31.54 266.458 30.28 265.658 29.44C264.858 28.6 263.578 28.18 261.818 28.18C260.938 28.18 259.778 28.2 258.338 28.24C256.898 28.28 255.418 28.34 253.898 28.42C252.378 28.5 250.998 28.58 249.758 28.66V20.56C250.678 20.48 251.758 20.4 252.998 20.32C254.238 20.24 255.518 20.18 256.838 20.14C258.158 20.1 259.398 20.08 260.558 20.08C263.918 20.08 266.738 20.56 269.018 21.52C271.338 22.48 273.098 23.94 274.298 25.9C275.498 27.82 276.098 30.3 276.098 33.34V53.5H268.478ZM257.978 54.34C255.618 54.34 253.538 53.92 251.738 53.08C249.978 52.24 248.598 51.04 247.598 49.48C246.598 47.88 246.098 45.98 246.098 43.78C246.098 41.38 246.718 39.42 247.958 37.9C249.198 36.34 250.938 35.2 253.178 34.48C255.418 33.72 257.998 33.34 260.918 33.34H267.938V38.68H260.858C259.178 38.68 257.878 39.1 256.958 39.94C256.078 40.74 255.638 41.84 255.638 43.24C255.638 44.56 256.078 45.64 256.958 46.48C257.878 47.28 259.178 47.68 260.858 47.68C261.938 47.68 262.898 47.5 263.738 47.14C264.618 46.74 265.338 46.08 265.898 45.16C266.458 44.24 266.778 42.96 266.858 41.32L269.138 43.72C268.938 46 268.378 47.92 267.458 49.48C266.578 51.04 265.338 52.24 263.738 53.08C262.178 53.92 260.258 54.34 257.978 54.34ZM279.083 53.5V46.78L294.503 28.3V29.26L293.063 27.46L294.143 28H279.143V20.62H305.003V27.34L289.583 45.82V44.92L291.023 46.72L289.943 46.12H305.483V53.5H279.083ZM323.97 54.64C321.09 54.64 318.53 54.2 316.29 53.32C314.05 52.4 312.15 51.16 310.59 49.6C309.07 48.04 307.91 46.26 307.11 44.26C306.31 42.22 305.91 40.08 305.91 37.84V36.46C305.91 34.18 306.31 32.02 307.11 29.98C307.95 27.9 309.15 26.08 310.71 24.52C312.31 22.96 314.23 21.74 316.47 20.86C318.71 19.94 321.21 19.48 323.97 19.48C326.81 19.48 329.33 19.94 331.53 20.86C333.77 21.74 335.67 22.96 337.23 24.52C338.79 26.08 339.99 27.9 340.83 29.98C341.67 32.02 342.09 34.18 342.09 36.46V37.84C342.09 40.08 341.69 42.22 340.89 44.26C340.09 46.26 338.91 48.04 337.35 49.6C335.83 51.16 333.95 52.4 331.71 53.32C329.47 54.2 326.89 54.64 323.97 54.64ZM323.97 46.54C325.85 46.54 327.41 46.14 328.65 45.34C329.89 44.54 330.83 43.42 331.47 41.98C332.15 40.54 332.49 38.94 332.49 37.18C332.49 35.3 332.15 33.66 331.47 32.26C330.79 30.82 329.81 29.68 328.53 28.84C327.29 28 325.77 27.58 323.97 27.58C322.21 27.58 320.69 28 319.41 28.84C318.13 29.68 317.15 30.82 316.47 32.26C315.83 33.66 315.51 35.3 315.51 37.18C315.51 38.94 315.83 40.54 316.47 41.98C317.11 43.42 318.07 44.54 319.35 45.34C320.63 46.14 322.17 46.54 323.97 46.54Z" fill="#253344"/>
</g>
<defs>
<clipPath id="clip0_201_58">
<rect width="344" height="67" fill="white"/>
</clipPath>
</defs>
</svg>
