<svg width="40" height="40" viewBox="0 0 40 40" fill="none" xmlns="http://www.w3.org/2000/svg">
<rect x="0.5" y="0.5" width="39" height="39" rx="5.5" fill="white"/>
<g clip-path="url(#clip0_363_8554)">
<path d="M9.5 11.775V19.412C9.52938 21.9355 10.3336 24.389 11.8037 26.4402C13.2738 28.4915 15.3388 30.0413 17.719 30.88L18.84 31.294C19.5889 31.569 20.4111 31.569 21.16 31.294L22.281 30.88C24.6612 30.0413 26.7262 28.4915 28.1963 26.4402C29.6664 24.389 30.4706 21.9355 30.5 19.412V11.775C30.499 11.4749 30.41 11.1818 30.2439 10.9319C30.0779 10.6819 29.8422 10.4862 29.566 10.369C26.5366 9.10516 23.2823 8.46932 20 8.5C16.7177 8.46932 13.4634 9.10516 10.434 10.369C10.1578 10.4862 9.92209 10.6819 9.75606 10.9319C9.59004 11.1818 9.501 11.4749 9.5 11.775Z" fill="#FFEF5E"/>
<path d="M20 8.5C16.7177 8.46932 13.4634 9.10516 10.434 10.369C10.1578 10.4862 9.92209 10.6819 9.75606 10.9319C9.59004 11.1818 9.501 11.4749 9.5 11.775V19.412C9.52938 21.9355 10.3336 24.389 11.8037 26.4402C13.2738 28.4915 15.3388 30.0413 17.719 30.88L18.84 31.294C19.2116 31.4302 19.6042 31.4999 20 31.5V8.5Z" fill="#FFF9BF"/>
<path d="M9.5 11.775V19.412C9.52938 21.9355 10.3336 24.389 11.8037 26.4402C13.2738 28.4915 15.3388 30.0413 17.719 30.88L18.84 31.294C19.5889 31.569 20.4111 31.569 21.16 31.294L22.281 30.88C24.6612 30.0413 26.7262 28.4915 28.1963 26.4402C29.6664 24.389 30.4706 21.9355 30.5 19.412V11.775C30.499 11.4749 30.41 11.1818 30.2439 10.9319C30.0779 10.6819 29.8422 10.4862 29.566 10.369C26.5366 9.10516 23.2823 8.46932 20 8.5C16.7177 8.46932 13.4634 9.10516 10.434 10.369C10.1578 10.4862 9.92209 10.6819 9.75606 10.9319C9.59004 11.1818 9.501 11.4749 9.5 11.775Z" stroke="#191919" stroke-linecap="round" stroke-linejoin="round"/>
<path d="M20.361 23.229C20.3143 23.2777 20.2583 23.3165 20.1963 23.3429C20.1342 23.3694 20.0675 23.3831 20 23.3831C19.9325 23.3831 19.8658 23.3694 19.8038 23.3429C19.7417 23.3165 19.6857 23.2777 19.639 23.229L15.861 19.288C15.4969 18.9247 15.2565 18.4561 15.1737 17.9485C15.091 17.4408 15.1702 16.9201 15.4 16.46C15.5736 16.113 15.8272 15.8122 16.1398 15.5824C16.4524 15.3526 16.8152 15.2003 17.1982 15.1382C17.5812 15.0761 17.9735 15.1059 18.3428 15.2251C18.712 15.3444 19.0476 15.5496 19.322 15.824L20 16.5L20.676 15.824C20.9504 15.5492 21.2861 15.3436 21.6556 15.2241C22.025 15.1047 22.4176 15.0747 22.8009 15.1369C23.1842 15.199 23.5472 15.3514 23.8601 15.5814C24.1729 15.8115 24.4265 16.1126 24.6 16.46C24.8301 16.9198 24.9096 17.4404 24.8274 17.9479C24.7452 18.4555 24.5054 18.9243 24.142 19.288L20.361 23.229Z" fill="#FF808C" stroke="#191919" stroke-linecap="round" stroke-linejoin="round"/>
</g>
<rect x="0.5" y="0.5" width="39" height="39" rx="5.5" stroke="#C8D2DD"/>
<defs>
<clipPath id="clip0_363_8554">
<rect width="24" height="24" fill="white" transform="translate(8 8)"/>
</clipPath>
</defs>
</svg>
