<svg width="51" height="62" viewBox="0 0 51 62" fill="none" xmlns="http://www.w3.org/2000/svg">
<path d="M25.207 61.5361C25.6914 61.5361 26.4785 61.3545 27.2354 60.9307C44.4609 51.2734 50.3643 47.1865 50.3643 36.1367V12.9775C50.3643 9.79883 49.002 8.7998 46.4287 7.70996C42.8564 6.22656 31.3223 2.0791 27.75 0.837891C26.9326 0.56543 26.0547 0.383789 25.207 0.383789C24.3594 0.383789 23.4814 0.625977 22.6943 0.837891C19.1221 1.86719 7.55762 6.25684 3.98535 7.70996C1.44238 8.76953 0.0498047 9.79883 0.0498047 12.9775V36.1367C0.0498047 47.1865 5.9834 51.2432 23.1787 60.9307C23.9658 61.3545 24.7227 61.5361 25.207 61.5361ZM25.207 56.0566C24.7227 56.0566 24.2383 55.875 23.3301 55.3301C9.34375 46.8535 4.86328 44.3711 4.86328 35.0166V13.916C4.86328 12.8867 5.04492 12.4932 5.89258 12.1602C10.4941 10.3438 19.4248 7.34668 23.9961 5.53027C24.4805 5.31836 24.874 5.25781 25.207 5.25781C25.54 5.25781 25.9336 5.34863 26.418 5.53027C30.9893 7.34668 39.8594 10.5557 44.5518 12.1602C45.3691 12.4629 45.5508 12.8867 45.5508 13.916V35.0166C45.5508 44.3711 41.0703 46.8232 27.084 55.3301C26.2061 55.875 25.6914 56.0566 25.207 56.0566ZM14.2783 41.4346C14.2783 43.7051 15.2773 44.7646 17.3662 44.7646H33.0479C35.1367 44.7646 36.1357 43.7051 36.1357 41.4346V29.3857C36.1357 27.2666 35.2578 26.207 33.4717 26.0859V22.5137C33.4717 16.9434 30.1416 13.2197 25.207 13.2197C20.2725 13.2197 16.9424 16.9434 16.9424 22.5137V26.0859C15.1562 26.207 14.2783 27.2666 14.2783 29.3857V41.4346ZM20.0908 26.0557V22.1807C20.0908 18.6084 22.1494 16.2773 25.207 16.2773C28.2646 16.2773 30.3232 18.6084 30.3232 22.1807V26.0557H20.0908Z" fill="black"/>
</svg>
