<svg width="400" height="400" viewBox="0 0 400 400" fill="none" xmlns="http://www.w3.org/2000/svg">
<path d="M250.484 307.559C248.377 300.984 244.692 295.026 239.75 290.204C238.214 288.935 236.529 287.857 234.733 286.995C230.973 284.811 227.582 282.145 223.756 279.891C221.448 278.556 216.918 277.369 215.071 275.458C213.29 273.567 213.484 271.406 212.355 269.039C211.967 268.201 211.808 267.302 210.885 267.473C210.447 267.566 210.05 267.797 209.753 268.132C209.456 268.466 209.275 268.888 209.236 269.334C208.58 278.584 206.419 288.28 205.146 297.328C203.299 310.793 197.824 349.31 197.099 355.111C197.076 355.363 197.105 355.618 197.183 355.859C197.261 356.1 197.387 356.323 197.553 356.515C197.719 356.706 197.923 356.862 198.151 356.972C198.379 357.083 198.627 357.147 198.88 357.159C213.011 357.415 225.97 356.605 239.645 356.201C239.861 356.187 240.07 356.123 240.258 356.015C240.445 355.908 240.605 355.759 240.726 355.579C240.847 355.4 240.925 355.196 240.955 354.982C240.985 354.768 240.966 354.55 240.898 354.344C243.808 349.704 246.196 344.062 248.769 338.958C253.553 329.134 255.266 321.136 250.484 307.559ZM236.421 319.545C231.039 333.278 218.54 345.597 214.522 350.563C214.409 350.706 214.269 350.826 214.109 350.915C213.95 351.003 213.774 351.06 213.593 351.081C213.412 351.102 213.228 351.087 213.053 351.037C212.877 350.988 212.713 350.904 212.57 350.79C212.427 350.677 212.308 350.537 212.219 350.377C212.13 350.218 212.074 350.043 212.053 349.862C212.032 349.68 212.046 349.497 212.096 349.321C212.146 349.146 212.23 348.982 212.343 348.839C224.565 332.244 241.083 314.082 233.387 295.066C233.287 294.903 233.222 294.721 233.197 294.532C233.172 294.343 233.187 294.151 233.242 293.968C233.296 293.785 233.388 293.615 233.513 293.47C233.637 293.326 233.79 293.209 233.963 293.127C234.135 293.045 234.323 293.001 234.514 292.997C234.705 292.993 234.894 293.029 235.07 293.103C235.246 293.177 235.404 293.287 235.535 293.427C235.665 293.566 235.765 293.731 235.827 293.912C240.181 302.529 239.93 310.597 236.421 319.545Z" fill="#414F97"/>
<path d="M330.487 275.72C319.76 240.154 296.666 210.32 265.776 187.593C254.747 179.579 245.658 171.81 232.796 167.192C232.523 167.099 232.234 167.063 231.946 167.087C231.659 167.11 231.379 167.193 231.125 167.33C230.871 167.467 230.649 167.655 230.471 167.882C230.293 168.109 230.164 168.37 230.092 168.649C225.121 190.309 221.567 213.764 215.712 235.339C215.605 235.766 215.636 236.216 215.802 236.625C215.967 237.033 216.259 237.377 216.634 237.609C217.009 237.84 217.448 237.946 217.887 237.91C218.326 237.875 218.743 237.701 219.076 237.413C229.217 228.743 233.564 232.411 234.16 229.812C235.681 222.887 237.729 216.089 240.286 209.477C240.48 209.054 242.11 206.326 242.308 205.907C242.901 207.05 245.284 210.918 245.877 212.101C248.516 217.7 249.977 223.935 252.813 229.408C253.077 230.004 253.113 230.161 253.783 230.235C257.691 230.775 261.481 231.966 264.996 233.758C265.297 233.904 265.631 233.972 265.966 233.953C266.301 233.935 266.625 233.832 266.909 233.653C272.054 230.421 284.984 221.997 286.369 221.126C287.023 226.258 286.175 242.606 280.564 257.493C280.461 257.77 280.425 258.067 280.458 258.361C280.492 258.654 280.595 258.935 280.759 259.181C283.795 263.185 286.499 267.399 289.335 271.494C292.876 276.538 293.314 277.314 294.348 277.382C300.283 277.759 305.746 277.285 311.564 277.247C317.349 277.21 323.182 277.592 328.979 277.472C329.206 277.501 329.437 277.473 329.651 277.391C329.865 277.31 330.056 277.176 330.205 277.002C330.354 276.828 330.458 276.62 330.508 276.396C330.557 276.173 330.549 275.94 330.487 275.72V275.72ZM257.531 220.476C257.505 220.837 257.339 221.174 257.068 221.414C256.798 221.655 256.444 221.78 256.082 221.763C255.721 221.746 255.38 221.588 255.133 221.324C254.886 221.059 254.752 220.708 254.761 220.346C254.669 217.077 253.791 208.689 253.441 206.103C252.25 196.834 251.432 195.852 250.407 184.536C250.37 184.361 250.368 184.18 250.401 184.003C250.435 183.827 250.503 183.66 250.603 183.51C250.702 183.361 250.83 183.233 250.98 183.135C251.129 183.036 251.297 182.968 251.473 182.935C251.65 182.902 251.831 182.905 252.006 182.943C252.181 182.981 252.347 183.054 252.493 183.157C252.64 183.261 252.764 183.392 252.859 183.544C252.954 183.697 253.017 183.866 253.046 184.043C256.454 196.209 258.86 208.501 257.531 220.476Z" fill="#414F97"/>
<path d="M194.995 246.017L191.038 250.365C190.661 250.819 190.124 251.111 189.538 251.18C188.952 251.25 188.362 251.092 187.889 250.739C187.416 250.386 187.097 249.865 186.997 249.284C186.897 248.702 187.024 248.104 187.352 247.614L191.969 240.085C192.432 239.471 193.102 239.047 193.855 238.893C194.608 238.738 195.391 238.863 196.058 239.245C205.592 243.999 214.706 249.554 223.302 255.847C223.821 256.145 224.201 256.636 224.358 257.214C224.515 257.791 224.436 258.408 224.139 258.927C223.842 259.446 223.35 259.826 222.772 259.983C222.195 260.14 221.579 260.061 221.059 259.764C212.004 255.914 203.286 251.316 194.995 246.017V246.017Z" fill="#191919"/>
<path d="M202.986 246.011C201.539 246.834 200.307 247.987 199.39 249.377C198.473 250.767 197.897 252.353 197.709 254.008C197.541 254.258 197.424 254.54 197.366 254.836C197.308 255.132 197.31 255.437 197.372 255.732C197.433 256.028 197.553 256.308 197.724 256.556C197.895 256.805 198.115 257.017 198.369 257.179C198.876 257.511 199.493 257.629 200.087 257.506C200.68 257.384 201.201 257.031 201.535 256.526C202.322 256.16 203.037 255.655 203.645 255.036C204.701 253.829 205.589 252.484 206.284 251.039C206.556 250.212 206.734 249.357 206.814 248.49C207.137 247.988 207.249 247.377 207.125 246.792C207.002 246.207 206.652 245.695 206.152 245.367C205.645 245.039 205.029 244.923 204.438 245.043C203.846 245.164 203.325 245.511 202.986 246.011V246.011Z" fill="#191919"/>
<path d="M257.134 258.154C254.901 258.108 252.682 258.509 250.607 259.333C248.532 260.158 246.643 261.389 245.051 262.955C243.458 264.521 242.196 266.389 241.337 268.45C240.478 270.511 240.039 272.723 240.048 274.956C239.941 277.267 240.303 279.575 241.113 281.741C241.924 283.907 243.165 285.887 244.762 287.56C246.359 289.233 248.278 290.564 250.405 291.474C252.531 292.384 254.82 292.853 257.133 292.853C259.446 292.853 261.734 292.384 263.861 291.474C265.987 290.564 267.907 289.233 269.504 287.56C271.101 285.887 272.342 283.907 273.152 281.741C273.962 279.575 274.325 277.267 274.217 274.956C274.231 272.724 273.796 270.511 272.939 268.45C272.081 266.389 270.818 264.521 269.224 262.957C267.631 261.393 265.74 260.165 263.663 259.346C261.586 258.527 259.366 258.133 257.134 258.189V258.154ZM257.134 262.699C260.15 262.96 262.947 264.386 264.929 266.674C266.912 268.962 267.925 271.933 267.753 274.956C267.821 276.393 267.596 277.828 267.092 279.175C266.589 280.522 265.818 281.753 264.825 282.793C263.832 283.833 262.639 284.661 261.317 285.227C259.995 285.793 258.572 286.085 257.134 286.085C255.696 286.085 254.273 285.793 252.951 285.227C251.629 284.661 250.435 283.833 249.443 282.793C248.45 281.753 247.678 280.522 247.175 279.175C246.672 277.828 246.447 276.393 246.514 274.956C246.334 271.935 247.345 268.963 249.331 266.679C251.316 264.394 254.117 262.978 257.134 262.734V262.699Z" fill="#191919"/>
<path d="M191.04 243.379L187.083 247.726C186.706 248.18 186.169 248.472 185.583 248.542C184.997 248.611 184.407 248.453 183.934 248.101C183.461 247.748 183.142 247.227 183.042 246.645C182.942 246.064 183.069 245.466 183.397 244.975L188.014 237.446C188.477 236.833 189.147 236.409 189.9 236.254C190.653 236.099 191.436 236.225 192.103 236.606C201.637 241.361 210.751 246.915 219.347 253.209C219.613 253.351 219.848 253.546 220.038 253.781C220.228 254.016 220.369 254.286 220.452 254.577C220.535 254.867 220.56 255.171 220.523 255.471C220.487 255.771 220.391 256.06 220.241 256.322C220.09 256.585 219.889 256.814 219.649 256.997C219.408 257.18 219.134 257.312 218.841 257.387C218.549 257.462 218.244 257.478 217.945 257.433C217.646 257.388 217.36 257.283 217.102 257.125C208.048 253.276 199.33 248.678 191.04 243.379V243.379Z" fill="#414F97"/>
<path d="M199.031 243.372C197.584 244.196 196.351 245.349 195.434 246.739C194.517 248.128 193.942 249.715 193.754 251.369C193.586 251.62 193.469 251.901 193.411 252.197C193.353 252.493 193.355 252.798 193.417 253.094C193.478 253.389 193.598 253.669 193.769 253.918C193.94 254.166 194.159 254.378 194.414 254.541C194.921 254.873 195.538 254.99 196.132 254.868C196.725 254.745 197.246 254.393 197.58 253.887C198.367 253.522 199.082 253.017 199.69 252.397C200.746 251.19 201.634 249.846 202.329 248.401C202.601 247.574 202.779 246.719 202.857 245.852C203.18 245.349 203.293 244.739 203.169 244.154C203.046 243.569 202.696 243.057 202.197 242.728C201.69 242.401 201.074 242.285 200.483 242.405C199.891 242.525 199.37 242.873 199.031 243.372V243.372Z" fill="#414F97"/>
<path d="M232.399 265.695C232.586 266.329 232.925 266.908 233.388 267.38C233.796 267.77 234.263 268.091 234.774 268.331C235.264 268.683 235.823 268.927 236.414 269.047C237.005 269.167 237.615 269.16 238.204 269.028C238.731 269.325 239.354 269.401 239.937 269.238C240.52 269.076 241.015 268.688 241.312 268.161C241.61 267.634 241.686 267.011 241.523 266.428C241.361 265.845 240.973 265.35 240.446 265.053C240.072 263.244 237.305 261.892 236.621 261.745C235.973 261.554 235.283 261.566 234.642 261.778C234.122 261.48 233.506 261.402 232.928 261.559C232.351 261.716 231.859 262.095 231.562 262.615C231.265 263.134 231.186 263.751 231.343 264.328C231.5 264.906 231.88 265.397 232.399 265.695V265.695Z" fill="#414F97"/>
<path d="M253.179 255.515C250.947 255.469 248.728 255.87 246.652 256.695C244.577 257.519 242.688 258.751 241.096 260.316C239.504 261.882 238.241 263.75 237.382 265.811C236.523 267.873 236.085 270.085 236.094 272.318C235.986 274.628 236.349 276.936 237.159 279.102C237.969 281.269 239.21 283.248 240.807 284.921C242.404 286.594 244.324 287.926 246.45 288.836C248.577 289.745 250.865 290.214 253.178 290.214C255.491 290.214 257.78 289.745 259.906 288.836C262.033 287.926 263.952 286.594 265.549 284.921C267.146 283.248 268.388 281.269 269.198 279.102C270.008 276.936 270.37 274.628 270.263 272.318C270.277 270.085 269.842 267.873 268.984 265.811C268.126 263.75 266.863 261.882 265.27 260.318C263.677 258.754 261.785 257.526 259.708 256.707C257.631 255.888 255.411 255.495 253.179 255.55V255.515ZM253.179 260.061C256.196 260.321 258.992 261.747 260.975 264.035C262.957 266.324 263.97 269.295 263.799 272.318C263.863 273.752 263.636 275.185 263.131 276.53C262.627 277.874 261.855 279.103 260.862 280.141C259.87 281.179 258.677 282.005 257.356 282.57C256.036 283.134 254.614 283.425 253.178 283.425C251.742 283.425 250.321 283.134 249 282.57C247.679 282.005 246.487 281.179 245.494 280.141C244.502 279.103 243.73 277.874 243.225 276.53C242.72 275.185 242.493 273.752 242.558 272.318C242.379 269.296 243.391 266.325 245.376 264.04C247.361 261.756 250.162 260.34 253.179 260.096V260.061Z" fill="#414F97"/>
<path d="M189.458 101.448C188.446 103.732 187.608 106.089 186.949 108.498C185.754 112.038 184.828 115.663 184.181 119.343C184.073 119.689 184.104 120.063 184.266 120.386C184.428 120.71 184.709 120.958 185.05 121.079C185.392 121.2 185.766 121.184 186.096 121.035C186.426 120.885 186.685 120.614 186.819 120.278C188.358 117.494 189.532 114.522 190.311 111.438C191.357 108.426 191.979 105.283 192.158 102.1C192.223 101.75 192.151 101.388 191.958 101.09C191.764 100.791 191.463 100.578 191.117 100.494C190.771 100.41 190.406 100.463 190.097 100.64C189.788 100.818 189.559 101.107 189.458 101.448V101.448Z" fill="#191919"/>
<path d="M173.095 121.236C173.682 123.404 174.669 125.444 176.005 127.25C177.289 128.75 179.026 129.792 180.954 130.218C182.883 130.644 184.897 130.43 186.693 129.609C188.462 128.873 190.108 127.871 191.574 126.639C191.89 126.446 192.117 126.136 192.204 125.777C192.292 125.417 192.233 125.037 192.04 124.721C191.848 124.405 191.538 124.178 191.178 124.091C190.819 124.003 190.439 124.062 190.123 124.254C180.174 128.734 179.418 125.248 175.478 119.953C175.394 119.794 175.28 119.653 175.142 119.538C175.004 119.423 174.844 119.337 174.673 119.285C174.501 119.232 174.32 119.214 174.141 119.231C173.963 119.249 173.789 119.302 173.631 119.387C173.47 119.469 173.329 119.584 173.214 119.723C173.099 119.862 173.014 120.023 172.964 120.196C172.914 120.369 172.9 120.551 172.922 120.729C172.945 120.908 173.004 121.081 173.095 121.236Z" fill="#191919"/>
<path d="M374.684 201.839C379.34 195.195 387.319 191.062 390.514 182.707C393.981 173.519 387.593 166.905 378.312 168.933C371.135 170.841 364.913 175.325 360.83 181.527C350.409 196.077 346.546 209.314 352.651 226.372C357.065 238.497 369.384 252.599 362.413 265.506C354.944 279.563 309.645 273.701 294.735 274.511C289.396 266.662 287.029 263.341 283.585 257.373C289.19 244.763 290.315 231.853 290.315 218.114C290.318 217.766 290.227 217.424 290.052 217.124C289.877 216.824 289.625 216.576 289.322 216.407C289.018 216.237 288.675 216.152 288.328 216.161C287.98 216.169 287.642 216.271 287.347 216.455C280.07 220.985 272.991 225.297 265.71 230.7C262.468 228.965 258.974 227.749 255.354 227.096C249.56 214.305 247.839 211.207 244.403 203.606C244.271 203.321 244.063 203.077 243.801 202.903C243.539 202.729 243.234 202.631 242.919 202.62C242.605 202.608 242.294 202.684 242.02 202.839C241.746 202.994 241.521 203.222 241.369 203.498C237.36 211.36 234.134 219.597 231.739 228.091C227.605 228.854 223.678 230.477 220.212 232.855C216.746 235.233 213.819 238.312 211.619 241.894C211.43 242.199 211.365 242.565 211.437 242.917C211.509 243.269 211.713 243.579 212.007 243.786C212.159 243.886 212.329 243.955 212.508 243.988C212.686 244.022 212.87 244.02 213.048 243.983C213.226 243.945 213.394 243.873 213.544 243.77C213.694 243.667 213.821 243.535 213.92 243.382C216.101 240.073 218.901 237.217 222.167 234.972C229.927 229.76 233.807 232.128 234.304 229.899C236.538 222.427 239.361 215.144 242.746 208.119C245.87 215.002 249.635 222.562 252.378 229.379C253.104 230.931 254.328 230.13 259.568 231.971C265.051 233.911 265.245 235.603 266.956 234.406C272.948 229.944 280.002 225.503 286.356 221.602C286.016 250.438 277.903 255.626 279.566 258.462C283.5 265.364 287.04 270.424 292.1 277.763C292.301 278.061 292.579 278.3 292.904 278.454C293.228 278.609 293.589 278.673 293.947 278.642C309.694 277.284 356.851 284.77 366.045 267.442C374.088 252.539 361.302 238.004 356.539 224.977C350.752 209.345 354.486 197.35 364.058 183.861C375.378 168.399 391.133 169.967 386.883 181.325C382.258 193.404 362.245 198.238 369.599 219.59C371.776 225.843 375.807 231.573 378.24 237.715C384.981 254.531 377.223 279.231 360.695 288.072C360.413 288.222 360.192 288.464 360.068 288.758C359.944 289.051 359.924 289.378 360.013 289.685C360.102 289.991 360.293 290.257 360.555 290.439C360.817 290.621 361.133 290.707 361.451 290.683C369.166 297.815 367.339 312.887 369.665 320.154C372.325 328.335 376.665 330.987 374.152 341.121C372.863 345.222 371.275 349.223 369.401 353.091C365.023 362.906 360.629 371.7 349.877 370.7C347.33 370.458 343.873 370.119 343.873 367.435C343.873 363.965 348.141 363.026 351.196 360.389C353.972 357.289 355.783 353.446 356.407 349.331C358.242 337.142 348.587 338.661 344.4 336.362C340.485 334.191 337.171 331.082 334.753 327.313C332.336 323.545 330.891 319.236 330.549 314.772C330.564 314.584 330.539 314.395 330.477 314.216C330.415 314.038 330.316 313.875 330.187 313.737C330.058 313.599 329.902 313.489 329.728 313.415C329.555 313.341 329.367 313.304 329.179 313.306C328.99 313.309 328.804 313.35 328.632 313.429C328.46 313.507 328.306 313.62 328.181 313.761C328.055 313.902 327.96 314.068 327.903 314.248C327.845 314.428 327.825 314.617 327.845 314.805C327.921 319.507 329.203 324.111 331.567 328.176C321.266 327.982 326.393 328.37 304.681 328.455C304.782 328.133 304.761 327.784 304.621 327.477C304.481 327.169 304.233 326.924 303.924 326.788C303.614 326.652 303.266 326.635 302.945 326.741C302.624 326.846 302.353 327.066 302.184 327.359C299.856 330.851 282.728 361.79 277.579 368.256C272.368 374.672 264.992 374.778 256.934 374.361C254.088 374.218 249.812 373.215 249.412 370.406C248.919 367.441 253.071 365.515 255.878 363.81C259.333 361.808 260.88 360.591 263.793 355.115C265.245 352.371 266.432 349.421 267.685 346.84C273.462 335.129 278.646 324.901 270.389 314.72C270.281 314.573 270.143 314.449 269.985 314.356C269.827 314.263 269.652 314.203 269.47 314.18C269.288 314.157 269.104 314.171 268.927 314.221C268.751 314.271 268.587 314.356 268.444 314.471C268.301 314.586 268.184 314.729 268.098 314.891C268.012 315.053 267.96 315.23 267.944 315.413C267.929 315.595 267.951 315.779 268.008 315.953C268.065 316.127 268.158 316.288 268.279 316.425C275.148 325.516 269.637 335.049 264.255 345.098C263.002 347.64 261.749 350.544 260.298 353.246C257.469 358.449 256.474 358.81 252.844 360.902C248.533 363.35 244.566 366.122 245.323 371.034C245.478 371.955 245.807 372.838 246.293 373.636C241.649 373.853 236.995 373.604 232.4 372.891C231.257 372.736 230.199 372.2 229.397 371.37C228.595 370.54 228.097 369.464 227.981 368.316C227.787 365.546 235.898 362.618 238.069 359.45C244.262 350.961 254.39 332.839 255.023 322.356C255.583 315.634 250.056 298.637 240.312 289.145C229.593 278.692 212.257 280.333 211.749 260.97C211.767 260.782 211.745 260.592 211.685 260.413C211.625 260.234 211.528 260.069 211.401 259.93C211.273 259.79 211.118 259.679 210.945 259.602C210.773 259.526 210.586 259.487 210.397 259.487C210.208 259.487 210.021 259.526 209.848 259.602C209.675 259.679 209.52 259.79 209.393 259.93C209.266 260.069 209.169 260.234 209.109 260.413C209.049 260.592 209.027 260.782 209.045 260.97C208.533 282.37 227.709 282.285 237.541 291.985C245.955 300.42 251.271 315.622 250.927 322.072C250.276 331.545 240.645 349.198 234.965 357.186C233.025 359.902 223.959 363.006 224.477 368.632C225.672 378.763 238.849 376.528 249.234 376.447C251.528 377.671 254.069 378.36 256.668 378.462C273.753 379.308 278.435 375.304 285.165 364.248C287.723 359.98 299.908 337.476 303.154 331.371C306.77 332.159 310.465 332.532 314.166 332.484C313.242 333.724 315.32 336.725 316.3 337.916C319.958 342.303 326.033 344.433 326.919 349.168C327.542 352.466 325.255 357.811 322.698 360.203C320.344 362.384 316.445 363.573 315.838 367.889C315.219 375.093 329.334 377.298 335.758 370.984C337.188 369.767 335.259 367.67 333.977 368.896C332.376 370.02 330.537 370.758 328.603 371.054C326.669 371.351 324.694 371.196 322.83 370.603C321.957 370.336 319.726 369.267 319.861 368.369C320.028 366.355 323.705 364.832 325.468 363.197C329.018 359.899 331.814 353.264 330.877 348.385C329.753 343.253 325.681 340.982 321.642 338.248C316.629 334.721 316.948 333.243 316.367 332.486C318.866 332.455 323.022 332.269 325.468 332.001C326.409 331.899 332.84 331.031 333.253 330.837C335.719 334.364 338.913 337.321 342.618 339.509C345.007 340.496 347.453 341.342 349.941 342.043C350.724 342.227 351.419 342.674 351.911 343.31C352.404 343.946 352.663 344.731 352.645 345.535C352.749 349.863 351.272 354.081 348.49 357.398C346.73 358.985 343.875 359.99 342.222 361.809C341.394 362.525 340.742 363.422 340.319 364.431C339.896 365.44 339.712 366.534 339.782 367.626C339.853 368.718 340.175 369.778 340.724 370.725C341.273 371.671 342.034 372.478 342.947 373.081C344.968 374.136 347.201 374.718 349.479 374.782C362.283 375.979 368.024 366.44 373.093 354.736C376.096 347.975 379.99 339.882 378.568 332.566C377.441 326.598 373.159 321.397 372.36 315.831C371.103 306.981 370.73 295.898 364.088 289.341C380.597 279.096 388.194 254.163 381.398 236.484C377.316 225.629 366.466 213.652 374.684 201.839Z" fill="#191919"/>
<path d="M344.335 343.172C343.185 346.454 342.367 349.843 341.893 353.289C341.761 354.189 341.761 355.052 341.699 355.946C341.644 356.122 341.624 356.306 341.642 356.489C341.66 356.672 341.714 356.849 341.802 357.011C341.889 357.172 342.008 357.315 342.152 357.429C342.296 357.544 342.461 357.628 342.638 357.678C342.814 357.727 342.999 357.741 343.182 357.717C343.364 357.694 343.54 357.634 343.698 357.542C343.857 357.449 343.995 357.326 344.105 357.179C344.215 357.032 344.295 356.864 344.339 356.686C346.024 353.696 346.995 350.357 347.175 346.929C347.212 345.775 347.168 344.619 347.043 343.47C347.083 343.111 346.978 342.751 346.752 342.469C346.526 342.187 346.198 342.006 345.839 341.967C345.479 341.927 345.119 342.032 344.837 342.258C344.555 342.484 344.375 342.812 344.335 343.172V343.172Z" fill="#191919"/>
<path d="M245.979 249.026C246.734 249.476 247.755 249.408 248.819 248.838C249.883 248.267 250.903 247.24 251.653 245.983C252.404 244.726 252.825 243.341 252.822 242.134C252.82 240.926 252.395 239.995 251.641 239.545C250.887 239.094 249.865 239.162 248.801 239.733C247.737 240.303 246.718 241.33 245.967 242.587C245.216 243.845 244.796 245.229 244.798 246.437C244.8 247.644 245.225 248.575 245.979 249.026Z" fill="#191919"/>
<path d="M227.819 243.417C228.573 243.867 229.595 243.8 230.659 243.229C231.723 242.658 232.742 241.632 233.493 240.374C234.244 239.117 234.664 237.732 234.662 236.525C234.66 235.318 234.235 234.386 233.481 233.936C232.727 233.486 231.705 233.553 230.641 234.124C229.577 234.695 228.557 235.721 227.807 236.979C227.056 238.236 226.636 239.621 226.638 240.828C226.64 242.035 227.065 242.967 227.819 243.417V243.417Z" fill="#191919"/>
<path d="M224.481 260.049C218.741 261.054 214.812 255.84 218.939 249.921C219.036 249.767 219.163 249.633 219.312 249.529C219.461 249.424 219.629 249.349 219.807 249.31C219.985 249.27 220.169 249.266 220.349 249.298C220.528 249.329 220.7 249.396 220.853 249.494C221.145 249.7 221.347 250.01 221.419 250.36C221.491 250.71 221.428 251.074 221.241 251.379C220.902 252.109 220.722 252.903 220.714 253.707C220.44 256.251 223.294 256.742 225.199 255.475C225.531 255.262 225.918 255.148 226.312 255.147C226.707 255.147 227.094 255.259 227.427 255.471C227.76 255.684 228.025 255.987 228.191 256.345C228.358 256.703 228.418 257.101 228.365 257.492C228.027 259.432 229.275 262.03 231.333 261.782C232.205 261.603 233.03 261.246 233.756 260.733C234.483 260.22 235.095 259.562 235.555 258.8C235.726 258.482 236.016 258.244 236.361 258.138C236.706 258.032 237.079 258.065 237.4 258.232C237.72 258.399 237.963 258.685 238.074 259.028C238.185 259.372 238.157 259.746 237.995 260.069C237.487 261.384 236.682 262.565 235.644 263.519C234.606 264.473 233.362 265.176 232.008 265.573C231.15 265.72 230.27 265.694 229.422 265.494C228.573 265.294 227.774 264.925 227.071 264.41C226.369 263.894 225.777 263.243 225.332 262.493C224.887 261.744 224.598 260.913 224.481 260.049V260.049Z" fill="#191919"/>
<path d="M158.452 239.836C162.019 235.534 165.923 231.523 170.127 227.841C172.924 225.512 176.032 223.584 179.361 222.111C179.704 221.997 179.99 221.754 180.157 221.434C180.324 221.113 180.36 220.741 180.257 220.394C180.154 220.048 179.921 219.755 179.606 219.578C179.291 219.401 178.919 219.353 178.57 219.445C173.555 220.502 168.952 222.983 165.312 226.59C161.561 229.896 158.452 233.867 156.143 238.302C155.957 238.608 155.896 238.974 155.973 239.324C156.051 239.674 156.261 239.981 156.56 240.179C156.858 240.378 157.222 240.453 157.575 240.389C157.928 240.325 158.242 240.127 158.452 239.836V239.836Z" fill="#191919"/>
<path d="M171.843 240.604C175.225 237.398 178.797 234.399 182.54 231.622C185.05 229.93 187.751 228.54 190.587 227.48C190.932 227.395 191.231 227.18 191.422 226.881C191.613 226.581 191.682 226.22 191.614 225.871C191.546 225.522 191.347 225.213 191.058 225.007C190.768 224.801 190.411 224.714 190.059 224.764C185.729 225.198 181.623 226.896 178.25 229.645C174.804 232.106 171.906 235.256 169.741 238.895C169.546 239.176 169.464 239.521 169.511 239.86C169.559 240.199 169.733 240.508 169.999 240.724C170.265 240.941 170.603 241.048 170.944 241.026C171.286 241.004 171.607 240.853 171.843 240.604V240.604Z" fill="#191919"/>
<path d="M180.682 252.254C179.614 252.954 178.6 253.732 177.648 254.582C175.829 256.368 174.194 258.33 172.767 260.441C172.11 261.557 171.537 262.719 171.052 263.919C169.971 265.431 172.41 266.979 173.36 265.417C176.852 262 179.97 258.22 182.661 254.142C183.856 252.916 181.974 250.923 180.682 252.254Z" fill="#191919"/>
<path d="M140.575 276.348C147.966 270.034 163.139 266.838 169.599 273.72C169.717 273.858 169.862 273.972 170.024 274.055C170.186 274.138 170.364 274.188 170.545 274.202C170.727 274.216 170.91 274.195 171.083 274.138C171.256 274.082 171.417 273.992 171.555 273.874C171.694 273.755 171.808 273.611 171.891 273.449C171.973 273.286 172.023 273.109 172.038 272.928C172.052 272.746 172.03 272.563 171.974 272.39C171.918 272.216 171.828 272.056 171.71 271.917C164.225 261.734 146.577 264.995 138.596 274.439C138.343 274.702 138.204 275.054 138.211 275.419C138.217 275.783 138.368 276.13 138.631 276.383C138.893 276.636 139.245 276.775 139.61 276.768C139.974 276.762 140.321 276.611 140.575 276.348V276.348Z" fill="#191919"/>
<path d="M177.845 192.444C187.254 182.055 197.323 172.284 207.991 163.193C212.703 159.109 219.802 164.574 224.869 166.491C225.214 166.622 225.493 166.885 225.644 167.222C225.795 167.558 225.806 167.941 225.675 168.286C225.544 168.631 225.281 168.91 224.944 169.061C224.608 169.212 224.225 169.223 223.88 169.092C219.645 167.585 212.822 163.369 210.3 165.752C199.913 175.533 188.876 186.046 179.626 196.598C179.289 196.993 178.811 197.241 178.294 197.29C177.777 197.339 177.261 197.184 176.856 196.86C165.478 187.936 153.535 174.988 143.808 166.869C142.819 166.993 130.672 168.877 125.603 169.634C125.426 169.659 125.245 169.649 125.072 169.605C124.898 169.561 124.735 169.483 124.591 169.375C124.448 169.268 124.327 169.133 124.236 168.979C124.144 168.825 124.084 168.655 124.059 168.477C124.033 168.3 124.043 168.119 124.087 167.946C124.132 167.772 124.21 167.609 124.317 167.466C124.424 167.322 124.559 167.201 124.713 167.11C124.867 167.019 125.038 166.959 125.215 166.933C129.646 166.198 133.986 165.111 138.341 164.246C144.549 163.01 144.706 163.008 145.465 163.598C156.992 172.561 166.145 182.973 177.845 192.444Z" fill="#191919"/>
<path d="M134.308 173.81C137.183 181.832 141.327 205.865 160.11 208.489C163.069 208.9 166.082 208.602 168.903 207.62C171.724 206.639 174.271 205.002 176.336 202.844C176.477 202.726 176.593 202.582 176.676 202.418C176.76 202.254 176.809 202.076 176.821 201.893C176.834 201.709 176.809 201.526 176.748 201.352C176.687 201.179 176.592 201.02 176.468 200.885C176.215 200.615 175.865 200.455 175.495 200.44C175.125 200.425 174.764 200.556 174.489 200.805C172.619 202.422 170.409 203.601 168.024 204.253C165.639 204.906 163.137 205.016 160.704 204.576C152.822 203.218 147.865 197.472 144.344 190.347C142.557 186.73 137.335 173.915 136.89 172.819C136.759 172.476 136.497 172.2 136.162 172.051C135.827 171.902 135.446 171.892 135.104 172.023C134.761 172.155 134.485 172.417 134.336 172.752C134.187 173.087 134.177 173.468 134.308 173.81Z" fill="#191919"/>
<path d="M182.733 201.367C185.189 203.364 188.012 204.86 191.044 205.769C198.007 207.569 204.042 204.304 208.589 198.698C214.772 191.074 217.216 182.208 219.738 173.701C219.844 173.354 219.81 172.98 219.645 172.658C219.48 172.336 219.195 172.09 218.852 171.974C218.509 171.857 218.134 171.879 217.807 172.034C217.48 172.189 217.225 172.465 217.098 172.805C214.694 179.344 209.881 190.688 205.423 196.098C198.998 203.899 192.425 203.971 184.184 199.063C184.033 198.967 183.864 198.903 183.688 198.873C183.512 198.842 183.331 198.847 183.157 198.887C182.982 198.927 182.817 199 182.671 199.104C182.526 199.207 182.401 199.338 182.306 199.489C182.211 199.641 182.146 199.809 182.116 199.986C182.086 200.162 182.091 200.342 182.131 200.517C182.17 200.691 182.244 200.856 182.347 201.002C182.45 201.148 182.582 201.272 182.733 201.367V201.367Z" fill="#191919"/>
<path d="M179.164 205.358C178.842 206.94 178.797 208.566 179.032 210.164C179.156 212.523 179.577 214.857 180.285 217.111C180.317 217.483 180.493 217.828 180.777 218.071C181.061 218.314 181.429 218.435 181.802 218.409C181.981 218.396 182.156 218.347 182.317 218.266C182.477 218.185 182.62 218.073 182.737 217.936C182.854 217.799 182.942 217.64 182.997 217.469C183.052 217.298 183.073 217.117 183.057 216.938C183.232 215.929 183.343 214.91 183.387 213.887C183.357 211.893 183.158 209.905 182.791 207.944C182.55 206.968 182.242 206.009 181.87 205.075C181.832 204.716 181.654 204.387 181.373 204.16C181.093 203.933 180.734 203.826 180.375 203.864C180.016 203.901 179.687 204.08 179.46 204.36C179.233 204.64 179.126 204.999 179.164 205.358V205.358Z" fill="#191919"/>
<path d="M184.574 284.935C184.574 287.603 184.31 343.597 184.244 348.924C184.238 349.29 184.372 349.643 184.616 349.914C184.861 350.185 185.199 350.353 185.563 350.385C185.746 350.401 185.929 350.378 186.103 350.32C186.277 350.261 186.437 350.168 186.573 350.045C186.709 349.922 186.818 349.773 186.894 349.606C186.97 349.439 187.011 349.259 187.014 349.076C189.239 327.716 189.327 306.188 187.276 284.811C187.284 284.623 187.253 284.435 187.184 284.259C187.116 284.084 187.012 283.924 186.878 283.791C186.745 283.658 186.585 283.554 186.409 283.486C186.233 283.418 186.045 283.388 185.857 283.396C185.669 283.405 185.484 283.453 185.315 283.537C185.147 283.62 184.997 283.738 184.876 283.883C184.756 284.028 184.666 284.196 184.614 284.377C184.562 284.559 184.548 284.749 184.574 284.935V284.935Z" fill="#191919"/>
<path d="M174.195 99.763C175.044 99.9732 176.017 99.5341 176.9 98.5421C177.783 97.55 178.504 96.0865 178.903 94.4733C179.302 92.8601 179.348 91.2295 179.03 89.9401C178.713 88.6508 178.057 87.8083 177.208 87.5981C176.359 87.3878 175.386 87.827 174.503 88.819C173.62 89.811 172.9 91.2746 172.5 92.8878C172.101 94.5009 172.055 96.1315 172.373 97.4209C172.691 98.7103 173.346 99.5527 174.195 99.763V99.763Z" fill="#191919"/>
<path d="M200.877 105.104C201.726 105.314 202.699 104.875 203.581 103.883C204.464 102.891 205.185 101.428 205.584 99.8145C205.984 98.2013 206.029 96.5707 205.712 95.2813C205.394 93.992 204.738 93.1495 203.889 92.9392C203.04 92.729 202.067 93.1682 201.184 94.1602C200.301 95.1522 199.581 96.6158 199.182 98.2289C198.782 99.8421 198.736 101.473 199.054 102.762C199.372 104.051 200.028 104.894 200.877 105.104V105.104Z" fill="#191919"/>
<path d="M156.934 357.045C155.365 336.989 151.599 312.332 148.951 289.921C148.921 289.63 148.814 289.352 148.641 289.116C148.468 288.88 148.235 288.694 147.967 288.577C147.699 288.46 147.404 288.417 147.113 288.451C146.823 288.486 146.546 288.596 146.313 288.773C141.833 292.051 137.362 296.108 132.989 299.724C132.661 299.423 132.335 299.115 132.019 298.804C133.431 300.762 134.838 302.597 136.223 304.25C136.452 304.362 135.738 303.744 144.342 311.556C144.653 311.863 144.844 312.271 144.88 312.707C144.916 313.143 144.793 313.577 144.536 313.93C141.593 318.173 130.116 330.985 127.314 333.949C127.596 338.142 128.024 341.461 132.267 352.073C132.358 352.231 132.417 352.406 132.439 352.587C132.462 352.768 132.448 352.952 132.399 353.127C132.35 353.303 132.266 353.467 132.153 353.61C132.04 353.753 131.899 353.872 131.739 353.96C131.584 354.05 131.412 354.108 131.233 354.129C131.055 354.15 130.874 354.136 130.701 354.085C130.529 354.035 130.368 353.951 130.229 353.837C130.09 353.723 129.976 353.582 129.892 353.423C128.769 351.933 127.755 350.364 126.858 348.728C125.092 345.317 124.058 341.574 123.824 337.74C123.795 337.486 124.129 337.296 121.713 339.657C116.5 344.657 110.994 349.342 105.223 353.687C105.086 353.819 104.922 353.921 104.743 353.987C104.564 354.053 104.373 354.082 104.183 354.071C103.992 354.06 103.806 354.01 103.635 353.925C103.465 353.839 103.314 353.719 103.191 353.573C103.069 353.426 102.978 353.256 102.925 353.073C102.871 352.89 102.855 352.698 102.879 352.508C102.902 352.319 102.964 352.136 103.061 351.972C103.158 351.808 103.288 351.665 103.443 351.553C107.251 348.284 115.678 340.02 119.203 336.477C104.502 328.993 95.4653 312.964 88.2058 297.838C85.4374 291.906 81.7417 284.966 81.3867 277.296C65.7852 286.043 59.0767 289.188 50.368 293.351C50.0421 293.508 49.6669 293.53 49.3251 293.411C48.9833 293.292 48.7028 293.042 48.5454 292.716C48.388 292.39 48.3664 292.015 48.4856 291.673C48.6047 291.331 48.8548 291.05 49.1807 290.893C59.1523 286.062 82.7175 271.299 102.418 261.064C91.9422 249.695 90.8306 228.027 91.9655 212.606C92.6496 203.768 94.0615 195.001 96.1869 186.395C96.216 186.217 96.2803 186.047 96.3762 185.895C96.4721 185.743 96.5976 185.611 96.7452 185.509C96.8928 185.406 97.0596 185.334 97.2356 185.296C97.4116 185.259 97.5933 185.258 97.77 185.292C97.9466 185.326 98.1145 185.396 98.2638 185.496C98.4131 185.596 98.5408 185.726 98.6392 185.876C98.7376 186.027 98.8048 186.196 98.8368 186.373C98.8688 186.55 98.8649 186.732 98.8253 186.907C95.7058 207.062 91.8103 244.081 105.012 259.591C106.781 258.584 107.282 258.132 108.351 258.538C108.646 258.648 108.913 258.824 109.13 259.052C109.347 259.281 109.509 259.556 109.604 259.857C111.926 265.291 114.595 270.569 117.595 275.66C120.974 273.3 124.51 271.173 128.178 269.293C130.443 268.249 128.288 265.436 131.088 256.388C133.794 247.775 137.006 246.783 136.562 244.975C132.49 217.284 125.681 191.934 120.922 164.944C120.87 164.639 120.748 164.349 120.566 164.098C120.384 163.848 120.147 163.642 119.872 163.498C119.598 163.354 119.294 163.274 118.984 163.267C118.674 163.259 118.367 163.322 118.086 163.452C66.7377 187.208 18.5869 233.355 9.63966 289.225C2.26766 335.614 32.423 381.435 80.4846 367.667C87.7566 365.771 94.7126 362.823 101.132 358.915C109.625 360.312 107.437 358.754 154.563 358.964C155.075 358.835 155.552 358.597 155.962 358.266C156.372 357.935 156.705 357.518 156.938 357.045H156.934Z" fill="#414F97"/>
<path d="M84.2324 275.691C84.5642 282.516 88.7914 289.706 91.8314 296.073C98.4274 309.511 107.912 326.643 121.319 334.314C126.967 328.533 140.537 313.147 140.702 312.949L136.077 307.967C133.421 307.327 115.736 283.442 106.626 263.386C106.572 263.421 96.2255 268.95 84.2324 275.691Z" fill="#414F97"/>
<path d="M125.669 266.627C125.206 253.163 135.067 242.66 143.347 232.399C149.126 225.239 153.563 219.879 161.356 216.261C161.688 216.103 162.07 216.084 162.416 216.208C162.763 216.332 163.046 216.589 163.204 216.921C163.361 217.254 163.38 217.635 163.256 217.982C163.132 218.328 162.876 218.612 162.543 218.769C157.623 221.268 153.361 226.094 149.943 230.45C142.216 240.297 136.706 246.373 132.991 253.491C130.618 257.767 129.391 262.583 129.429 267.473C129.434 267.799 129.359 268.122 129.209 268.412C129.059 268.702 128.84 268.95 128.572 269.135C126.892 270.066 118.955 274.955 117.488 276.036C117.347 276.148 117.184 276.232 117.01 276.282C116.835 276.331 116.653 276.346 116.473 276.326C116.293 276.305 116.119 276.249 115.961 276.161C115.802 276.073 115.663 275.955 115.55 275.813C115.438 275.671 115.354 275.508 115.304 275.334C115.255 275.16 115.24 274.977 115.261 274.798C115.281 274.618 115.337 274.443 115.425 274.285C115.513 274.127 115.632 273.987 115.773 273.875C118.577 271.603 122.961 268.47 125.669 266.627Z" fill="#191919"/>
<path d="M148.558 291.491C143.973 295.188 138.19 298.319 134.638 301.061C134.365 301.294 134.009 301.41 133.651 301.382C133.292 301.354 132.959 301.184 132.725 300.911C132.498 300.629 132.391 300.268 132.427 299.907C132.464 299.547 132.64 299.215 132.919 298.983C136.217 295.801 144.418 290.109 146.837 287.748C147.115 287.489 147.462 287.316 147.837 287.249C148.211 287.183 148.597 287.226 148.948 287.374C158.987 291.58 167.766 285.046 175.597 277.431C179.101 274.021 182.403 270.459 185.229 267.378C185.475 267.101 185.82 266.93 186.19 266.904C186.56 266.878 186.926 266.998 187.208 267.239C187.466 267.492 187.622 267.831 187.646 268.191C187.671 268.552 187.562 268.909 187.34 269.194C184.649 272.531 181.668 276.465 178.302 280.097C170.142 288.903 159.852 295.58 148.558 291.491Z" fill="#191919"/>
<path d="M252.717 125.398C239.767 126.49 238.815 91.4089 238.204 79.4081C237.336 56.2716 226.403 22.0539 203.902 26.2637C201.354 24.1424 198.342 22.6507 195.111 21.9093C191.879 21.1678 188.518 21.1974 185.3 21.9957C150.725 29.3929 131.16 93.442 107.595 112.374C98.605 119.552 94.3661 116.61 94.1392 119.847C94.1115 120.3 94.2316 120.75 94.4814 121.128C94.7312 121.507 95.0972 121.794 95.5243 121.946C99.8877 123.384 104.403 124.311 108.98 124.707L105.616 128.026C105.422 128.22 105.269 128.452 105.167 128.706C105.065 128.961 105.015 129.234 105.021 129.508C105.027 129.783 105.089 130.053 105.203 130.303C105.316 130.552 105.479 130.777 105.682 130.962C112.647 137.643 121.528 141.756 130.287 145.824C140.055 150.336 149.668 154.389 160.425 154.798C160.382 155.097 160.342 155.396 160.301 155.697C157.437 156.745 154.712 158.142 152.188 159.854C151.862 160.002 151.606 160.271 151.474 160.604C151.343 160.937 151.346 161.308 151.483 161.638C151.62 161.969 151.88 162.234 152.209 162.376C152.537 162.518 152.908 162.527 153.243 162.401C156.578 161.603 159.827 160.482 162.943 159.053C163.323 158.925 163.654 158.682 163.89 158.358C164.126 158.034 164.256 157.645 164.262 157.245C164.262 156.187 164.381 155.134 164.392 154.077C164.646 153.77 164.806 153.398 164.856 153.004C166.245 136.423 166.517 136.642 165.648 135.697C150.628 118.879 160.231 93.539 172.096 74.3466C173.323 73.5766 174.727 73.1362 176.173 73.0682C177.62 73.0003 179.06 73.307 180.353 73.9586C182.197 75.0819 183.666 76.7264 184.576 78.6845C184.626 78.8591 184.711 79.0221 184.824 79.1641C184.937 79.306 185.078 79.4242 185.237 79.5119C185.396 79.5995 185.571 79.6548 185.751 79.6746C185.932 79.6944 186.115 79.6783 186.289 79.6273C186.644 79.5231 186.945 79.286 187.129 78.9655C187.314 78.6449 187.367 78.2656 187.279 77.9065C187.112 76.541 186.67 75.2235 185.98 74.0337C185.29 72.8438 184.365 71.8065 183.262 70.9843C182.159 70.1622 180.901 69.5724 179.564 69.2507C178.226 68.9289 176.838 68.8819 175.481 69.1125C176.145 68.1309 183.917 57.3173 183.917 57.3173C185.564 67.0173 192.014 79.3421 198.56 87.0905C202.449 91.7177 207.114 95.6328 212.345 98.6606C211.554 108.027 209.377 121.652 203.771 131.802C198.837 140.85 193.192 144 186.466 144.899C183.142 144.579 179.894 143.706 176.857 142.318C175.668 141.822 174.416 141.397 173.229 140.807C173.077 140.708 172.908 140.639 172.729 140.605C172.551 140.571 172.368 140.572 172.19 140.609C172.012 140.646 171.844 140.717 171.694 140.82C171.543 140.922 171.415 141.052 171.315 141.204C171.216 141.356 171.147 141.525 171.113 141.704C171.079 141.882 171.08 142.065 171.117 142.243C171.154 142.421 171.226 142.589 171.328 142.739C171.43 142.89 171.56 143.018 171.712 143.118C172.758 144.101 173.883 144.996 175.076 145.795C178.073 147.6 181.53 148.496 185.026 148.373C185.273 156.193 184.772 150.294 184.772 158.849C184.789 159.196 184.895 159.533 185.08 159.826C185.265 160.12 185.523 160.361 185.829 160.525C189.758 162.442 193.868 163.962 198.098 165.063C198.26 165.152 198.438 165.208 198.622 165.227C198.806 165.246 198.991 165.228 199.168 165.173C199.345 165.119 199.509 165.03 199.65 164.911C199.792 164.792 199.908 164.646 199.992 164.482C200.076 164.317 200.126 164.137 200.139 163.953C200.152 163.769 200.128 163.583 200.069 163.409C200.009 163.234 199.914 163.073 199.791 162.935C199.668 162.797 199.518 162.686 199.351 162.607C195.223 159.732 192.848 159.416 188.732 157.452C188.671 156.647 188.664 155.844 188.567 155.039C200.603 158.072 213.299 157.119 224.748 152.323C236.695 147.032 246.865 138.41 254.042 127.491C254.181 127.272 254.255 127.017 254.255 126.758C254.255 126.498 254.182 126.244 254.043 126.024C253.904 125.805 253.705 125.63 253.471 125.519C253.236 125.408 252.974 125.366 252.717 125.398ZM164.39 44.1117C153.654 57.4783 142.123 76.6843 136.29 85.5055C136.168 85.7011 135.975 85.8414 135.752 85.8964C135.528 85.9515 135.292 85.9168 135.094 85.8C134.896 85.6831 134.751 85.4932 134.691 85.271C134.631 85.0489 134.66 84.812 134.772 84.6112C143.774 68.4684 150.646 56.8284 163.005 42.9632C163.158 42.7796 163.377 42.664 163.615 42.642C163.853 42.62 164.089 42.6933 164.273 42.8459C164.457 42.9984 164.572 43.2177 164.594 43.4555C164.616 43.6932 164.543 43.93 164.39 44.1137V44.1117ZM181.144 31.0788C180.553 31.4998 180.023 31.9499 179.495 32.3767C178.966 32.7491 174.205 36.1791 174.153 36.214C173.559 36.6388 172.965 36.99 172.372 37.4245C172.203 37.5881 171.977 37.6787 171.743 37.6765C171.508 37.6743 171.284 37.5796 171.118 37.4129C170.96 37.2456 170.871 37.0237 170.871 36.7931C170.871 36.5624 170.96 36.3405 171.118 36.1732C172.238 34.6099 173.622 33.2536 175.208 32.1652C176.745 31.011 178.461 30.1152 180.287 29.5132C180.495 29.3995 180.739 29.373 180.967 29.4396C181.079 29.4726 181.184 29.5274 181.276 29.6009C181.367 29.6745 181.443 29.7653 181.499 29.8682C181.556 29.9712 181.591 30.0842 181.604 30.2008C181.616 30.3174 181.606 30.4354 181.573 30.548C181.54 30.6606 181.485 30.7656 181.412 30.857C181.338 30.9484 181.247 31.0244 181.144 31.0807V31.0788Z" fill="#191919"/>
</svg>
