<svg width="40" height="40" viewBox="0 0 40 40" fill="none" xmlns="http://www.w3.org/2000/svg">
<rect x="0.5" y="0.5" width="39" height="39" rx="5.5" fill="white"/>
<path d="M21.5 19.5H18.5" stroke="#191919" stroke-linecap="round" stroke-linejoin="round"/>
<path d="M23 14C22.9774 13.2115 22.654 12.4615 22.0962 11.9038C21.5385 11.346 20.7885 11.0226 20 11C19.2114 11.0224 18.4613 11.3457 17.9035 11.9035C17.3457 12.4613 17.0224 13.2114 17 14C17.0112 14.5111 17.1554 15.0105 17.4184 15.4489C17.6815 15.8874 18.0542 16.2496 18.5 16.5V17.5H21.5V16.5C21.9458 16.2496 22.3185 15.8874 22.5816 15.4489C22.8446 15.0105 22.9888 14.5111 23 14Z" fill="#FFEF5E"/>
<path d="M20 13.229C20.5855 13.2458 21.1542 13.4286 21.6399 13.7561C22.1255 14.0836 22.5081 14.5424 22.743 15.079C22.8973 14.7392 22.9846 14.3729 23 14C22.9774 13.2115 22.654 12.4615 22.0962 11.9038C21.5385 11.346 20.7885 11.0226 20 11C19.2115 11.0226 18.4615 11.346 17.9038 11.9038C17.346 12.4615 17.0226 13.2115 17 14C17.0153 14.3732 17.1026 14.7399 17.257 15.08C17.4917 14.5432 17.8742 14.0841 18.3598 13.7564C18.8455 13.4286 19.4143 13.2457 20 13.229Z" fill="#FFF9BF"/>
<path d="M23 14C22.9774 13.2115 22.654 12.4615 22.0962 11.9038C21.5385 11.346 20.7885 11.0226 20 11C19.2114 11.0224 18.4613 11.3457 17.9035 11.9035C17.3457 12.4613 17.0224 13.2114 17 14C17.0112 14.5111 17.1554 15.0105 17.4184 15.4489C17.6815 15.8874 18.0542 16.2496 18.5 16.5V17.5H21.5V16.5C21.9458 16.2496 22.3185 15.8874 22.5816 15.4489C22.8446 15.0105 22.9888 14.5111 23 14Z" stroke="#191919" stroke-linecap="round" stroke-linejoin="round"/>
<path d="M12 28C12.3461 28 12.6845 27.8974 12.9722 27.7051C13.26 27.5128 13.4843 27.2395 13.6168 26.9197C13.7492 26.5999 13.7839 26.2481 13.7164 25.9086C13.6489 25.5691 13.4822 25.2573 13.2374 25.0126C12.9927 24.7678 12.6809 24.6012 12.3414 24.5336C12.0019 24.4661 11.6501 24.5008 11.3303 24.6332C11.0105 24.7657 10.7372 24.99 10.5449 25.2778C10.3526 25.5655 10.25 25.9039 10.25 26.25C10.25 26.7141 10.4344 27.1592 10.7626 27.4874C11.0907 27.8156 11.5359 28 12 28Z" fill="#FFDDA1" stroke="#191919" stroke-linecap="round" stroke-linejoin="round"/>
<path d="M15.5 31.5C15.3017 30.7223 14.85 30.0327 14.2162 29.5403C13.5824 29.0478 12.8026 28.7805 12 28.7805C11.1974 28.7805 10.4176 29.0478 9.78383 29.5403C9.15003 30.0327 8.69832 30.7223 8.5 31.5H15.5Z" fill="#66E1FF" stroke="#191919" stroke-linecap="round" stroke-linejoin="round"/>
<path d="M20 28C20.3461 28 20.6845 27.8974 20.9722 27.7051C21.26 27.5128 21.4843 27.2395 21.6168 26.9197C21.7492 26.5999 21.7839 26.2481 21.7164 25.9086C21.6489 25.5691 21.4822 25.2573 21.2374 25.0126C20.9927 24.7678 20.6809 24.6012 20.3414 24.5336C20.0019 24.4661 19.6501 24.5008 19.3303 24.6332C19.0105 24.7657 18.7372 24.99 18.5449 25.2778C18.3526 25.5655 18.25 25.9039 18.25 26.25C18.25 26.7141 18.4344 27.1592 18.7626 27.4874C19.0908 27.8156 19.5359 28 20 28Z" fill="#FFDDA1" stroke="#191919" stroke-linecap="round" stroke-linejoin="round"/>
<path d="M23.5 31.5C23.3017 30.7223 22.85 30.0327 22.2162 29.5403C21.5824 29.0478 20.8026 28.7805 20 28.7805C19.1974 28.7805 18.4176 29.0478 17.7838 29.5403C17.15 30.0327 16.6983 30.7223 16.5 31.5H23.5Z" fill="#66E1FF" stroke="#191919" stroke-linecap="round" stroke-linejoin="round"/>
<path d="M28 28C28.3461 28 28.6845 27.8974 28.9722 27.7051C29.26 27.5128 29.4843 27.2395 29.6168 26.9197C29.7492 26.5999 29.7839 26.2481 29.7164 25.9086C29.6488 25.5691 29.4822 25.2573 29.2374 25.0126C28.9927 24.7678 28.6809 24.6012 28.3414 24.5336C28.0019 24.4661 27.6501 24.5008 27.3303 24.6332C27.0105 24.7657 26.7372 24.99 26.5449 25.2778C26.3526 25.5655 26.25 25.9039 26.25 26.25C26.25 26.7141 26.4344 27.1592 26.7626 27.4874C27.0908 27.8156 27.5359 28 28 28Z" fill="#FFDDA1" stroke="#191919" stroke-linecap="round" stroke-linejoin="round"/>
<path d="M31.5 31.5C31.3017 30.7223 30.85 30.0327 30.2162 29.5403C29.5824 29.0478 28.8026 28.7805 28 28.7805C27.1974 28.7805 26.4176 29.0478 25.7838 29.5403C25.15 30.0327 24.6983 30.7223 24.5 31.5H31.5Z" fill="#66E1FF" stroke="#191919" stroke-linecap="round" stroke-linejoin="round"/>
<path d="M20 8.5V9.5" stroke="#191919" stroke-linecap="round" stroke-linejoin="round"/>
<path d="M23.889 10.111L23.182 10.818" stroke="#191919" stroke-linecap="round" stroke-linejoin="round"/>
<path d="M25.5 13.5H24.5" stroke="#191919" stroke-linecap="round" stroke-linejoin="round"/>
<path d="M16.111 10.111L16.818 10.818" stroke="#191919" stroke-linecap="round" stroke-linejoin="round"/>
<path d="M14.5 13.5H15.5" stroke="#191919" stroke-linecap="round" stroke-linejoin="round"/>
<path d="M19 21.5H21" stroke="#191919" stroke-linecap="round" stroke-linejoin="round"/>
<rect x="0.5" y="0.5" width="39" height="39" rx="5.5" stroke="#C8D2DD"/>
</svg>
