<svg width="32" height="32" viewBox="0 0 32 32" fill="none" xmlns="http://www.w3.org/2000/svg">
<path d="M26.3382 10.2594C26.3541 10.4886 26.3541 10.7178 26.3541 10.9492C26.3541 17.9976 20.9882 26.1267 11.1766 26.1267V26.1224C8.27816 26.1267 5.43998 25.2964 3 23.731C3.42145 23.7818 3.84501 23.8071 4.26963 23.8082C6.67158 23.8103 9.00487 23.0043 10.8945 21.5203C8.61194 21.477 6.61032 19.9887 5.91107 17.816C6.71066 17.9702 7.53455 17.9385 8.31936 17.7241C5.83079 17.2213 4.04042 15.0348 4.04042 12.4955C4.04042 12.4723 4.04042 12.4501 4.04042 12.4279C4.78192 12.8409 5.61215 13.0702 6.46139 13.0955C4.11753 11.5291 3.39504 8.41096 4.81044 5.9731C7.51871 9.30562 11.5146 11.3315 15.8041 11.546C15.3742 9.69327 15.9614 7.75185 17.3473 6.44947C19.4957 4.42989 22.8747 4.53341 24.8943 6.6808C26.0889 6.44525 27.2339 6.0069 28.2817 5.38581C27.8835 6.62059 27.0501 7.66946 25.9368 8.33597C26.9941 8.21133 28.0272 7.92825 29 7.49623C28.2839 8.5694 27.3818 9.5042 26.3382 10.2594Z" fill="#141327"/>
</svg>
