<svg width="256" height="256" viewBox="0 0 256 256" fill="none" xmlns="http://www.w3.org/2000/svg">
<path d="M242 0H14C6.26801 0 0 6.26801 0 14V242C0 249.732 6.26801 256 14 256H242C249.732 256 256 249.732 256 242V14C256 6.26801 249.732 0 242 0Z" fill="#414F97"/>
<path d="M15.7894 200H42.2884L54.2621 163.392H106.966L118.939 200H145.536L94.8939 58.3774H66.432L15.7894 200ZM80.3685 83.6006H80.9574L100.586 143.861H60.6414L80.3685 83.6006ZM146.581 200H171.902V142.193H231.279V121.583H171.902V79.6748H236.874V58.3774H146.581V200Z" fill="white"/>
</svg>
